<svg xmlns="http://www.w3.org/2000/svg" viewBox="0 0 140 190" version="1"><path fill-opacity=".5" d="M21 5h103a16 16 0 0 1 16 16v153a16 16 0 0 1-16 16H21a16 16 0 0 1-16-16V21A16 16 0 0 1 21 5z"/><path fill="#e7e7e7" d="M17 1h103a16 16 0 0 1 16 16v153a16 16 0 0 1-16 16H17a16 16 0 0 1-16-16V17A16 16 0 0 1 17 1z"/><path fill="#c7891f" d="M19 3h103a16 16 0 0 1 16 16v153a16 16 0 0 1-16 16H19a16 16 0 0 1-16-16V19A16 16 0 0 1 19 3z"/><path fill="#fff" d="M18 2h103a16 16 0 0 1 16 16v153a16 16 0 0 1-16 16H18a16 16 0 0 1-16-16V18A16 16 0 0 1 18 2z"/><path d="M19.2 12.1h6.4v21.4c0 3-.8 5.1-2.5 6.6-1.7 1.4-4.2 2.2-7.6 2.2h-1.3v-4.6h1c1.3 0 2.3-.4 3-1.1.7-.7 1-1.8 1-3.1V12M120.5 176.9h-6.4v-21.4c0-3 .9-5.1 2.6-6.6 1.6-1.4 4.2-2.2 7.6-2.2h1.3v4.6h-1c-1.4 0-2.4.4-3 1.1-.7.7-1 1.8-1 3.1V177"/><path d="M21 48.5c-2.6 0-4.8 3.3-4.8 7.3 0 3.5 4.4 9.2 4.2 12-1.4.7-5.7-6.5-8-6.5-2.6 0-4.8 3.3-4.8 7.3S9.8 76 12.4 76c2.3 0 6.3-7.2 8-6.6l-2.9 13 7-.1-3-12.8c1.7-.6 5.8 6.6 8.1 6.6 2.7 0 4.8-3.2 4.8-7.3 0-4-2.1-7.2-4.8-7.2-2.2 0-6.3 7-8 6.3 0-2.8 4.3-8.5 4.3-12 0-4-2.2-7.3-4.8-7.3zM118 139.8c2.6 0 4.8-3.2 4.8-7.2 0-3.5-4.4-9.2-4.2-12 1.4-.8 5.7 6.5 8 6.5 2.6 0 4.8-3.3 4.8-7.3s-2.2-7.3-4.8-7.3c-2.3 0-6.3 7.2-8 6.6l2.9-13-7 .1 3 12.8c-1.7.6-5.8-6.6-8.1-6.6-2.7 0-4.8 3.2-4.8 7.2s2.1 7.3 4.8 7.3c2.2 0 6.3-7 8-6.3 0 2.8-4.3 8.5-4.3 12 0 4 2.2 7.2 4.8 7.2z" fill-rule="evenodd"/><path d="M29.7 158.4c-.2-.2-.2-1.1-.2-2.6v-3.1a795.6 795.6 0 0 1 .1-22.6 694.3 694.3 0 0 1 .2-21 2382.4 2382.4 0 0 0 .4-50.7 1766.7 1766.7 0 0 1 .3-27.3 1151.3 1151.3 0 0 0 54.3-.5 304.6 304.6 0 0 1 21.3-.5c2.1 0 2.8 0 3-.2 0-.2 0-.2 0 0 0 .1.2.2.6.2.3 0 .7 0 .9.2l.4.2V40a1095.2 1095.2 0 0 1 0 16.2 19770.7 19770.7 0 0 0 0 61 1272.2 1272.2 0 0 1 .2 36.8c0 3 0 3.3-.5 3.7-.2.3-.6.3-3.8.3a108.6 108.6 0 0 1-4 0 702.4 702.4 0 0 1-20.6.3l-.4-.1-.6-.2a1463.2 1463.2 0 0 1-39.5.3 282.2 282.2 0 0 0-12.1.2zm19.1-1.1c0-.2 2.8-.1 3 0 0 .1.1.1.2 0a55 55 0 0 0 9.2 0 16.5 16.5 0 0 0 3.2-.2H66c.8 0 1.5.1 1.4.2h.4c.2-.1.6-.2.8-.1l.4-.1h1.6l.3.2h.4c.2-.1.6-.2 1-.1h.7c0-.2.3-.2.6 0 .6 0 3 0 3.6-.3.5-.1.8 0 .6.2 0 .2.2.2.7.1l1.7-.1c.7 0 .9-.1.9-.3l.1-.4c.3-.2.2-.4 0-.4a.2.2 0 0 1-.3-.3c0-.2-.6-.3-1.1-.2l-.1-.3-.1-.4c-.2 0-.3 0-.3-.2 0-.3 0-.3-.3-.2-.2 0-.3.3-.3.6s-.1.5-.3.6c-.4.2-1.2.2-1.3 0l-.7.2c-.6.2-.9.2-1.4 0l-.8-.4h-.3l-.8.3c-1.1.1-1.4-.1-.9-.6.2-.3.2-.3 0-.5-.5-.4-1 0-1 .7 0 .2-.2.3-.7.4-1 .2-1.2-.1-.4-1.7 1-2.3 1.3-2.9 1.5-2.9.3 0 .7 1.2.6 1.5v.1c.3 0 .7.7 1 1.6 0 .2.1.3.3.3.3 0 .3-.1.4-.8v-1.6c0-1 .2-1.1.7-1.1.4 0 .5 0 .4.2-.2.6-.2 2 0 2.1l-.1.4c-.2.2-.2.3 0 .3l.2.6c0 .3 0 .5.3.5.4.2 1-.4 1-1.2a22 22 0 0 1 .2-2.3v-.6h1l1 .1c-.1.4 0 .7.4 1.1.5.5.6.5.8.4.4-.3.5-.8.3-1-.2-.1.1-.8.4-1 .2-.1.1-1.3 0-1.2h-6.1a564.4 564.4 0 0 1-6.6 0l-12.5.1c-8.5 0-10.2 0-10.4.3v1.2l-.1 4.8-.1 1.5h.7l.7-.1c0-.1.1-.1.2 0h1l.8.2s.8 0 .8-.2zm3-1.6c-.2 0-.3-.3-.3-.4 0-.1 0-.2-.1 0-.2.3-.8.1-1-.4-.4-.6-.4-1-.2-1.8.3-1 .8-1.6 1.7-1.8.7-.2.8-.2 1 .1 0 .2.2.3.4.3.6 0 1 1.6.8 2.6-.1.6-1.2 1.6-1.6 1.6-.2 0-.5 0-.7-.2zm1-1c.2-.2.3-.6.2-1.4 0-1-.1-1.2-1-1.2-.6 0-1 2.2-.5 2.6.2.1.2.1 0 .1s-.2 0 0 .2c.4.3 1 .2 1.3-.2zm2.5 1.2V152v-.3c-.3-.2-.3-.2 0-.5 0-.3.3-.4.4-.3.2.2.7.2.6 0l.1-.1.2.1c0 .1.2.2.5.1.5 0 .7.1 1 .4l.5.6v.3c-.4.3-.2 2 .2 2 .2 0 .6.3.6.7 0 .3-.2.9-.5.9a9 9 0 0 1-1.8-1.8c-.2-.4-.5-.5-.6-.4-.1.2-.2 1 0 1.5 0 .2 0 .3-.4.5-.6.2-.7.2-.8 0zm2-3.1c.3-.6 0-1.1-.6-1-.2 0-.4 0-.3.3 0 .1 0 .3-.2.4-.2.1.3.7.7.6.2 0 .4-.1.5-.3zm8.6 3c-.4 0-.4 0 0-.7.2-.6.3-.9.2-2.4V151h1.4c.8 0 1.4-.1 1.5-.2.2-.2.7.3.6.6 0 .4-.6.8-.7.5l-.4-.2-.3-.1c-.1-.1-.5-.2-1 0l.1 1.3.5-.3c.4-.2.4-.2.4.4.1.6 0 .7-.3.8-.2 0-.3.2-.3.3l-.1.2-.2.4c0 .5.1.5.8.2.5-.3 1-.2 1 .2s-.8.8-1.3.7H66zm-20.7-.2l.3-2a50.8 50.8 0 0 1 0-2c0-.3 2.4 0 3 .2.5.3.6.5.3 1.1-.2.5-.3 1.1-.1 1.1.3 0 .1.8-.3 1.3s-.4.5-1.9.5c-1.3 0-1.4 0-1.3-.2zm2.3-.7c.5-.5.3-1-.3-1-.5 0-.6 0-.6.2 0 .6 0 1 .3 1 .2.2.1.3.6-.2zm-.5-1.4l.3-.6c.7-.6.5-1.2-.3-1-.4 0-.5.2-.5 1 0 .6 0 .8.2.8s.3-.1.3-.2zm13.8 2.1c-.2 0-.1-.5.1-1.6v-.7c-.1-.1-.2-.3 0-.5 0-.4 0-.7-.4-1.1-.2-.4 0-1 .5-.8h2l.4.2c.3 0 .6.2 1 .6.5.6.5.6.5 1.7 0 1-.1 1.2-.6 1.8l-.6.6h-1.3a6 6 0 0 1-1.6-.2zm2-.6c.6 0 .8-.4.8-1.4l.1-1v-.2l-.2-.2c0-.6-1-.9-1.5-.5l-.1 1.4c0 .7 0 1.2-.2 1.2v.2l.2.4c.1.5.2.6.5.3l.5-.2zm-27 2.2c.1.1 2-.3 2.5-.6a6.9 6.9 0 0 1 2.7-1.2c.2-.2.2-.2.7-.2l.3-.3c0-.2 0-.3-.4-.2l-1 .2-1 .2-.4.2-.7.4c-.2.3-.5.4-.5.3l-.2.1-.4.2-.9.2c-.2.2-.7.3-1 .4-.5 0-.6.1-.5.3.2.1.3.2.5 0h.3zm3.6 0h-.2s-.1 0 0 0l.1.2v-.1zm.6-.3c0-.3-.2-.4-.4-.1-.1.2 0 .7.3.6l.1-.5zm47.4 0c.2-.2.1-.3-.3-.5a2 2 0 0 1-.7-.4c-.1-.3-.7-.2-.7 0s0 .5.2.7c0 .3.2.4.7.4.4 0 .7 0 .8-.2zm10.7 0c.1-.3.2-.4.1-.5v-1.7a94.9 94.9 0 0 0-.4-5c-.2 0-.2.5-.3 3.7 0 3.2 0 3.7.2 3.7s.3-.1.4-.3zm5.2-1a27.5 27.5 0 0 0 0-4v-.6-1c0-.9-.1-1.1-.4-1a51.3 51.3 0 0 0 .3 7.4l.1-.8zm3.7-2.2c0-2 0-2.8-.2-3-.3-.3-.3-.1-.1.8v1.1c-.1.1-.1.3 0 .4v2c0 1.5 0 1.8.1 1.7.2-.2.2-1 .2-3zm-7.6 1.4v-1.5-.9c0-.6 0-.8-.2-.8-.3 0-.3 0-.3 1.2 0 2.3 0 3.5.3 3.5.1 0 .2-.4.2-1.5zm1.2-1.8c0-3.3 0-4-.3-3.5a21 21 0 0 0 .2 6.8l.1-3.3zm1.4 2.7v-2.6a277.2 277.2 0 0 1-.3-3.8 95.8 95.8 0 0 0-.1 6.9c.1.3.3.1.4-.5zm2.6-.1h.2c0-.2-.1-.3-.3-.3-.1 0-.2.2-.2.5 0 .4 0 .4.1 0 0-.1.1-.3.2-.2zm3.8.2l-.3-.1c-.2 0-.3.2 0 .3 0 .2.3 0 .3-.2zm-2.5-.2l-.2-.4-.1.4c0 .5.3.5.3 0zm-16.4 0c0-.3-.2-.4-.4-.2-.3.3-.3.4 0 .4.2 0 .4 0 .4-.2zm-.7-.5l-.6-.2c-.5 0-.6 0-.3.3.5.5 1 .4.9 0zm19.5-1.5a165.8 165.8 0 0 1-.2-4.5c-.3-.2-.4.3-.2.7v4.1c0 1.2 0 1.6.2 1.6.1 0 .2-.7.2-1.9zm-76.8 1.4c.4-.3.4-.4.1-.5l-.2-.4-.2-.3c-.5-.1.6-2.9 1.2-2.9l.5-.3c.3-.3 2.4-.4 3-.2.3.1.3.2.2.2-.1 0-.1 0 0 .2v.5c-.2.5-.6.4-.9 0-.3-.4-2-.4-2.4 0-.4.4-.5 1.8-.1 2l.2.5.3.5c.2.2.3.2.7 0 .5-.2.5-.2.2-.7-.2-.3-.2-.4 0-.4.1 0 .3 0 .3-.2 0-.1 0-.1 0 0 .1 0 .4.2.6.1h.8c.3 0 .5-.2 1-1l.5-1.2.2-.1s.2-.2.2-.5c0-.2 0-.4-.2-.5-.2-.1-1.3-.2-2.7-.1l-2.4-.1c0-.1-.2 0-.4 0l-1 .1-.5.1c-.1.2-.2 5 0 5.5 0 .2.7 0 1-.3zm73 0l.1-.1c.1 0 .1-.2 0-.4v-1.6c-.1-1-.2-1.5-.4-1.3v2.5c0 .9 0 1 .2 1h.1zm5-1.3a5 5 0 0 0 0-1.3c-.1 0-.2 0-.2.2s0 .3-.2.2c0 0-.1 0 0 .1.2.3.2.8.2 1.5l.1.5.1-1.2zm-3.7-1.1a41 41 0 0 0-.2-2.5c-.1-1-.2-.6-.2 1v1.7c-.2 0-.2.1 0 .2v.8c0 .5.2.8.4.9v-2.1zm-28 1.5c.5-.5.5-1.1.2-1.5-.4-.5-.5-.6-.5-.9l-.2.1c-.2.2-.3.7-.3 1.5 0 1.1 0 1.2.3 1.1l.6-.3zm8.8.1c0-.2-.2-.3-.4-.3a221 221 0 0 1-1.4 0l-.6.2h.4l1.2.3.7.1c.3 0 .3 0 .1-.3zm-3.1-.4c.2-.2.1-.3-.4-.3l-.6.2.4.2c.1 0 .3 0 .3.2 0 0 0 .1 0 0l.3-.3zm11.4-.3c0-.4 0-.8-.2-.8-.1 0-.2.3-.2.7 0 .7.4.8.4.1zm-14.4-.2c0-.4 0-.5-.2-.2v.4c.1.3.2.2.2-.2zm1.8.3H82s0 .1.2 0c.2 0 .2 0 0 0zm-42.2-.8c0-.2-.1-.2-.2-.1l-.3.2c-.2.1-.2.1 0 .1.3 0 .4.2.4.3 0 .3 0 .3.1 0v-.5zm-2.3.4l-.2-.1-.3.1.3.2c.1 0 .2 0 .2-.2zm55-.4v-.1c-.2 0-.2.4 0 .4v-.3zm-53.2-.3c0-.2-.2-.3-.6-.3l-.2-.4c0-.4-.5-.6-.7-.4-.2.2 0 .5.8 1 .5.4.7.4.7 0zm47.2-.6c1-1 .9-1.5-.2-1-.6.4-1.1 1-1 1.3.1.4.7.2 1.2-.3zm3.3-1c0-1.5 0-1.4-.1-1.4-.2 0-.3 2.3-.1 2.5.2.2.3-.1.2-1.2zm19.3.3c0-.9-.2-1-.2-.1l.1.6c.1 0 .2-.2.1-.5zm-14.6-.5l-.1.2v.2c.1 0 .1-.3 0-.4zm4.6-.4c0-.9 0-1-.2-.8-.3.2-.3 1-.2 1.5.2.5.3.2.4-.7zm5 .8l-.1-.2c-.1 0-.1.1 0 .2v.2l.1-.2zM89 151l-.1-.2-.1.2.2.1v-.1zm2.2-.7v-.3c-.1 0-.2.1-.2.3v.3s.2-.1.2-.3zm-50.3-.3l.1-.4a17.4 17.4 0 0 1 .4-1.9v-.5l.2-1.1.1-1 .2-1 .1-.8s.2-.6.2-1.3V141c-.3 0-.5-.7-.4-.9l.1-.5c0-.3 0-.4-.5-.5-.6-.3-.6-.6 0-1.1.5-.4.7-.4.8-.2l.1.3.3.1c.1 0 .2 0 .1-.1v-.3c.3 0 .2-.3 0-1-.2-.3-.2-.5.2-1.3.5-1 .8-1.2 1-.6l.3.9c.3.4.3.4-.2 1.5-.6 1-.5 1.6 0 1 .4-.2.4-.2.7.1.2.4.2.4 0 .7l-.5.3c-.2.1-.3.3-.3.4l-.3.8c-.2.3-.3.9-.4 1.3-.1 1.2-.3 7.9-.1 8.2.2.7.8 0 .9-1.2a18.1 18.1 0 0 1 1-4.9l.1-1 .1-.6.3-.7s0-.4.2-.7a43 43 0 0 1 6.2-11.4l.6-1c.5-.9.5-1 .4-3a8 8 0 0 0-.2-2.5l-.1-.3v-.2l-.3-1.4a3.3 3.3 0 0 0-.3-1.1l-.3-.6c-.2-.4-.4-.5-.6-.4-.3 0-.4.1-.4.2h-.2a11.5 11.5 0 0 1-6.7 1c-1 0-1.7-.2-1.9-.4-.1 0-.2-.1-.2 0l-.2-.1c-.4-.3-.5.3-.6 2.5a25034 25034 0 0 0-.4 9.7l-.1 2.7a43.6 43.6 0 0 1-.6 6.7l-.4 4.2-.1.8h.5l.5-.1.5-.1h.5l-.1.4c-.2.2-.3.6-.3 1l-.1.5c-.1 0-.2 0-.3.2l-.3.7-.3 1c-.1.5 0 .5.1.5h.3c0 .2.6-.1.6-.3zm42.5.3s0-.1-.1 0c-.2 0-.2.2 0 .2l.1-.2zm-41-.2c.5-.2.5-.4.1-.5-.2 0-.2 0 0 0 .3-.1.3-.2 0-.5-.1-.3-.2-1.9 0-2.6v-.4c0-.5-.3.1-.4.9 0 .4-.2.9-.3 1l-.1.9-.2.7c-.2.3 0 .7.2.7s.4 0 .7-.2zm64.6-.1c-.2-.3-.3-.2-.3 0s.1.3.2.2c0 0 .1-.1 0-.2zM89 150c0-.1 0-.2-.2-.2l-.1.2.1.2c.1 0 .2 0 .2-.2zm-49.7-.6c.2-.4.5-1 .5-1.3 0-.3.2-.6.3-.7v-.3c-.7-.4-1 0-1.1 1.4 0 .5-.2 1-.3 1.1v.4c.1.1.1.1.6-.6zm65.1.3l-.1-.2c-.2.1-.2.6 0 .6l.1-.4zm-20.8-.1c0-.2.1-.3.2-.3v-.5-.7l-.2-.1c-.2 0-.2-.2-.2-.5v-.5l-.3-.4c0-.2 0-.4.1-.3l.1-.1c0-.2-.3-.4-.4-.3l-.1 1.7c0 1.2 0 1.7.2 1.8l.2.4c0 .3.3 0 .4-.2zm25.9 0c0-.2 0-.3-.2-.3l-.1.3.1.3c.1 0 .2-.1.2-.3zm-77-.6a55.3 55.3 0 0 0 4 0h.2l.5-.1c.2 0 .4-.2.5-.3.3-.2.4-1.1.2-1.2h-6c-1 0-1.2 0-1-.5 0-.2.3-.2 1-.2l1.6-.1h.6l.7.1 1.7-.1c1.5 0 1.8-.2 1.9-.7a48.6 48.6 0 0 0 .9-7.8l.1-.7c.1-.2.1-.2 0-.2 0 0-.1-.1 0-.2v-2.8l.4-6 .1-9.8-.4-1c0-.6-.2-1-.3-1-.2 0-.3-.5-.1-.6l.2-1c0-.5 0-.7-.3-1h-.6l-.7.5c-.2 0-.4.2-.4.3 0 .1 0 .1-.1 0l-.5.3-1.2.8a25.7 25.7 0 0 0-2.7 1.5s-.2 0-.2.2l-1 .5c-.5.3-.9.6-.9.8a52.5 52.5 0 0 0 0 6c-.2 0-.2 4.2-.3 18v6.5c.2.2.2.2.4 0 .2 0 .8-.2 1.7-.2zm53.3.2v-.4a2 2 0 0 1-.6-1.2c0-.1 0-.3-.2-.3-.4 0-.3-.5.3-1.1l.6-.6-.3-1.7a80.8 80.8 0 0 1-1-7.4l-.2-3.5-.2-2a190 190 0 0 1-.9-14.7l-.1.2h-.3c0 .1-.1.2-.3.1-.1 0-.2 0-.3.2l-.2.2c-.1 0-.4 0-.7.2l-.6.2-.4.1c-.5.5-5.2 1.2-7.2 1.2-1 0-1.5.2-1 .5l.2.6c0 .3.2.7.3.8.1.2.2 1.4.2 4.4 0 4.6 0 4.6.2 4.7v.3c0 .1.1.4.3.5.2.2.3.4.2.6v.2c.2 0 .3.2.4.6l.4.5s.1 0 0 .1c0 .2.6 1.1 1.2 1.7.3.2.5.5.5.6l.5.6c.2.2.5.6.5.9 0 .2.2.4.3.4l.8 1.4.8 1.5v.4l.2.3c.1 0 .2 0 .2.2l.4.8.4.8c0 .1 0 .4.2.6l.3 1 .2.6c.3 1.2.5 2.8.4 3.8 0 1 0 1.2.3 1.2s.4-.2.6-1.2l-.1-1-.2-3c0-2 0-2.3-.4-2.6-.1-.2-.4-.3-.4-.3-.1 0-.2-.1-.2-.3 0-.6-.1-.6-.4-.6-.5 0-.5-.8 0-1.2l.5-.5.2-.6c.1-.4.2-.5.2-1.2 0-.5.7-.3 1 .3.1.4.3.7.4.7v.5c-.2.7-.4 2.1-.2 2.1l.2-.4c.1-.5.5-1 .8-1 .2 0 .4.3.4.7l-.4.6c-.4.4-1 1.4-.8 1.7l.3 1.9c0 .3 0 .6.2.7l.2.5c0 .5.2 1.2.6 2.3l.3.6c0 .4.3.7.4.8v.3c-.2 0-.2 0 0 .2.3.2.9.1 1-.1zm-36-.4a473 473 0 0 1 13.4 0 93.9 93.9 0 0 0 8.1-.3h2l2-.2H76.8c0 .1 1.1.2 1 0 0-.1 1.2-.1 1.6 0 .1.2.3.1.4 0 0-.1.2-.2.3-.1.3 0 .5-.5.4-1.1 0-.3-.2-.4-.7-.3a111 111 0 0 1-8 .2H58.5c-10.5.1-13.2.2-13.3.3l-.1.8c0 .6 0 .6.7.7h4.1zm40.5-.2H94c.5.2 1 .1 1 0h.3l.8-.1H96.9c.2-.1 1.8-.2 2 0h.5c.1-.2.2-.2.3-.1.1.2 1.6.3 1.6 0h.5c.2 0 .5 0 .5-.2 0-.1.1 0 .2 0 .1.3.2.3.2.1 0 0 0-.2.2-.2 0 0 .1 0 0 .1 0 .1.4.2 1 .2h.9c0-.1.7-.2 1.6-.2 1.3 0 1.8 0 2-.2.3-.2.3-.2.2 0 0 .2 0 .3.2.3l.4-.1.6-.2c.3 0 .4 0 .5-.6.2-.9 0-1-1.6-.8a272.3 272.3 0 0 1-14.7.3h-3.8c-2.2 0-2.5.1-2.5.8l.2.7c.2.3 2.3.5 2.4.2zm-3.4-.2v-.3c.1-.2.2-1.1.1-1.4l-.5-.1c-.5 0-.6.5-.3.9.2 0 .3.4.3.6 0 .4 0 .5.2.5s.2 0 .2-.2zm-39.2-2l.6.1H54.4c0-.2 0-.2 0 0h1.8s.2.2.4.1c.3 0 .3 0 .1-.1-.2-.1 0-.2.4 0l.9-.1c.3-.2 1-.2 1 0l.3-.1c.2-.1.3-.1.4 0h.6c.3-.2.5-.3.3-.3-.1 0-.3-.2-.4-.5 0-.3-.3-.5-.4-.5a.4.4 0 0 1-.3-.2c-.1-.2-.2-.2-.3-.2 0 0-.3 0-.5-.2l-1.3-.2c-.5 0-.8-.1-.8-.2l-1.2-.7c-.7-.3-1.3-.7-1.4-1l-.4-.2a.2.2 0 0 1-.2-.3l-.2-.3c-.2 0-.3-.2-.2-.3l-.1-.4-.4-.6c-.2-.3-.2-.5 0-.7 0 0 .2-.2.3 0h1.9c1.2 0 1.9.2 2.2.4l.7.2c.1 0 .2 0 .2.2 0 0 .2.2.5.2s.5.2.5.3l.2.1.3.3.5.6.5.8c.1.6.7 1.4.9 1.1v-.2c-.2 0-.1 0 0-.2.3-.3.3-.6 0-.6v-.3c.2-.6 0-3-.3-3-.1 0-.2 0-.3-.2 0-.2-.3-.4-.7-.5-1-.3-1.8-1.3-1.8-2l-.1-.5c-.2 0-.2-.7-.2-2 0-1-.1-1.8-.2-1.8-.2 0-.1-.4.1-.7.2-.2.3-.3.6-.2l.3.2c-.1.4.6 1.2 1.2 1.5.5.2.7.4.8.7 0 .4.1.5.4.5.1 0 .3 0 .3-.2l.3-.9.4-.9 1.3-2.5c.3-.2.6.2.7.6l.3.9c.2.5.2.3.5 2l.4 1.3.8-.6.9-.5.5-.3 1-.1h.4l-.2.6-.5.7c-.2.2-.2.5-.2 1 .2 1-.2 2-1 2.8l-.9.7-.7.3c-.3.2-.8.3-1 .3-.4 0-.7.5-.6 1.4v.7l.5-.2.9-.2.6-.2.4-.3c1.7-.1 2.5-.3 3.2-.6 1.1-.6 1.2-.5.4.8-1.2 2-3.3 4-5 4.6-.3 0-.5.5-.4.7l.3-.1h1l.3.1c.1.1.2.1.4 0 0 0 .2-.1.2 0H70.2c0 .1.2.2.4 0h2.1a66.6 66.6 0 0 0 7.2-.1l.3-.4c.2-.2.3-.4.2-.6-.1-.2-.2-.3-.1-.4v-.4a3 3 0 0 1-.3-.7c-.2-.7-.3-1.1-.5-1.2-.1 0-.3-.4-.3-.8-.1-.5-.2-.8-.4-.8a.2.2 0 0 1-.2-.2l-.3-.6c-.2-.2-.3-.5-.3-.7l-.5-.8-.5-.7a11 11 0 0 0-2-2.6 43.3 43.3 0 0 0-1.2-1.7l-.1-.4c-.2 0-.3-.3-.3-.4l-.2-.3c-.3-.2-.6-1-.8-1.6l-.1-.4c-.2-.3-.5-4.6-.3-4.6v-2.1c0-2 0-2.9-.4-3.6l-.4-.8c-.1-.3-.3-.5-.5-.5s-.3-.1-.2-.2c0-.2-.2-.3-.5-.3l-.8-.4c-.2-.1-.3-.3-.4-.2v-.5l-.3-.7-.1-.3a9.3 9.3 0 0 0-1-2.8s0-.2-.2-.3c-.2 0-.3-.1-.2-.2l-.2-.4-.2-.4c0-.1 0-.3-.2-.4-.1 0-.2-.2-.1-.3 0-.1 0-.2-.2-.2-.1 0-.2-.1-.2-.3l-.2-.4c-.3-.2-.6-.7-.8-1.3-.1-.3-.3-.4-.6-.4s-1.8.6-1.9.8l-.2.2a95 95 0 0 1-6.1 2.9c-1.2.4-1.3.5-1.6 1.7-.2.8-1.2 2.4-1.8 3-.4.2-.5 1.2-.2 1.2 0 0 .1.1 0 .2 0 .2 0 .3.2.4l.2.5c0 .8.2 1.4.4 2 .2.2.3.7.3 1l.1.6c.1 0 .2 1 .2 2.2 0 1.7-.8 4-1.8 5.2l-.7.9c0 .3-.3.6-.4.6l-.1.1-.4.6c-.4.4-.6.8-1 1.5 0 .3-.3.8-.6 1l-.4.8s0 .4-.2.6a16 16 0 0 0-1.7 3.9c-.3.3-.6 1.2-.6 1.8l-.1.5-.4 1.6-.1.7v.9c.2.2.3.2.3 0 0-.1 0-.1.2 0 0 .3.3.3.9.3l.9-.1zm10.6-.8v-.2l.1.3-.1-.1zm35.8.6c2.4-.2 4.5-.1 4.7.1.2.2.3.2.3 0s.2-.2.6-.2l.7.1h2.8l2-.2c3.9 0 4.6-.1 4.9-.4.2-.2.2-.8.3-4.3a1315 1315 0 0 1 0-7.8v-3.7a2428.8 2428.8 0 0 0-.2-22.5c0-2.7-.1-3.1-.6-2.6a1252.2 1252.2 0 0 1-7.8 8.7l-.2.2a166 166 0 0 1-4 4.2l-1.7 1.8-1.2.1a64.6 64.6 0 0 1-9.9 0 62.8 62.8 0 0 0 .5 12.4l.2 1.2a64.4 64.4 0 0 0 .4 5.4l.6 6.6c0 .3.2.5.5.5.8.1 1.1.2.9.4-.1 0 0 .1.4 0l.8.1c0 .2 3.2 0 5 0zM62.7 145l.1-2.8.1-2c.1-.2 0-.3-.2-.4h-.4l-.2 1.5-.1 2.7c-.2 1.7-.2 1.8 0 2.1.4.4.5.2.7-1.1zm2-.3l.8-.4c.2 0 .4 0 .4-.2 0-.1.3-.4.7-.5l.7-.4.5-.8c.4-.4.5-.6.4-.7h-.9c-.2-.3-1.2.1-1.5.6-.3.4-.3.4 0 .3.6 0 .5.4 0 .7-.8.4-1.2.7-1.6 1.3-.5.6-.3.7.5.1zM59 143a1 1 0 0 0-.6-.5c-.2 0-.5-.2-.5-.3l-.6-.1-.4-.2s-.2-.2-.5-.2c-.6 0-.8-.2-.5-.6.5-.5 0-.8-1.2-.8-.3 0-.5 0-.5.2s0 .3-.2.3c-.1 0-.1 0 0 0l.4.7.5.6.8.3.9.3c.1 0 .3 0 .3.2 0 .1 2 .6 2.2.5v-.4zm-2.4-2.2c0-.2-.1-.3-.2-.3l.2.6v-.3zm8.3-2.1c.5 0 1.7-.9 1.7-1.2l.2-.2c.2 0 .3-.4.4-1.5l.2-1.3c0-.3 0-.3-.2-.2h-.4c-.3 0-1.1 1.2-1.7 2.3l-.8 1.6c-.4.4-.3 1 0 .6l.6-.1zm-.9-1.5c.5-1 .2-4.2-.4-4.8a.5.5 0 0 1-.2-.6c.1-.3.1-.3-.2 0l-.3.5-.4 1c-.5 1-.8 3-.6 3.1l.2.6c0 .3 0 .5.2.5.1.1.2-.1.2-.8v-1-.3c0-.4.5-1.3.7-1a12.6 12.6 0 0 1-.5 4.3c.1.2 1-.9 1.3-1.5zm-2.8-.4c-.2-.8-.4-1.4-.6-1.4l-.3-.3c0-.3-.1-.3-.3-.2-.2.1-.2.2 0 .6l.3.5.1.6c.2.5.6 1 .8.8v-.6zm-1.8-.5c-.2-.3-.4 0-.2.3.2.2.3.2.3 0v-.3zm0-1c.2 0 .5-.9.3-1 0 0-.1-.2 0-.2 0-.1 0-.2-.2-.2-.1 0-.3-.1-.3-.3-.1-.2-.2-.2-.4 0l-.3.5.2 1c0 .7.4 1.2.5.6 0-.2.1-.3.2-.3zm-13.7-15.8c0-.1 0-.1.2 0h1c1-.2 2-.5 2.3-.7 0-.2.3-.3.5-.3l1-.5a13.4 13.4 0 0 0 2.3-2.6 7 7 0 0 0 .7-1.4h-.4c-.2 0-.4.1-.5.4-.3.5-1.4 1.7-1.6 1.7l-.2.1-.7.6-1.3.8a2 2 0 0 1-.8.4l-.7.3c-.5.3-2.5.3-3.3 0l-1-.2c-.4 0-.7-.1-.7-.2l-1.4-.4c-.1 0-.1 0 0 0 0-.3-.3-.7-.5-.5-.3 0-.3.1.1.5l.4.5c0 .1.1.2.3.2l.4.3c0 .2.2.3.2.3s.3 0 .4.2c.2.1.4.2.5.1l.3.1c0 .1.1.1.4 0 .2 0 .4 0 .4.2 0 0 0 .1.2 0l.7.1c.6.2.8.2.8 0zm39.7-1.3h.5c0 .2 1.3.1 1.4 0 0-.2.2-.2.3 0 0 .1.2.2.3 0 .4-.2 2.6-.2 2.7 0 0 .1.2.2.3 0h.7c.2 0 .5 0 .6-.2.2-.1.3-.1.3.1 0 .3 0 .3.4 0 .2-.2.4-.2.6 0 .4.1 1.3 0 1.5-.4 0-.2.3-.3.4-.2l.2-.1c0-.1.1-.2.3-.2.1 0 .2 0 .1-.2 0 0 0-.2.2-.2s.4-.4.6-.7c.1-.4.3-.7.4-.7 0 0 .2 0 .2-.2v-.3c.4 0 2.1-1.9 2.2-2.3 0-.2.3-.6.5-.8.4-.4.4-.4.4-.1 0 .6.3.3.4-.4 0-.5.1-.6.3-.6.2.1.3 0 .2-.1 0-.1 0-.4.2-.6.3-.3.3-.3.4.4.1.8.3.6.3-.3 0-.6 0-.7.2-.7l.2-.2c0-.1 0-.1.2 0s.3.2.4.1c-.4 0-.3-.6 0-1l.4-.7v-.2c.2 0 .3-.2.4-.4.1-.2.2-.3.2 0l.1.2c.1 0 .2.1.1.2 0 .1 0 .2.2.2.1 0 .2-.1.1-.3-.1-.3 0-1 .3-1 .2 0 .3-.2.4-.4.3-.4.5-.4.5.1 0 .3 0 .4.2.3v-.5c0-.6.4-1.2.8-1 .3 0 .3 0 .2-.4 0-.4.3-.7.5-.4 0 0 .1.1.2 0 .1 0 .1-.1 0-.2 0-.2.2-.8.4-.8.1 0 .3-.2.4-.5l.3-.5c.1 0 .2 0 .2-.2l.4-.8c.3-.3.5-.7.5-1l.1-.7c.4-1-1.7.8-3.2 2.8a55.9 55.9 0 0 1-4.3 5 69.3 69.3 0 0 0-5.2 6 38 38 0 0 1-2 2.3l-1.6 1.7-3.8-.1c-6-.2-5.6-.3-5.6.3v.4c.2 0 .3.2.3.3.1.4.1.4.6.2zm-10.5-.6a4 4 0 0 1 1.2-.1l.2-.1c0-.1.2-.2.3-.1h.4l.4-.2a9 9 0 0 0 1.3-.3l1.4-.2.6-.2.6-.3.6-.2.4-.2c.2 0 .5 0 .5-.2l.2-.2c.2.1.4-.7.3-.8l-2.5.7-1.3.2-1 .2-1.8.2a221.6 221.6 0 0 1-7 .6c-.1.2.1.8.5 1l.4.3c0 .2 3 0 4.3-.1zm-29.7 0l.4-.1c.4 0 .5-.2.9-1.1l.5-1.2c0-.2 0-.2-.4-.2-.6 0-1.2.4-1.2.8l-.2.4c-.3.3-.5 1.1-.4 1.3.1.2.4.3.4 0zm2 0c0-.1 0-.2.2-.3.4-.1 1-2 .8-2.2l-.2-.2-.4.7c-.7 1-1 2.1-.6 2.1l.1-.1zM44 117l.2-.5.1-.3c.1 0 .2-.1.2-.4l.2-.4c.2-.1.3-.2.1-.4-.3-.3-.7-.3-1 0a6 6 0 0 0-.8 2c-.1.4 0 .4.3.3.2 0 .5-.1.7-.3zm-12.4 0l.8-.6 1-.5.7-.4.4-.2.4-.3 2.2-1.3c.6-.3.6-.5 0-.6-.4-.2-1-.7-.8-1l1.4-.8 1.3-.3 3.2-1.2c1.1-.4 1.7-.9 1.2-1l-.2-.4c0-.2-.1-.4-.3-.4-.2 0-.3-.2-.3-.3l-.4-.4-.4-.4-.5-.7-1-1.1c-.1-.4-.4-.6-.6-.6l-.3-.3c0-.2 0-.4-.3-.5l-.3-.5c0-.1 0-.2-.2-.2-.1 0-.3 0-.3-.2l-.2-.1-.2-.2-.6-.9-.5-.7-.2-.2c-.1 0-.3 0-.4-.2a83.2 83.2 0 0 1-5.1-6.2c-.3-.3-.3-.3-.4.5a58.5 58.5 0 0 0 0 6.7 73.8 73.8 0 0 0 0 6.8c-.2.3-.2 3.9 0 3.9.1 0 .1 0 0 0 0 .1-.2 1.2-.2 2.6 0 2.7 0 2.7 1 2.2zm17.6-.3l.6-.4a130.3 130.3 0 0 0 1.5-1.3c.4-.4.3-.4-.8-.2-1.2.2-1.2.2-1.6 1-.3.5-.5 1.6-.2 1.2 0-.1.3-.3.5-.3zm-6.6-.8c.6-1.2.4-1.4-1.2-1.5l-1-.2c-.3-.1-.3 0-.2.2l.3.8c.2.7 1 1.4 1.4 1.4.3 0 .5-.2.7-.7zm47 .2h4l.9-1 .9-1s0-.2.2-.3a46 46 0 0 0 3.9-4.3 22.5 22.5 0 0 0 2.2-2.6 90.5 90.5 0 0 0 3.5-3.9l1.5-1.8a61 61 0 0 0 2.5-3c.6-.6.8-1 .9-2l-.1-1-2.1 2a1507.5 1507.5 0 0 1-16.1 17 28.8 28.8 0 0 1-6.2-.1h-1c0-.3.7-.8.8-.7 0 .1 1 .2 2.7.2h2.9c.3.2 1.2-.5 2.6-2.1L95 110l.6-.6 2.2-2.5a105.6 105.6 0 0 0 6.8-7.1L107 97c2.2-2.3 3-3.3 3.1-4.1.2-1.2-.2-1-1.7.6a15.2 15.2 0 0 0-2 2.3l-.5.7-2.2 2.3a153.4 153.4 0 0 0-7 7.5l-3.8 4.2-1.3 1.4-1.8-.1a129 129 0 0 1-5.2-.1c-.3.2-.6 2.1-.4 2.2.2 0 .1 0 0 0v1.1l.2.3c0 .3.3.7.7.7h4.5zm-19-.6l2.7-.2c3 0 4-.1 4.2-.4.1 0 .2-.1.2 0l.6-.2 1.3-.2c.4 0 .9-.2 1-.3l.5-.1c.2 0 .4 0 .6-.2l.6-.3c.5 0 1-.6 1-1.3l.1-.7-.7.1-1.7.3a100.2 100.2 0 0 1-11.8.9l-.8.1.1.6c.2 1 .5 1.9.7 1.8h.6c.5.2.8.2.9.1zm-22.6-1.6h.6c.3 0 .5-.1.5-.2s.2-.3.5-.4c.2 0 .5-.2.5-.3 0-.2 0-.2-.2-.1-.5.1-.8 0-.5-.4.3-.3 0-.4-.6-.2-.7.2-.8.1-.5-.2 0-.2.3-.3.5-.2.2 0 .3 0 .4-.2 0-.2.2-.4.3-.4l.4-.1c.2-.3-.8-.2-1.4 0-1 .5-1.5.6-1.5.4 0-.3.9-.8 1.5-1 .3 0 .6-.2.6-.3l-.1-.3-2 .7a7 7 0 0 1-1.7.6c-.5 0-.5 0-.4-.3l.6-.4c.3 0 .4-.1.4-.2l-1 .1c-1.4.4-1.5.4-1.3 0 .2-.4.2-.4-1.4.2a33.7 33.7 0 0 1-3.7 1.3c-.2 0-.7.5-.5.5h.5l.8.3 1.2.2 1 .3c0 .1.2.2.3.1l1 .2 1.2.2.6.1c0 .2 3.2.2 3.4 0zm5.6-1.2l.3-.4-.4-.6a2 2 0 0 1-.3-.8l-.4-.2c-.4 0-1.3-1-1-1.2v-.2h-.4-.2c0-.2 0-.3.2-.3s.3 0 .4-.2c0-.1 0-.1 0 0 0 .2.2.2.3.2.2 0 .2.1.2.3l.1.2.4.4.4.7c.3.4.4.4.9.1l.5-.4.3-.1c.5 0 2-.9 1.8-1l-1 .2c-1 .4-1.4.2-.6-.3.3-.3.4-.4.2-.4-.1 0-.3 0-.3.2h-.4c-.5 0-.4-.3.4-.8l.8-.5c0-.2-.3-.1-1.4.5l-1 .4h-.3c-.3.3-.4 0-.2-.3.2-.2.8-.6 1.8-1 .6-.2 1-.8.6-.8l-1.2.5c-.8.5-1.6.7-1.6.4 0-.3.5-.7.8-.7.6 0 1.4-.6 1.4-1 0-.3-.8-.1-1.5.3l-1 .4-.2.1-.4.2-.7.4c-.3.3-.3.3.1.8.2.3.4.6.3.7h.1c.1 0 .2.1.1.2-.2.3-.7.2-.7-.2 0-.2 0-.3-.3-.2-.3 0-.3 0-.3-.2 0-.5-.7-.6-1-.3-.2.4-.2.6 0 .6s.5.3.7.8l1.2 1.6.2.4s0 .2.3.4l.8 1c.6.6.8.7 1.2.1zm-2.7 0c.2-.2.2-.2 0-.2l-.4.1c0 .2.1.2.4 0zm18.7-.6c.2 0 .2-.1.2 0l.7-.1c.4-.1.7 0 .8 0 0 .2.2.3.3.2a51.2 51.2 0 0 0 8-1 16 16 0 0 0 3.7-.5c.3-.2.3-.7 0-1h-1c-.6.2-1.5.3-2 .3l-1.2.1-1.4.2-2.4.2a58.5 58.5 0 0 1-7.9.5c-.2 0 0 .8.2.8l.2.2c0 .3 1.5.3 1.8.1zm-14.3 0c0-.2.3-.3.5-.3.3 0 .5-.2.5-.3 0-.2-1 0-1.1.2-.1.2-.2.1-.3 0-.2-.2-.2-.3.1-.5.3-.2.4-.4.3-.4-.1-.2-1.2.1-1.2.3l-.2.3.3.2c.2 0 .4.2.4.3 0 .3.5.3.7.1zm2-1c.7-.3.3-.4-.4 0-.4.1-.4.2-.2.2s.5 0 .7-.2zm29.5 0c0-.3.7-.2.7 0 0 .1.5.1.7-.1h.5c.2.1.4.1.4 0h1.5c.6.1.6.1 2.2-1.5l2.8-2.9a60.7 60.7 0 0 0 6-6.5c.3 0 1.3-1.2 2.6-2.7a84.3 84.3 0 0 1 4-4.7c1.3-1.2 1.7-1.9 1.5-2.2 0-.2-.1-.2-.5 0L107 93c-1.5 1.8-2.1 2.6-2.4 2.6l-.2.1-1.4 1.7-1.4 1.6s-.1.2-.3.2l-.8 1-.7 1a64.5 64.5 0 0 0-7.6 7.7c-.3.2-.6.4-.7.7 0 .2-.3.4-.4.4l-.2.1c-.1.2-1.2.3-1.9.1a32 32 0 0 0-2.5-.2h-2v.4c0 .5.1.5.8.6l1 .1c.4.2.5.2.6 0zm-30.7-.4c0-.2.8-.5 1.3-.5.2 0 .4-.2.5-.4.1-.3.1-.3-.2-.2-.7.2-1.2.5-1.2.6l-.4.2c-.4 0-.6.4-.2.4h.2zm2.3 0l-.3-.2c-.1 0-.2 0-.1.2l.2.1.2-.1zm10.4-.4c2.3-.1 3-.2 3.2-.4h2.4l1.4-.2 2.2-.3 2.2-.2h.8l.3-.1c0-.2.2-.2.4-.1l.3-.1c0-.2 0-.2.2 0h.3c0-.1.3-.2.4-.1.6.1 1-1 .5-1.7-.2-.4-.2-.4-1.7-.3a54.6 54.6 0 0 0-7.1.9l-2 .1a495 495 0 0 0-6 .2c-.4-.3-1 0-1.1.4 0 .2 0 .3.2.3l.3.5c0 .3.2.6.3.7l.2.4c0 .2.1.2.3.1l2-.1zm-8.4-.8c0-.2-.2-.5-.5-.8-.2-.3-.4-.7-.4-1 0-.2-.1-.3-.4-.2-.2 0-.3 0-.3-.2 0-.3.2-.7.3-.6l.1.3c0 .1 0 .2.3.3.2 0 .4.2.4.4l.2.6c.1.1.2.1 0 0l.1-.3h.2c0 .5 1 1 1.5 1l.5-.5.4-.7c.5-.3.6-.6.2-.5-.3.1-.3-.2 0-.6.3-.3.3-.3-.3-.2l-.8.2h-.2c0-.2 0-.3.2-.3l.3-.3.7-.4c.5-.1.5-.1.2-.2-.2 0-.8.1-1.3.4l-1 .3c-.2-.2.4-.7 1-1l.8-.4.7-.3.2-.2c0-.2-1-.1-1.2.1a4 4 0 0 1-.8.4l-.7.3-.6.2c-.4 0-.4 0 .2-.5l.8-.5.4-.3s.1-.2.2-.1c.1 0 1-.5.8-.7-.1 0-1.1.5-1.2.7H61l-.4.2-.4.2c-.1 0-.3 0-.3.2l-.6.1h-.6l.5-.3c.6-.4.5-.5-.2-.4l-.7.1.3-.4c.1-.2.3-.4.5-.3 0 0 .3 0 .4-.2.3-.3 1.2-.8 1.5-.8.2 0 .4-.1.5-.3v-.3A23 23 0 0 0 57 104c-.1.4 0 .9.1.8l.4.1c0 .2.2.3.4.3s.3 0 .2.2v.5c.1.2.3.3.3.2h.2c.3.4.3.7-.2.8-.3 0-.4 0-.3-.2v-.2l-.3-.4-.2-.4c-.1 0-.4-.2-.6-.5-.7-.7-1.2-1-1.4-.6-.2.2-.2.3.2.8.2.4.4.7.5.6v.3l.1.2c.1 0 .8.6.8.8 0 .1.7.7 1 .7l.2.1.5 1c.5.7.6.8 1 .7.2 0 .4-.3.5-.4zm-15-.8l.6-.4c.2-.1.3-.2.4-.1.2 0 .2-.2 0-.7-.1-.2-.3-.4-.5-.4s-.4-.2-.3-.3l-.6-.3c-.3 0-.5-.2-.5-.2 0-.3-2.3-1-2.5-.8-.1.1.4 1 .7 1 .1 0 .2.1.2.3 0 .3.1.5.2.5s.5.3.8.8c.7.8 1 1 1.6.6zm2.5 0c.1-.3 0-.3-.2 0-.1 0-.2.2 0 .2l.2-.2zm8.4-.1c.3-.2 0-.2-.4 0-.2 0-.2.1 0 .1l.4-.1zm31-.4l.4-.1 1.3-.1a9 9 0 0 0 2-.3l.1-.2c0-.3 0-.3-1.2 0a57.6 57.6 0 0 1-5 .7c0 .3.2.3 1 .2l1.4-.2zm-2.2-.7c.2-.2.7-.2 1.7-.3l1.5-.1.4-.1.5-.1h.3s.2 0 .2-.2h.7l1.2-.2c.1-.2.5-.2.8-.2.3 0 .6 0 .8-.3.4-.3.3-.4-.3-.2l-1.1.2a53 53 0 0 0-5.7.9c-1.3 0-1.4 0-1.4.5 0 .4 0 .4.4.1zm-36.2-.6l-.2-.1v-.3c0-.1 0-.2-.2-.2l-.6-.3-.6-.2-.4-.4c-.3-.4-.6-.4-.7 0-.3.9-.3 1.4-.1 1.4l.1-.3c0-.3 0-.3.2 0 .4.3.9.6 1.2.5h.3v.4c0 .2 1-.3 1-.5zm20.5.3c1.7 0 2.1-.2 2.2-1.3 0-.7-.2-.8-1.2-.3a4 4 0 0 1-.8.3c-.3 0-1.3.6-1.3.8 0 .1 0 .2-.2.2-.1-.2-.5.3-.3.4h.1l1.5-.1zm3.6-.4c.2-.2.3-.6.4-1.4.1-1.2 0-1.4-.7-.6-.2.4-.7 2-.6 2.1.2.3.6.2.9-.1zm2-.2c.3 0 .4-.1.4-.4 0-.2 0-.3-.3-.1-.1.1-.4.2-.7.1-.5-.1-.5 0-.3.4.1.3.2.3.3.2 0-.2.3-.2.5-.2zm17.3 0c0-.1 0-.2-.2-.2s-.3.1-.3.2l.3.2.2-.2zm-42-.3c0-.5.2-1 .3-1.3l.5-1.4.5-1.1.1-.2a21.6 21.6 0 0 1 4.2-7.2c.1-.3-.3-1-.7-1L55 94c0-.6-1.6.5-2.7 2a15.1 15.1 0 0 0-1.9 2.7l-.6 1a22.9 22.9 0 0 0-2 4.1c-.2.7.2 1.6.8 1.6l.2.4c0 .3 0 .3.2.2.1-.1.3 0 .6.2.3.3.8.4.8 0zm26.7-.6l.2-.8.2-.8c0-.1 0-.3.2-.3 0 0 .1 0 0-.1 0-.1 0-.5.2-.9.3-.8.1-1-.3-.7-.2.1-.4.6-.6 1 0 .6-.3 1.4-.4 2-.3 1.2-.2 1.7.2 1.3l.3-.7zm8.1.7c0-.1 0-.1.1 0 0 0 .3 0 .5-.2l.7.1c.2.2.2.2 0 0-.1-.3 0-.3 1-.3.6 0 1.1 0 1.2-.2l.8-.1c.3 0 .7-.2.8-.3 0-.2.1-.2.1 0s0 .2.2 0 .5-.2.4 0c-.2.3 0 .2.5 0a3 3 0 0 1 1.2-.3l.9-.1.4-.2.6-.2c.3-.3.3-.3-.2-.3l-1.4.2a20.6 20.6 0 0 1-3.4.5 242.6 242.6 0 0 1-2.9.5l-1.1.2c-1 .1-1.2.3-.8.7.2.2.4.2.4 0zm-21.4-.2l-.2-.1-.1.2s0 .1.1 0l.2-.1zm4.2-.4c.2-.3.3-.4 0-.7 0-.3 0-.3.2-.3s.5.1.6.3c.3.4 1 .3.7 0 0-.1 0-.2 0 0 .3 0 1-.3 1-.5l.4-.1c.2 0 .3-.1.3-.3 0-.2 0-.2-.2 0h-.3c-.2-.1.2-.6.4-.6.1 0 .4-.1.6-.4l.6-.4.7-.5.9-.5.2-.1c.2-.3-.7 0-1.3.4l-.8.4s-.2 0-.2.2l-.2.1-.7.3c-.3.2-.7.3-1 .3-.3 0-.3 0 0-.1l.2-.4.6-.4c.6-.2 2-1 2.5-1.5.4-.5.1-.7-.5-.3l-1.2.5a6 6 0 0 0-1.6.7c0 .1-.3.3-.5.3-.3 0-.4 0-.2-.2.1-.3.6-.7.6-.6 0 .1.2 0 .5-.3l.7-.4c.3 0 1.5-.8 1.5-1 0-.2-.2-.2-.8.2-.3.3-.9.5-1.2.6-.3.2-.7.3-.8.5l-.4.2c-.2 0-.5 0-.6.2-.2 0-.4.1-.4 0-.2-.1.2-.5.8-.9 1-.5.7-.6-.6-.1-.6.2-1.1.3-1.2.2-.1-.1.5-.7.8-.7l.3-.2c0-.1 0-.1 0 0l.6-.3.6-.3.2-.2s.1-.2.3-.2c.1 0 .3 0 .5-.2s.4-.7.2-.5a38.9 38.9 0 0 1-1.5.8H69c0 .2-.1.3-.3.3l-.3.1-.3.2c-.2 0-.4 0-.4.2-.2.2-.9.2-.9 0l.5-.5a11 11 0 0 0 2.3-1.3l.6-.7v-.3h-.3c-.2-.2-1.3.3-1.6.7l-.2.2-1 .4-2.5 1.6-.2.4c0 .2 0 .4-.2.5.2.1.5.2.6.4l.5.4.2.1c-.1.1.3.6.8 1.1.6.7.9 1 .8 1.2 0 .2-.1.2-.5 0-.2 0-.3-.2 0-.2l.2-.1c0-.1 0-.2-.2-.2l-.5-.3c-.1-.2-.3-.3-.4-.2-.1 0-.2 0-.1-.1 0-.1 0-.3-.2-.4a1 1 0 0 1-.4-.5l-.3-.3c-.1 0-.4-.2-.6-.5-.5-.6-1.2-.7-1.5 0-.2.3-.2.4 0 .7.3.2.4.4.4.5l.4.2c.2 0 .5.4.8.8.2.4.5.7.6.7h.1l.3.5c.2.3.2.3.3 0 .2-.1.2-.1.2 0 0 .2.2.6.5.9l.6.8c0 .3.8 0 1.2-.3zm-.6-1.6l.1-.3c.3.1.3.7.1.7l-.2-.4zm13 1.8l1.6-.3.4-.1c0-.1 0-.1.2 0l.3-.3c.2-.2.3-.8.2-3v-2.9c0-.3-.3-.2-1 .3l-1 .5-.3.4s0 .1-.2 0c-.3 0-1 .3-1.4.7-.3.4-1.2 3.7-1.2 4.4 0 .5 0 .6.5.6l1.9-.3zm-16 0c0-.2 0-.2-.1-.1-.2 0-.2.2 0 .2l.1-.2zm-18.6-.5c.5-.4.5-.9 0-.9l-.3-.1-.2-.1c-.1 0-.4 0-.6-.2l-.8-.4c-.2 0-.4 0-.4-.2l-.6-.2-.7-.2a.9.9 0 0 0-.5-.2l-1.1-.3a3 3 0 0 0-1.2-.3c-.4 0-.4 0-.1.3a45.2 45.2 0 0 1 2 1.7l.7.2c.5.1.8.1.8 0 .1-.3.5-.2.6.2 0 .2.2.3.6.3.3 0 .4 0 .4.2-.1 0 0 .1 0 .1.1 0 .2 0 .2-.2l.2.3c.3.5.4.5 1 0zm6.2.2c.3 0 .7-.2.8-.3l1.2-.6c1.2-.5 1.5-1 1.8-2.2a10.9 10.9 0 0 1 1-3c.2 0 .2-.1.2-.3l.8-1.8c.6-1.2.8-1.6.6-1.8l-.3-.2-.6-.1c-.4-.1-.6 0-1.4.9l-1 1-.5 1-.6 1a23 23 0 0 0-2.7 6.3c0 .4 0 .4.7.1zm22.7-.4c.4-.4.7-.3.8.1.1.5.4-.3.5-1.3v-1c-.2.1-.3.4-.3.6 0 .3-.2.6-.4.8-.4.4-.4.4-.5 0 0-.2-.2-.1-.3.3-.4 1-.4 1 .2.5zm-10.3-.5c-.2-.1-.6.1-.6.3h.3l.3-.3zm21 .2c0-.3.1-.3.4 0 .2.3.2.3.2.1 0-.2.2-.3.6-.3.8 0 1.4-.1 2.3-.3l2.4-.4.4-.1c0-.1.2-.2.5-.2.7 0 2.3-.1 2.9-.3.6 0 1-.6.8-.7h-.4c0 .1-.2.2-.3.1l-2.3.4-.6.1a62.2 62.2 0 0 0-8 1.7c.2.3 1 .2 1 0zm-38-1.7a12 12 0 0 0 1-2.4l.1-.2a21.6 21.6 0 0 1 2.5-4.2l.2-.5a47.7 47.7 0 0 0 2-2.4c.6-.5.7-1 .3-1l-.2-.3c0-.2-.3-.4-.6-.5-.5-.3-.6-.3-.8 0l-.5.3c-.2 0-.4.2-.4.3l-.1.1c-.2 0-.6.4-2.6 2.3-1.1 1-2 2.2-2.2 2.8 0 .2-.2.3-.3.3l-.3.4-.7 1.1c-1.2 2-1.7 3.6-1 3.6l.6.3c.1.2.4.3.5.3l.5.1.5.2c.2 0 .3 0 .4.2.2.5.6.2 1-.8zm24.6.7c.2 0 .3-.1.3-.2l.3-.2c.2 0 .3-.2.3-.3 0-.2-.4 0-.8.3-.1.1-.3.2-.3 0 0 0-.2 0-.3.2-.2.4-.2.5 0 .4l.5-.2zm13.5-.3h.2c0 .2.1.3.2.1h.6l.5-.1c0-.2 0-.2.2-.1l.9-.1c.7-.3 2.1-.5 2.9-.6l.6-.1h.3c.2 0 .8 0 1.3-.2s1-.2 1.3-.2h.3c0-.2 0-.2.2-.1.3.3 2-.2 2.7-.8.4-.3.3-.5-.2-.5-.6 0-.4-.2.3-.3.8-.2 1.7-1 1-1l-1 .2-2 .2a18.5 18.5 0 0 0-3.3.5 83.4 83.4 0 0 1-8 1.4c-.2.3-.3.7 0 .7v-.2c0-.2.1-.2.3 0 .2.2.8.2 1 0l.4-.1 2-.3c.2-.1.5-.2 1.6-.2.3 0 .5-.1.5-.3 0-.2 0-.2.2-.1.2.2 1 .2 1.3 0h.3l.2-.1c0-.1 0-.2.2-.1.3.2 1 .2 1 0h.7l1-.1a6 6 0 0 1 1-.2c.5 0 .5 0 .3.1-.2.2-.6.3-.9.3l-1 .3-1.5.2c-.5 0-1.4.2-1.9.4a7 7 0 0 1-1.3.2c-.2 0-.4 0-.4.2l.2.1s.1 0 0 .1h-.3c-.3-.2-.8-.2-2.5 0-2.3.3-2.8.5-2.5 1 .2.2 1.1.1 1.1-.2zm-28.1-.7l.6-.3.9-.5.9-.5c.3 0 .9-1 .8-1.5 0-.3.2-1.8.4-2l.2-.7.2-1c0-.3 0-.4-.5-.5H60c-.4.2-1 .9-1.1 1.3v.4l-.4.5c-.5.3-1.4 2-1.8 3.5-.6 1.8-.4 2 .7 1.3zm16.2 0h-.3l.2.1h.1zm.5-.2l-.1-.1-.1.1c0 .1 0 .2.2.2v-.2zm-11.9-.3s0-.2-.2-.2l-.2.1c0 .2 0 .3.2.3l.2-.2zm-19-1.5l.4-1c0-.2.2-.3.3-.4l.5-.8a20.3 20.3 0 0 1 4.4-5.5l2-1.6c1.2-.9 1.3-1 1.6-2a93.6 93.6 0 0 1 2.4-6l.5-.9c.3-.6.3-.9.2-1.5-.3-1.5-.4-1.8-.4-3.1l-.2-1.7v-.4c.2 0 .2-.2.2-.3a29.5 29.5 0 0 1 .8-7l-1-.2c-2.8-.3-2.7-.3-5.3-1l-2.5-.4c-.3 0-1.2.3-1.7.7l-1.2.5-.9.6-.4.2a8 8 0 0 0-1.5.8 24.8 24.8 0 0 1-3.9 2l-1 .5-.4.2-1 .5-.3.2-1 .6a5 5 0 0 0-1.1.7c0 .1-.2.1-.2 0l-.2.1s-.2.3-.5.4c-.9.4-.9.5-1 3a27.1 27.1 0 0 0 .2 5.3c-.2.3-.2 8 0 8.8 0 .4.2.7.3.8l.5.6.5.8.3.5.2.1c.2 0 .3.2.4.5l.2.4c.1 0 .2 0 .2.2s.5.7.7.6v.1c0 .2 0 .4.4.5.4.2.7.8.6 1.2 0 .1 0 .2.5.2l.5.5.6.7c.2 0 .3.1.3.2 0 .4.8 1 1.5 1.2l1 .2c.4.2.3.2 1.2.3.5 0 .9.2.9.3 0 .3.9-.4 1.3-1.2zm33 .7l.2-.1s.2 0 .3-.2c.2-.2.2-.3 0-.3a.3.3 0 0 1-.1-.3l-.5-.5c-.3-.1-.5-.4-.6-.6 0-.1-.1-.3-.3-.2-.2 0-1.2-1-1.2-1.4l-.2-.1s-.4-.2-.6-.6l-.8-.9c-.2 0-.3-.2-.3-.4l-.5-.3c-.7 0-.8.2-.3.9l.4.7.8 1 1 1.1c0 .1 0 .2.1.1l.3.1c0 .2 1.8 2.1 2 2.1l.3-.1zm8.7-.5c0-.2 0-.2.2 0 0 .2.1.2.1 0 0-.1.2-.2.4-.1h.4c0-.2.1-.2.3-.2 0 0 .2 0 .1.1 0 .1 0 .2.2.2l.4-.2c0-.2.1-.3.4-.3h.3l-.1.2h-.1.3l.5-.1 2-.4c0-.1 0-.2.2-.2h1c.4-.2 1-.2 1.5-.2.6 0 .8 0 .6-.1-.2-.2-.2-.2 0-.1l.6-.1c0-.1.2 0 .2 0 0 .2.1.2.4.1l.6-.1c.1 0 .2 0 .2-.2h.3l.4-.1c0-.2.2-.2.2 0l2-.2c.4-.1.9-.2 1-.1.3 0 .7-.2 1-.4l.4-.5-.9.1a44.6 44.6 0 0 0-3.6.5 41.4 41.4 0 0 0-4.6.7 45 45 0 0 0-6.1 1c-1.6 0-2.2.6-1 .8l.2-.1zm-5.3-1.3l.6-.3.6-.4.4-.3.3-.3c-.1-.2-1 .3-1 .5 0 0 0 .1-.2 0l-.5.2-.6.3c-.1 0-.3 0-.4.2l-.6.2h-.5l.5-.3c.2-.3.5-.5.7-.5l.3-.3.7-.4c.5-.2.8-.4.8-.6l-.1-.3-2.2 1.1-.8.4c-.1 0-.3 0-.3.2 0 0-.1.1-.2 0-.2-.2.1-.7 1-1.1l1.6-1.2c0-.2-.9.2-2 .8-.6.3-.7.3-.7 0l1-1c.4-.2.4-.2-.1-.1l-.9.3c-1.4.8-2 1-1.3.3.4-.5.8-.7 1.7-1.1.8-.4 1.2-.8.9-1-.1 0-.6.1-1 .4L75 97c-.5.1-.4-.3.2-.7a299.8 299.8 0 0 1 1.8-1.3c-.1-.1-1.2.4-1.5.7-.2.2-1.6.6-1.7.4-.2 0 .7-.9 1-.9l.6-.4 1-.5c.3-.2.5-.5.1-.5l-.7.3c-1 .7-2.3 1.3-2.4 1.2-.2-.1.1-.7.5-.8a7 7 0 0 0 1-.7l.9-.5.1-.2V93c-.3 0-1.9.8-1.9 1l-.4.2c-.2 0-.3.2-.3.2 0 .1-.1.2-.3.2-.3 0-.7.7-.5 1 0 0 .1.1 0 .1l.2.4.4.2.2.1c0 .2.1.4.3.5.3.2.4.4.4.6l.4.3c.3 0 .4.1.4.2 0 0 .1.4.4.7l.4.8.3.4c.3.2.3.2.3 0l.2-.2h.1c0 .5.1.8.4.8l.6.3c.2.3.2.3 1.1-.2l1-.6zm-17 .2l.9-.6.2-.1c.4 0 .9-.8 1.1-1.9l.3-1.5c.1-.3.1-.4-1-.3-.5 0-1.2.2-1.3.3-.3.1-1 1.1-1 1.5l-.5 1.8c-.2.8-.2 1.5.1 1.4l1.1-.6zm7.8-.4l1.1-.6H71l-.6.3c0 .1 0 .2-.2.2-.1 0-.2 0-.2.2v.1l.4-.2zm14.4.2c0-.2 0-.2.2 0 .1.1.2.1.4 0 .2-.4.8-.5.8-.3h.1a3 3 0 0 1 1 0c.5 0 1-.2 1-.3.2-.1.3-.1.4 0 0 .2 0 .2.3 0 .2-.2.6-.3.8-.3l.8-.2.8-.1 1-.2c.2-.1.6 0 .7.2h.3c0-.2.3-.2.5-.2 1 0 2-.2 2.1-.3h.4c.1.2.2.2 0 0 0-.3 0-.3 1.2-.2H99l1-.2c.8 0 1.2 0 1.5-.3.6-.4.5-.7-.3-.6a88.4 88.4 0 0 0-9.3 1.3 50.3 50.3 0 0 0-7.5 1.6c.2.3.5.3.5 0zm0-1.2c.1-.2.3-.2.4-.2h.3c0-.2.1-.3.2-.3s.1.1 0 .2c0 .1.1.1.4 0l.6-.1.3-.1c0-.1.3-.2 1-.1.6 0 1.2 0 1.6-.2l.9-.2 2.1-.4 1.4-.1c.6 0 1.3-.2 1.6-.3l1.4-.1c.7 0 1-.1 1.2-.3.2-.1.3-.2.4-.1.1.2 1.4.2 1.3 0l.1-.1c.1 0 .2 0 .2.2h.3l.7-.2.6-.2c.1-.2.1-.2 0 0-.1.3.2.4.4.1l.5-.2c.2 0 .3-.1.3-.2 0-.2-.3-.4-.5-.2l-1.2.2a5 5 0 0 0-1.3.1c-.1.1-.5.2-.8.1l-.8.1h-.9c-.4 0-.8 0-.9.2 0 0-.1.1-.2 0l-3.3.6-.7.1a22.3 22.3 0 0 0-3.7.5l-1.3.3-1.9.1c-1.2 0-1.2 0-1.2.4 0 .6.4.8.5.4zm12.2-.5l-.1-.1c-.1 0-.2 0-.1.1l.2.2v-.2zm-30.4-.4c.3-.2.8-.5 1-.8l.5-.4.5-.3c.2-.4.2-.5 0-.9-.3-.4-.2-.4-1.8-.1-.7.1-1 .7-1 2-.1.9 0 1 .8.5zm16.4-.3c0-.2-.9-1.2-1-1.2-.2 0-.2 0-.2-.2l-.3-.4c-.3-.3-.2-.6.1-.6.1 0 .2 0 .2.3 0 .2 0 .2.3.2.2-.1.3 0 .3.1l.2.3c.2 0 .3 0 .4.2l.2.2.1.2c0 .4.3.6.7.3l.6-.2c.2 0 .4-.2.5-.3l1.5-1.2c.4 0 .8-.3.9-.6.1-.4-.2-.4-.8.2l-.7.5-.4.2-.8.4h-.6l.6-.5a6 6 0 0 1 1.2-.9c.4-.2.6-.4.6-.6 0-.3 0-.3-.2 0 0 0-.2.2-.3.1l-.2.1-.3.3-1 .5c-.8.4-1 .4-.7-.2.3-.3 1.7-1.4 2-1.4l.2-.3v-.3l-1.2.6c-1.2.7-1.4.8-1.4.6 0-.2.5-.7 1.4-1.3l.6-.6c-.1-.1-1 .2-1 .3l-.6.4-1.2.5c-.7.4-1 .3-.5-.1.4-.5 1.1-.9 1.3-.9.3 0 1.4-1 1.3-1.1 0-.2-1.2.4-1.5.6-.2.2-1.6.8-1.8.8-.4 0 .5-.8 1.5-1.3.8-.5 1.1-.8.7-.8-.4 0-1.8.7-2 .9h-.3l-.3.2c-.2.3-.4.2-.3 0 0-.4.7-1 .8-1l1-.5c.5-.3.7-.5.6-.6 0-.1-.4 0-.8.3a13 13 0 0 1-2 1.1c-.7.4-.8 0-.3-.5.7-.6.7-.6 1.6-1 .9-.5 1.2-.9.7-.9-.3 0-2 1.2-2.6 1.6l-.8.6c-.8.5-1 .8-.7 1v.3.3c.2 0 .3 0 .3.2l-.3.1-.3-.1-.4-.4c-.3-.2-.4-.2-.6 0-.3.2-.2.9 0 .9.3 0 .9.6 2 1.8.3.3.6.6.8.6.1 0 .2.1.1.3 0 .2.1.3.5.2l.1.2.1.3.8.6c.3.4.7.7.8.6 0 0 .2.1.2.3.1.3.2.3.4.1l.2-.4zm-3.7-3.9c-.4-.4-.5-.7-.2-.7h.1c0 .2.2.3.4.4.4.2.6.7.2.7l-.5-.4zm7.5 3.6l.4-.2h.3c.1-.2.3-.2.3 0 .1 0 1.1 0 1.7-.3.2-.1.5-.2 1.2-.2.4 0 .5-.1.5-.3 0-.2 0-.2-.3-.2l-2 .3c-2 .2-2.7.4-2.9.8-.1.3-.1.3.1.3s.5 0 .7-.2zm-4-.8h-.3c-.2.1-.2.2 0 .2.1 0 .2 0 .2-.2zm10-.2c.2 0 .3 0 .2-.1l-.2-.2H92c-.5 0-.5.1-.2.3.1.1.3.2.4.1l.6-.1zm1.2-.3c0-.3-.5-.3-.7 0 0 .1.1.2.4.2.2 0 .3 0 .3-.2zm.7-.1c-.1-.2-.2-.2-.4 0-.1.1 0 .2.2.2.3 0 .4 0 .2-.2zm1-.1h-.2.2zm2-.1c.2 0 .4-.1.4 0l.2-.1c0-.2-.2-.2-.5-.1a5 5 0 0 1-.8 0l-.3.2c0 .2.8.1 1 0zm-27.5-.2c.4-.3.5-.6.1-.6s-1 .5-.9.7c.1.2.4.2.8-.1zm20.4-.1s-.1-.2-.3-.2c-.2 0-.2 0 0 .2.3.2.3.2.3 0zm8.6 0s0-.2-.2-.2l-.3.2.1.2.4-.2zm1-.1h1c.4 0 .7-.1.7-.2l.7-.1c.5 0 .7 0 .6-.1 0-.3-2.4-.2-2.6 0-.2.1-.3.2-.4.1-.2-.1-.6 0-.6.3 0 .2 0 .2.2.2l.4-.2zM60.4 95c.3-.3.3-3 0-3.2l.1-.8c.2-.5.4-1.4.6-2.9a23.9 23.9 0 0 1 1-5l.1-.5h-1c-1 .1-1.1.2-1.4.5l-.2.5-.5 1.2-.6 1.7c0 .4-.2 1-.3 1.1l-.4 1.8-.3 1.7c-.3 1.1-.3 3-.1 3.2a7.1 7.1 0 0 0 2.8 1l.2-.3zm2.6 0h.9c.2.2.6-.4.5-1l.1-.9v-.4a15 15 0 0 1 0-3.3 69 69 0 0 0 .5-6.6v-.5H64c-.5 0-1 .2-1 .4l-.6 1.8-.4 2.1a35.5 35.5 0 0 0-.8 8.2c0 .5 0 .5.4.5l1.3-.2zm31.8-.1l1.5-.2.8-.1h.4a1128.2 1128.2 0 0 1 4.6-.5 4 4 0 0 1 1-.3c1.3-.2 1.9-.3 2-.5a23.6 23.6 0 0 1-2 .1l-2 .3-1.6.1c-.5 0-1 .2-1 .3-.3.2-.4.2-.4 0l-2.3.2-.8.2-.6.1c-1.4 0-2.9.3-2.7.4H93l2-.1zm-28.5-.5h.4c.6.1 1.7-.2 1.9-.5.2-.4.2-.5.3-4.6l.2-5.4c0-1.7 0-1.8-.3-1.9h-2c-1 .1-1 .3-1.2 1.6-.3 3-.4 10.5-.1 10.8.2.2.8.3.8 0zm26.6-.2c0-.1 0-.2-.2-.1-.3.1-.3.2 0 .2l.2-.1zm-4-.6c.1-.4 0-.5-.1-.7-.2 0-.3-.2-.3-.3l-.3-.4c-.2 0-.3-.3-.2-.4 0-.2 0-.3-.2-.3-.1 0-.2 0-.2-.2l-.4-.7c-.2-.2-.3-.5-.3-.7 0-.2.1-.3.2-.3s.8.8.9 1.1c.1.6 1.5 1.6 1.7 1.4v-1c0-.7 0-.9.3-1.2.3-.3.3-.3 0-.3-.2 0-.4 0-.5.2-.2.2-.2 0 0-.5l.3-.4.2-.1c0-.1-.2-.1-.4 0-.1.1-.3.2-.4.1-.1-.2.1-.6.5-.7l.2-.2h-.6c-.2.2-.5.3-.6.2 0 0 0-.2.2-.3l.6-.5.4-.3.6-.4 1.2-.6a5 5 0 0 0 1.9-1c0-.2.8-.7 1.3-1l1.2-.4c1-.2 1.7-.6 1.7-.8l.2-.2c.2 0 1.2-1 1.2-1.1 0-.2-.6 0-.8.2l-1.3.4-1 .3-.5-.4c-.2-.3-.4-.6-.3-.7 0 0-.1-.2-.3-.2a11.9 11.9 0 0 0-4.9 2l-.9.5c-.1.2-.3.3-.5.3l-.3.3-.2.2-1.6 1c-1.6 1-1.8 1.2-1.3 1.7l.2.4s.1.2.3.2c.1.1.2.2.1.4 0 .2 0 .3.2.2.2 0 .2 0 .2.2s.1.3.2.2c.2 0 .4.4.2.7 0 .2-.1.3-.2.1 0 0-.1-.2-.3-.2 0 0-.2-.1-.2-.3 0-.2-.1-.4-.3-.5-.3 0-.6-.4-1.2-1-.4-.4-.8-.4-1 0-.2.3-.2.3 1.5 2.1l.6.9.4.4 2.2 2.6c.3.5.6.5.7 0zm2.7 0c.3-.2.2-.4-.3-.4-.2 0-.3 0-.4.3 0 .4.3.4.7.1zm5.5 0a5 5 0 0 0 1.4-.3h.6l.5-.1c.2-.2.3-.2.3 0 0 .1.1.1.4 0h1c.3 0 .9-.1 1.3-.3l1.6-.1c.7 0 1 0 1.2-.2.1-.1.2-.2.3-.1.2 0 .6-.3.6-.6 0-.1-3.2.2-5.5.6a375.7 375.7 0 0 1-5.7 1s.2 0 .3.2c0 0 .2.1.4 0l1.3-.1zm-40.9-.4l.2-.4.1-.9c0-.4.2-1.4.5-2.2a15.8 15.8 0 0 0 .5-2.2l.5-1.4.6-2c.5-1 .4-1.2-.9-1.1-1.3 0-1.5.2-2.2 1.2a18.8 18.8 0 0 0-2.3 6.1c0 .8.3 1.3 1.5 2.3 1.1 1 1.5 1.1 1.5.6zm38.8-.8c.7-.3 1-.5 1-.8 0-.2-.1-.2-.2-.1-.1.2-1.2.5-1.7.5l-.8.3c-.5.2-.5.3-.2.5s.7.2 2-.4zm-3.5.1c0-.3.6-.6 1-.6l.7-.3c.2 0 .5-.2.6-.1l.2-.1.4-.2c.7 0 1.8-.5 2.2-1 .5-.4.8-1.4.4-1.4l-.4.1-2.1.8c-2.2.7-2.7.9-2.7 1.1 0 .2.2.3.4.3.7 0 .4.3-.3.5-.4 0-.7.2-.7.3l-.2.1c-.3 0-.4.5-.2.7.3.3.6.1.7-.2zm-16.2-.2l1-.8.5-.3c.3 0 .6-.7.5-1.2-.1-.5-.4-.6-1.9-.5-.9 0-1.1 0-1.1.2v.4c-.2.2-.2 2-.2 2.3.2.4.3.4 1.2-.1zm23.1-.1c1 0 1.3 0 1.3-.2s-.2-.2-1.1-.2c-1.3.1-1.9.3-1.9.6 0 .1 0 .1.2 0 .1-.1.7-.2 1.5-.2zm2.3-.4c0-.1-.2-.2-.4-.1-.5 0-.5.3 0 .3.2 0 .4 0 .4-.2zm3.7-.3a18.3 18.3 0 0 0 2.8-.7c.1-.2-2.8.1-3.4.4l-.9.2-.3.1c0 .1.2.2.5.1l1.3-.1zm-4-.5l1.1-.1c.3-.2 1-.3 1.2-.1h.2c0-.2.3-.2.7-.2l1-.2s.4-.2 1-.2c.4 0 1 0 1-.2.2-.1.2-.1.2 0 0 .3.8.2 1 0 0-.2.1-.3.3-.3l.4-.1c.1-.3-.5-.4-1-.2-.2.1-.8.3-1.3.3-1.7.1-2.4.2-3.2.4l-4.3.4c-1.2 0-1.5.2-1.2.6.2.2.4.2 1 0l1.9-.1zm3.4-.7l.2-.1c0-.1.1 0 .1 0l-.1.2h-.2zm-4.6-.3h.2l.7-.1.4-.1 1-.2c.7 0 1.2-.1 1.2-.2s0-.1.1 0c.2.2 3 0 3-.3h.5c.2.1.4 0 .5-.1.1-.1.3-.2.6-.1.2 0 .4 0 .4-.2.1-.2.2-.2.4 0h.4v-.3a98 98 0 0 1-2.1 0l-.4.1a105.4 105.4 0 0 0-8.2 1.2c0 .3-.2.5-.1.6 0 0 .4 0 .7-.2h.7zm-20.4-.2l.4-.2c.5 0 1-1 1-1.7-.2-.5-.3-3.7-.4-5.6 0-.8-.1-.9-.8-.7h-.6l-.1 1.4c-.2 1.7-.2 6.8 0 7 .1.1.3 0 .5-.2zm13.8-.1c.3-.4.2-.5-.3-.3l-.3.3c0 .3.4.3.6 0zM71 89.2c.2-.2.3-.2.7 0 .3.2.5.2 1 0 .8-.4 1-.8.9-2v-1.4c0-.3-.2-.3-1.8-.2-1 0-1.7.1-1.8.2-.2.2-.3 2.6-.2 3 0 .3.2.5.4.5h.5l.3-.1zm24.2-.3l1-.4.4-.3c.3-.2 1-1.2 1-1.4 0-.2-.4-.2-.7 0a27.5 27.5 0 0 1-4 1.5l-.4.3c-.2 0-.4.2-.3.3 0 .2.1.2.3 0h.3l.3-.1c.3-.2.3-.2.5 0 .1.2.3.3.7.4l1-.3zm3.4-.1c.1-.1.2-.2.4-.1l.3-.1c0-.1.1-.1.2 0 .2.2.8 0 .7-.2v-.1c.2 0 .2 0 .2.2 0 .3.1.3.5.1.4-.2 1.6-.5 1.6-.3h1.2c.1 0 .2-.1.2-.3 0-.1 0-.2.2-.1v.2c0 .2 0 .2.2.1l.6-.2c.2 0 .2-.1 0-.3-.2-.3-.5-.3-1.7-.2l-3.2.2c-1.7 0-2 .1-1.9.8.2.4.4.6.5.3zm10.9-.3h-.2.2zM91.9 88c.2-.3 0-.4-.3-.1-.3.3-.3.3 0 .3l.3-.2zm-10-.2c.1-.2.3-.3.5-.3a16.5 16.5 0 0 0 4.5-3.3c.2-.3.5-.4.5-.4.2 0 0-1.7-.1-2-.1 0-.1-.2 0-.2l-.8-.1a97.8 97.8 0 0 1-5.5-.1h-.4l.1 2.7.1 3.3c0 .5 0 .6.4.6l.7-.2zm11-.2l.1-.1c0-.2.3-.3.5-.3s.4 0 .5-.2l.8-.2c.3 0 1-.3 1.3-.5l.7-.4c.2 0 .9-.7.9-.8l.4-.7c.9-.8.6-1-.6-.4-.6.4-1.3.6-1.7.6-.6 0-.7 0-1.5.7-1 .8-1.4 1.2-1.2 1.2.3 0 .2.5-.2.5-.2 0-.5.1-.6.3-.4.3-.2.6.2.4h.3zm16.8 0v-.1c0-.2.2-.3.3-.4h-.1c-.3 0-.9.3-.9.5h.3c.2-.2.3-.2.4 0zm-2.7-.5c0-.1 0-.2.2-.2l.2.1c0 .1.2.1.4 0l.3-.4c0-.1 0-.2.2-.2l.4-.6.3-.8c.1-.2.1-.5 0-.8a2 2 0 0 1-.2-.8l-.1-.3c-.1 0-.1 0 0-.2 0-.2-1.1-1.4-2-1.9-.2-.2-.7-.4-.9-.4-.2 0-.5 0-.7-.2l-1.1-.2a9 9 0 0 1-1.6-.2c-1.2-.3-1.7-.2-1.8.3-.2.7 0 .8 1 .7l1.1.1c0 .1.2.2.4.1.3 0 .6 0 .8.2l1 .2.8.4.7.3c.3 0 1.5 1.1 1.5 1.4v.4c.2.3-.1 1-.6 1.5-.2.3-.5.3-.9.2-.5 0-.5-.1-.3-.5l.6-.3c.3 0 .4-.1.4-.5 0-.3 0-.4-.2-.4-.1 0-.2-.1-.2-.3 0-.2-.1-.3-.5-.3s-.6 0-1 .4c-.5.5-.5.7-.3 2.8l.3.1.3.1c.2.4 1.5.6 1.5.2zm-6.3-.2l.4-.2h.6c.3.1.4.1.4 0 0-.2 0-.2.1 0 .1.1 1 .2 1 0 0-.4-.3-.5-2.3-.4-1.6 0-2 .1-2.1.3 0 .3.2.5.6.2.3-.1.4-.1.5.1.1.2.2.2.3.2 0-.1.2-.2.5-.2zm3.3-.3c0-.2-.6-.6-.7-.4 0 0 0 .2.2.3.3.2.5.2.5 0zm-3.8-1l.7-.1c.5 0 .8 0 .9-.2l.1.1c0 .2 0 .3.2.3l.1-.2c0-.2.1-.3.2-.3 0 0 .2 0 .2.2h.4c.7 0 .6-.3 0-.4h-4l-.2.4c0 .3 0 .3.5.3h.6l.1.2.2-.2zM76 85c.2 0 .5 0 .6-.2.1-.2.1-.2.3 0 .2.4.6-.2.6-1.2v-2h-3l-.1.5c-.3.7-.2 2.1 0 2.4 0 0 .1.2 0 .2l.4.2c.2.1.5.2.6.1h.6zm34.1 0c0-.1 0-.1-.1 0-.3 0-.3.2 0 .2l.1-.2zm-9.3-.6c0-.2 1.5-.1 1.8 0h.3c.2-.2.3-.2.4-.1.2 0 .2 0 .2-.2 0-.3-.3-.3-1.8-.3-1.1 0-1.7 0-2 .2-.2.2-.2.2 0 .3.3.2 1.1.3 1.1 0zm9.4-4.1l-.1-4.2L109 75l-1.2-1.1-.9-.7a9.3 9.3 0 0 0-2.5-2c-.2 0-.3 0-.3-.3v-.2l-.7-.4a3 3 0 0 0-.7-.6c-.2 0-.3-.2-.3-.3 0-.2-1.1-1-1.4-1l-.2-.2-.4-.3-.8-.7c-.5-.4-2.5-1.7-2.7-1.7-.1 0-.2 0-.2-.2l-.6-.4c-.4-.1-.6-.3-.6-.4l-.2-.1-1-.5-.8-.5-.8.3a16 16 0 0 1-3 1.2l-1.8.7-1.8.7a63.5 63.5 0 0 0-4.7 1.4c-.6.2-1.3.3-1.4.2l-.3.1c0 .1 0 .1-.1 0-.2 0-.8.3-.8.5 0 0 .1.2.4.3.2 0 .4.3.4.5l.1.3c.2 0 .8.6.8.8l.5.7 1.4 1.9a21.1 21.1 0 0 0 2.7 3.3l.8 1 .3.5.4.6.4.7.2.6.2.6c0 .2.1.3.2.3.2 0 .5.7.7 1.7.3 1 .4.9 3.7-.9.8-.4 1.8-.8 2.1-.8l1.7-.4a16.1 16.1 0 0 1 8-.8l1.3.2.8.2.4.2.3.1.7.5c1.4.6 2.7 2.4 2.7 3.6v.3c.1 0 .2-1.9.2-4.2zm-6.1 3.9v-.4c-.2 0-.3 0-.3.2-.1.4 0 .5.3.2zm-1.6-1.2V83c0-.1-.4-.2-1-.2-.9 0-1.1.3-.2.3l.6.1h.6zm.8 0h.7c.9 0 1 0 .2-.3-.6-.2-1.3 0-1 .3v.2c.1 0 .1 0 0-.2zm-42-1.3l1.2-.1A94.8 94.8 0 0 0 72 81a160.9 160.9 0 0 0 5.2-.3 12 12 0 0 0 2.6-.2c0 .1 1.2.2 2.6.2a17 17 0 0 0 3-.2c.4.1.9-.3.8-.6a111.2 111.2 0 0 0-22.6.6l-4.7.4c-2.1.2-2.7.4-2.3.9.2.2.5.2 2 .2 1 0 2.1-.2 2.6-.3zm35.7 0h.3l.2-.1c0-.1 0-.2.2-.2s1.7-1 1.7-1.2c0-.4-3 .4-3.3.9v.3l.1.2c0 .3.6.3.8 0zM59 80.2l.1-.1c.1 0 .2 0 .2.2h.3c.2-.2.4-.2.4-.1l.3-.1 1.4-.2 2.2-.1 2-.2 1.2-.2c0-.2.1-.2.2 0 0 .2 2.4 0 2.7-.2h.2c0 .2 0 .2.2.1s.7-.2.8 0h.3c.2-.2.3-.2.3-.1l.6.1c.3 0 .6-.1.5-.2h3.6s.2 0 .2-.2c.1-.3.1-.3.3 0l.2.1s.6-.2 1.3-.2a159.8 159.8 0 0 0 3.5 0c.3 0 .4 0 .4.2H83.4l.6-.2.1-.2v.3c0 .2 0 .2.5 0 .3 0 .4-.2.4-.5 0-.5-.5-1.1-.9-1l-.4.1c-.2 0-.3-.1-.3-.6l-.1-.8c-.2-.3-6.9-.2-10.5.1l-4.5.2a308.2 308.2 0 0 0-12 .6c-.4 0-.4 0-.4 1a10.5 10.5 0 0 0 0 1.3c0 .1 0 .4.2.7.1.3.2.4 1.6.4.9 0 1.5 0 1.4-.2zm-2-1.2s0-.2.2-.3c.3-.2.4-.2.4 0 0 .3-.1.4-.4.4L57 79zm2.8 0c0-.2.2-.7.5-.7.2 0 .1.4-.1.6-.2.2-.3.2-.4 0zm2.2-.4c0-.2.4-.5.5-.4.2.1 0 .6-.3.6-.1 0-.2 0-.2-.2zm2.7-.3c0-.2.2-.3.3-.3v.3l-.4.3v-.3zm2.5-.2l.3-.3.1.3c0 .2 0 .4-.3.4s-.3 0 0-.4zm2.3.1l.1-.3c.4-.1.5 0 .2.3-.2.3-.2.3-.3 0zm2.2-.2c0-.2.6-.4.8-.3v.3c-.2.2-.8.2-.8 0zm2-.2c0-.1.6-.4.7-.3v.3c-.2.2-.6.2-.6 0zm2.4-.2c0-.2.2-.3.3-.4.4-.1.4 0 0 .4-.2.2-.3.2-.3 0zm5-.2V77l.3-.2c.2-.1.2 0 0 .4l-.2.4c-.1 0-.2 0-.1-.2zM59.9 76a21.3 21.3 0 0 0 5.6-.4h.6l2.1-.2a62.8 62.8 0 0 0 7-.2 363.6 363.6 0 0 1 7-.4c.2 0 .1-.2 0-.2a.6.6 0 0 1-.3-.5l-.3-.4-4.3.2a39799.4 39799.4 0 0 1-11.2.4 78.1 78.1 0 0 0-9.6.6c-.6 0-1 .4-.7 1 0 .2.2.3.7.2h3.4zm50-1.7c.3 0 .3-1 .2-5.2v-8.3-23.5c0-5.5 0-5.8-.4-6.1-.3-.3-.6-.3-8.6-.3a294.3 294.3 0 0 0-18.4.7s-.2 0-.2.2l.3.1.5.4.4.3c.1 0 .1 0 0 0l.1.4c.3.1.2 1.4 0 2-.2.4-.7 1-1.2 1.4-.7.7-.9 1-.7 1.1l.3 1.3.2 1c.1 0 .1 0 0 .2-.2.3-.2 2.6 0 3.3.2.7 1 1.9 1.6 2.5.4.5.4.5.2 1-.3.6-.6.7-1.7.6-1-.2-1.4 0-1.6 1l-.4.8-.3.7-.4.6c-.2.3-.3.6-.3 1.1 0 1-.5 1.8-1.2 2-.7.2-1.7.8-1.1.6h.3l.6.2.9.3.5.2h.3c0 .2.3.2.6.2l.7.2a6 6 0 0 0 1.7.6l1 .4 1 .3c.3 0 1 .2 1.6.5l.5.2s.3 0 .4.2l.8.4c.3 0 .7.2.8.3l.4.2c.2 0 .4 0 .4.2l.5.1 1.4.4c.6.2 1.1.3 1.3.2.1 0 .2 0 .3.2l.4.1h.7c.2.2.4.2.6.1h.4c0 .1 0 .2.2 0h1.7l1.9-.1c.3-.2.6 0 .5.3 0 .3-1.3 1.2-2.6 1.7-1.8.8-2.3 1.1-2.3 1.3l.1.3.2.1 1 .7 1 .5.2.1.7.5.7.5c0 .1.1.2.3.2.2 0 .4.1.5.3l.6.5c.3 0 .6.3.8.6l.8.4.3.3.3.2c.2 0 .4.1.4.4.1.2.2.4.4.4s.3 0 1.2.9l.4.3.3.2c.2.2.4.4.6.4.1 0 .2 0 .2.2s.5.6.9.6c.2 0 .2 0 0 .1-.1.2 0 .2.2.3l.7.5c.8.8 1.4 1.2 1.5 1.2l.4.4c.4.5.3.5.6.3zM32 74l1-.4.6-.3a5 5 0 0 1 1-.6 7 7 0 0 0 1.2-.6l.7-.4 1.8-.8a137.4 137.4 0 0 1 5.1-2.8c.9-.4 2-1.2 1.9-1.4l-1-.4a3 3 0 0 1-1-.3s-.3-.2-.7-.2l-.5-.1c0-.1-.1-.2-.2-.1l-.8-.3a2 2 0 0 0-.5-.3h-.9l-.5.2-.6.3c-.1.2-.3.3-.4.2 0 0-.9.3-1 .6a28.8 28.8 0 0 1-4.3 2c0 .2-.4.4-.6.4-.3 0-.7.3-1 .5-.3.3-.4.5-.4 1.2a83.1 83.1 0 0 1 0 2.6c0 1.6 0 1.6 1.1 1zm26.8 0h2a38.6 38.6 0 0 0 5-.3c.3 0 .4-.1.4-.5l-.1-.5c-.2 0-.2 0-.2-.2l-.5-.7c-.2-.3-.4-.5-.3-.6l-.7-1-.9-.9h-1.2c-.6 0-1.5 0-2-.2h-1a4 4 0 0 1-1.2-.1c-1.1-.2-1.4-.1-1.5.6a48.8 48.8 0 0 1-.7 4.1v.2c.2.2.4.2.7.2l2.2-.1zm9.7-.9c.1-.2.1-.4 0-.4l-.1-.2c0-.3-.6-1-.8-1h-.1l-.5-1-.2-.3c0-.3-.5-.7-1.2-.8l-.8.1c0 .2.9 1.7 1.2 2 .1 0 .2.2.2.5 0 .2.1.3.2.3.1-.1.7.6.7.9 0 .1.1.2.2.1.2 0 .3 0 .3.2 0 .3.7 0 1-.4zm2 .2l.2-.2c.2 0 .2-.1 0-.3v-.5h-.2c-.3 0-1-1-1-1.4 0-.3 0-.3-.2-.1-.1.2-.1.2-.1 0 0-.5-.4-1.2-.7-1.3h-.7l-.4.1.5.8.6 1.1.3.4c.1 0 .2.1.2.3 0 .3 1 1.3 1.3 1.3.1 0 .3 0 .3-.2zm5.7 0c2 0 4.3-.3 4.4-.5.1-.3-.2-1-.5-1 0 0-.3-.2-.4-.5l-.9-1.1-.7-1H78l-.5-.3c-.2-.3-1-.3-3.4 0l-1.2.2c-.7 0-3 .2-3.2.4-.1.1.4 1.3.5 1.2.1 0 .2.1.3.4 0 .3.2.6.4.8l.3.6c0 .1.1.3.3.3.2 0 .3.2.3.3 0 .2.3.2.8.3h1.6l2-.2zm-8.3-5c.2-.1.2-1.4.2-4.1 0-.3 0-.3-.3-.2-.1.2-.2.7-.2 1.5l-.2 2c-.2 1 0 1.5.5.9zm-4.6-.3a46 46 0 0 0 0-4c-.3 0-.5 2.5-.4 3.7.1.8.3 1 .4.3zm1.2.3c.2-.3.2-4.4 0-4.4-.1 0-.2 0-.3.2-.1.2-.2 3.6-.1 4 0 .4.1.5.4.2zm1.1-1.2a52 52 0 0 1 0-3.2c-.1-.1-.2.2-.3 1.4-.2 2.8-.2 3.4.1 3l.2-1.2zm1.1.9l.2-1.8a9 9 0 0 1 0-1.7c.2-.3.1-.4 0-.4-.3 0-.4 0-.6 1.9-.2 2.1 0 3.2.4 2zm2.5-.2V64l-.3.2c-.3.2-.3 4.4 0 4.3l.3-.6zm1.1.3c.2-.6.3-4.4.1-4.4-.4 0-.4.4-.5 2.3v2.2c0 .4.3.3.4 0zm-37.2-.6l1.7-.8.5-.4c.2-.4.3-.5.2-.8-.3-.4 0-.5.5-.1.3.2.5.3.8.1.6-.2.7-.6 0-1.1a33.7 33.7 0 0 1-1.5-1.3c-.2 0-.3.4-.2.7l.1.7c0 .5 0 .5-.2.5s-.3 0-.2-.1l-.1-.3-.2-1c-.1-.7 0-1 .2-1.2.1-.1.4-.8.5-1.4a4 4 0 0 1 .5-1.2l.2-.7c0-.4.1-.8.3-1 .3-.5.7-1.4.7-2 0-.3-1-1.3-1.2-1.1l-.6-.4c-.2-.3-.5-.5-.6-.5l-.4-.4-.7-.7c-.5-.3-1.3-1-1.5-1.4 0-.2-.1-.3-.2-.2-.1 0-.2 0-.2-.2 0-.3-.2-.3-.4 0-.1.2-.2 16.5 0 17 0 .2.3.2 2-.7zm29.2.5l-.1-1.6v-.7V64c-.3-.3-.4.3-.4 2.2 0 1.6 0 2.1.2 2.1l.3-.3zm9.3 0v-2.4c0-1.7 0-2-.2-2-.1.2-.2.4-.2 1.1l-.1 2.3.1 1.3c.2 0 .3-.1.4-.3zM61 67v-2.2c.1-.8 0-1-.2-.9-.2.1-.2.3-.3 2.4-.1 1.8-.1 1.9.2 1.9.2 0 .3-.2.3-1.2zm11.5.9h-.1l-.2.1c0 .1 0 .1.2 0l.1-.1zm-15.1-1.3a35.4 35.4 0 0 1 0-3A12 12 0 0 0 57 67c0 .8 0 1 .2.8.2-.1.3-.6.3-1.2zm1 .9a39.3 39.3 0 0 0 0-3.9l-.2.5c0 .2 0 .9-.2 1.5-.2 1.2 0 2.4.2 2.4 0 0 .2-.2.2-.5zM60 67v-.8l-.1-.3c.2-.2.2-2.2 0-2.3-.3-.3-.5.3-.5 2v2c.2.5.5 0 .6-.6zm13.8.6a67.5 67.5 0 0 0 0-4.2c-.3.2-.6 3.7-.4 4.2.1.4.4.4.4 0zm1.4 0c.2-.6.2-1 .2-2.2v-1.7c0-.6-.2-.8-.6-.5a12 12 0 0 0 0 4.7c.2 0 .3-.2.4-.4zm1.3-.2v-4.6c0-.1 0-.1-.2 0l-.2 1.2a58.2 58.2 0 0 1 0 3.7c0 .1.2.1.2 0 0-.2.1-.3.2-.3zm-20-1.3a53.8 53.8 0 0 1 .2-2.8c-.3-.5-.4-.1-.6 2.9 0 1.4 0 1.4.2 1 .1-.1.3-.7.3-1.1zm-1.1.6v-2c0-1.3 0-1.5-.2-1.5s-.3.1-.3 2c0 1.7 0 2.2.2 2.2l.3-.7zm17.4-1.3c0-1.7 0-1.8-.2-1.5-.1.2-.2.7-.2 1.8 0 1.4.1 1.8.3 1.7l.1-2zm4.7 1.7c.2-.6.3-4.8.1-4.8-.3 0-.3.4-.4 2.7 0 2.2 0 3 .3 2.1zm1.4 0c.1-.3.2-.5.1-.6a51.7 51.7 0 0 1-.4-4.3l-.2.6a39.8 39.8 0 0 1-.1 4.4c.1.3.5.3.6-.2zM52 64.4v-2.2c-.2 0-.3 0-.4.2-.2.2-.2 4 0 4.4.2.6.4-.3.4-2.4zm28 0l-.1-2.6c-.4 0-.5 1-.3 3.6.2 2.7.4 2.1.5-1zm-26.9 2l-.2-.6c-.2 0-.2 0-.1.3v.6l.2.2.1-.6zm1.1.4l.1-1.5c0-.8.1-1.4.2-1.4v-.5c-.2-.5-.8-.7-.7-.3v2c0 1.6.1 2.1.4 1.7zm-3.5-2a24.5 24.5 0 0 1 .2-2.3c0-.4 0-.5-.3-.5s-.4 0-.5 2a8 8 0 0 0 .1 2.5c.3.5.5 0 .5-1.7zm30.5 1.5v-4.8c-.3 0-.4.8-.4 2.7v2.3c.2.4.4.3.4-.2zm-31.8-.3l.1-2.3c0-1.8 0-2-.2-2-.3 0-.3.2-.3 2.3 0 1.9 0 2.3.2 2.3l.2-.3zm33-2.4c0-2.3 0-2.9-.3-2.4-.2.3-.1 4.5 0 4.7.3.5.4 0 .4-2.3zm-35.4 2l.1-2.2.2-2c.1-.2-.3-.6-.5-.4a16 16 0 0 0-.3 4.4c.1.6.3.7.5.2zm1.2 0v-2l.1-1.5v-.5c0-.2 0-.3-.2-.3-.3 0-.3.1-.4 1.9 0 2 0 2.7.3 2.7 0 0 .2-.1.2-.3zM84.5 63v-2.5h-.2l-.3 2.8c0 2 0 2.7.3 2.4.2-.1.2-1 .2-2.7zm-31.4 1.1c0-1.3 0-1.5-.3-1.5-.2 0-.3.6-.2 2.9 0 .1.1.2.3.2.2 0 .2-.3.2-1.6zm-7.3 1c0-.4.2-4 0-4.3 0 0 0-.2-.2-.2l-.3 1.5v3.3c.1.3.4.1.5-.2zm39.9-.1v-2.3c-.1-2.5-.1-2.4-.3-2.3-.2 0-.2 4.8 0 5 0 .2.3 0 .3-.4zm-41.2 0l.3-.3v-.5l-.1-1.4a1025.6 1025.6 0 0 0 0-1.8c-.5 0-.6.1-.7 2.2 0 1.6 0 2.2.3 2.2l.2-.3zm38.8 0l-.1-.3v.7l.1-.4zm3.5-2.7c0-1.5-.1-2.6-.2-2.6l-.1.2a48.3 48.3 0 0 0 .1 5c.1 0 .2-1 .2-2.6zm-43.4 1.6c.2-1.2.1-1.8-.1-1.7-.1 0-.2.5-.2 1.1a9 9 0 0 1-.2 1.4s0 .2.2.2l.3-1zm44.5 0a49 49 0 0 1-.3-4.7c-.1 0-.2.5-.2 2.4 0 2.6.1 3.2.4 3 .1 0 .2-.3.1-.8zm-49.7.5h.5c.1-.3-.2-.5-1.8-1.4-.2 0-.4-.3-.5-.5-.1-.3-.1-.3-.1 0 0 .1-.1.3-.3.3l.2.1c.2.1.4.4.5.7.2.3.3.4.5.4 0 0 .2 0 .3.2 0 .3 0 .3.2.2h.5zm4.2 0c.1-.2.1-.3 0-.4-.1 0-.1-.2 0-.4.1-.3 0-.8-.2-.8s-.4 1-.3 1.4c0 .4.2.4.5.1zm46.7-.2v-.7l-.2-2v-1.8c-.2-.1-.2-.3-.1-.4l-.1-.1c-.2 0-.2 0-.2 2.3 0 1.7.1 2.9.3 2.9l.3-.2zm-5.8-.2l-.1-.3-.2.3c0 .1 0 .2.2.2l.1-.2zM40.2 63s-.1-.2-.3-.2l-.2-.1-.4-.2c-.2 0-.4 0-.4-.2 0 0-.3-.3-.7-.4L37 61l-.8-.6c-.3.1-.3.2-.1.8 0 .2.2.4.3.3l.3.3c0 .2.2.4.2.3.3 0 .4 0 .4.2l.3.4.2.2h.5l.4.3c0 .2.4.4.9.6.2 0 .6-.3.6-.7zm50 .4a17.2 17.2 0 0 0-.1-3.4c0-.4-.2-.6-.4-.3a13.7 13.7 0 0 0 0 3.7l.2.4.3-.4zm-6.8 0a50.3 50.3 0 0 0-.1-2.7c-.2.1-.3 2.8-.1 2.8l.2-.1zM70.2 63a18 18 0 0 0 2.7-.3c1.2-.1 2-.3 2-.4L76 62c.5 0 1.2-.2 1.4-.3l1-.2c.4 0 .7-.1.7-.2l.4-.2c.5 0 2-.3 2-.5l.7-.2c.5 0 .8-.2.9-.3l.4-.1c.2 0 .8-.2 1.3-.5a8.8 8.8 0 0 1 1.6-.7c.3 0 .4-.2.3-.4 0-.1-.1-.2-.2-.1l-.4-.2c-.4-.3-.8-.3-1.6 0l-2 .9a73.9 73.9 0 0 0-3.8 1.1 26 26 0 0 1-3.6.9l-2.3.3-2.9.3a76.9 76.9 0 0 1-12.8-.2l-.2-.1-.2-.2a16.3 16.3 0 0 1-4-.7 25.6 25.6 0 0 1-3.6-1l-1.6-.3c-.4.1-1 .7-1 .9l.7.3a16 16 0 0 1 2 .8 20 20 0 0 1 3 .6l.7.3h.3c0-.3 0-.3.1-.1l.5.2 1 .2c.5.2.7.2.8 0l.2.1c0 .2.2.2.6.2h1.3a55.5 55.5 0 0 0 12.5.4zm21 0c.3-.7.1-3-.1-3-.1 0-.2.4-.2 1.6 0 1.6.2 2 .4 1.3zm1.2-1.4v-1.5c-.2-.5-.4.3-.4 1.4v1.3c-.2 0-.1.1.1.1s.3-.2.3-1.3zm-50.5.2c.4-.3.4-.3.1-.7-.2-.2-.6-.4-1.3-.5l-.6-.3c-.3-.2-.7-.3-1-.2-1.7 0-1.6 0-1.4.4.1.3 1.5 1.3 1.7 1.2l.5.2.6.4.4.1c.1.2.3.1 1-.6zm51.6-.3c0-.7 0-.9-.2-.9-.1 0-.2.2-.2.9l.2.8.2-.8zm1.2-.1l-.2-.8c0-.1-.1 0-.2 0v.6c-.1.6 0 1 .2 1l.2-.8zm-30.7.2c0-.1.7-.2 1.8-.2A19.9 19.9 0 0 0 70 61c.1.2.2.2.7 0 .3-.3.5-.3.6-.2H72.3l.7-.1 1.1-.2 1.1-.2 1.1-.2c.7 0 1 0 1.1-.2a19.3 19.3 0 0 0 5.7-2c.7-.2 1-.5.7-.7-.5-.3-4.3-1.5-4.8-1.5l-.6.2c-.1.2-.6.5-1 .7a24.8 24.8 0 0 1-8.5 1.8 36.7 36.7 0 0 1-9.3-.2 27.5 27.5 0 0 1-6.9-1.1c-1.2-.4-2-.3-2.6.2-1 .9-1.3 1-1.3 1.2 0 .1.1.2.3.2.1 0 .2 0 .2.2 0 .3.5.5.7.2.1-.1.1-.1.2 0l.2.2 1.4.4c1 .3 1.8.5 2.8.5.8 0 1.6.2 1.7.3.7.3 1.7.4 1.7.2h.1c0 .2.1.2.2.2h.4l.7.3.7.1 1.2.2c1 .1 1 0 1-.2s.1-.2.3 0c.3.5 1.3.6 1.4.3zm1.6-1.2c0-.1.1-.7.3-.7.2 0 .2.6 0 .7h-.3zm2-.3c-.2-.2-.3-.2 0-.4.2-.2.6-.3.6 0 0 0 0 .2-.2.3-.1.2-.2.3-.4.1zm-4.2-.3c0-.2.2-.3.3-.3v.3c0 .2 0 .3-.2.3-.3 0-.3 0-.1-.3zm-2.6 0c0-.3.2-.6.3-.6.1 0 .2.1.2.4 0 .2-.1.4-.3.4 0 0-.2 0-.2-.2zm8.5 0c0-.2.4-.6.6-.6.4 0 .1.7-.2.8l-.4-.1zm2 0c-.4-.2-.1-.7.4-.8.3 0 .4.4.1.8-.2.2-.3.2-.6 0zm-12.5-.1c0-.2 0-.4.3-.6.2-.3.3-.3.3 0l-.2.5c-.2.2-.3.2-.4 0zm-2.2-.2c-.1-.3.4-.7.6-.6.2.1 0 .5-.3.7l-.3-.1zm-1.9-.3c-.2-.3-.2-.4 0-.5.4-.3.7-.1.5.5l-.1.3-.4-.3zm18.6 0c0-.1 0-.3.3-.5.2-.4.3-.4.4-.1.1.4 0 .7-.4.7l-.3-.1zm2-.3v-.6c.4-.2.8 0 .8.4-.1.5-.6.6-.8.2zm-22.8-.3c.3-.5.5-.6.6-.3.1.3 0 .5-.5.5-.3 0-.3 0-.1-.2zm-1.7-.1c-.4-.4.4-1.1.9-.8.2.1.1.2-.2.6-.4.4-.5.5-.7.2zm26.9-.7c0-.3.3-.9.3-.6 0 0 0 .2.2.2s.3 0 .2.3c0 .3-.7.5-.7.1zm2.1-.5l.1-.5c.3-.4.8-.2.8.3 0 .3-.1.4-.4.4-.2 0-.4 0-.5-.2zm15.8 3.8c0-.2 0-.3-.1-.2-.2.1-.2.6 0 .6l.1-.4zm1.8-.3c0-.3-.7-.3-1-.2-.3.2-.3.3 0 .4.1.2.3.2.6 0l.4-.2zm-53.8-.2l1.7-1.1.7-.5.7-.5.5-.3a26.4 26.4 0 0 1 3.5-2.2c.2 0 .5-.2.5-.3l.6-.3a1141.7 1141.7 0 0 0 4.8-2.4c.2 0 .5-.1.7-.3l.7-.3c.6-.2.7-.5.3-1.4-.3-.6-.4-1-.4-2 0-1.7 0-1.8-.7-1.6-.4.2-.5.1-1-.2-.8-.7-1.5-2.1-1.4-3.2v-1.4-.7c-.1-.1-.1-.2 0-.2l-.3-.6c-.2-.3-.4-1-.4-1.6 0-.6-.2-1-.3-1.1l-.1-.3-.1-.2c-.6 0-1.6-1.4-1.6-2.2 0-.6 1-2.2 1.3-2.2l.6-.3 1.2-.6a13.2 13.2 0 0 1 6.1 0h.5l.4.2.6.2.8.1c0 .2.6.4 1 .5l1.3.4c.3.2.6.1.9-.4.5-.7 1.2-1 2-1 .7 0 1.7.3 1.9.6l.3.4c.2.3.3.5.3 1.5l.2.6a2947.6 2947.6 0 0 1 4 1c.2.3.8.4 2.6.5 2.2 0 4.3-.7 4.8-1.8a3 3 0 0 0 0-2.1c-.4-1-2.6-1.4-5.2-1.1a13 13 0 0 0-3.8.9l-2 .7c-.2-.2.4-.8.6-.8l.4-.2.6-.4c.4 0 1-.5 1-.7a288.5 288.5 0 0 0-16 0c0-.2 0-.2 0 0H57a555 555 0 0 0-25.8.3c0 .1-.2 1-.2 2.8a17236.9 17236.9 0 0 1 0 12.5c0 .3.3.4.8.6l1 .4h.9c0 .1.5.3.9.3l1 .2h.6c.3 0 .3-.2.3-.6 0-.3-.2-.7-.4-.9a2 2 0 0 1-.4-.5l-.5-.7c0 .2-.8-.7-1-1.2l-.4-.4c-.1 0-.2-.1-.1-.2a4 4 0 0 0-.6-1.8c-.2-.2.3-2.2.6-2.6l.2-.5c0-.2 1-1 1.2-1 .1 0 3-2.2 3.7-3 .7-.6 1.2-.6 1.9-.1.3.2.5.5.5.6l.3.5.4.6h.1c.2 0 .3.2.3.3.1.3 1.9 1.3 2.3 1.3.1 0 .2 0 .1.1 0 .1 0 .2.3.3l.3.2.4.7c.3.4.4.7.4 1.4 0 .5 0 1-.2 1v.3c0 .3-1.2 2-2.4 3.5l-1 1.6c-.5 1-.4 1.2 1.1 1 1.1 0 3-.6 3-.8l.4-.2c.4 0 1.4-.4 1.5-.6l.6-.2c.6 0 .7 0 .6.3 0 1-1.2 3.3-2 4.3-.7.8-3.2 3.4-3.6 3.6-.4.3-.4.4-.3.8l.2.6c.2.2.3.8.2 1.2 0 .3-.6 1-1 1.5-.6.5-1 1.1-1 1.3 0 .4 1 .5 1.3.1zm-1.7-1c.4-.2 1.4-1.3 1.7-2 .2-.4 0-1.2-.4-1.2-.1 0-.2 0-.1-.2s-.7-.4-1-.2v.4c.3.4.3.7.1 1.2-.2.6-1 1.1-2.2 1.2-1.1 0-1.3-.2-1.3-1.5 0-1 0-1-.4-1-.9 0-.9 1.4 0 2.3l1 .6c.6 0 1.1.2 1 .4v.1c0 .1 1.3 0 1.6-.2zm-4.7-.8c.1-.3 0-.5-.3-.4-.3.2-.2.8 0 .8s.3-.2.3-.4zm2.7-.6c0-.1.1-.2.3-.2l.8-.2c.4-.3.5-.4.4-.8-.1-.6-.3-.8-1.1-.8-.5 0-.6 0-.8.5-.1.4 0 1.6.2 1.6l.2-.1zm24 0c.1-.1.5-.2 2.8-.3a35.8 35.8 0 0 0 10.5-2c1.2-.5.9-.8-.8-.8l-.8.1a468.6 468.6 0 0 0-4 1l-1.8.4a44.8 44.8 0 0 1-14.2-1.1 3 3 0 0 0-2.4 0c-.6.3-1 .8-.8 1 0-.2.2-.3.4-.3s.3 0 .3.2 1.5.6 2.2.5c.2 0 .5 0 .5.2a10.1 10.1 0 0 1 1.9.3 70.4 70.4 0 0 0 5.7.8c.2.2.3.2.5 0zm-2-2.7c.3-.2.3-.3.1-.2h-.2c0-.2 0-.2.2-.2l.2-.2c0-.1-.1-.2-.5 0-.6 0-.4-.2.3-.4.5-.2.6-.2.2-.2-.4 0-.4 0 0-.3.3-.3.5-.3.5 0 0 .2 0 .3.3.2l.3-.1v-.2c-.1-.2-.4-.3-.7-.3h-.4l.4-.2c.5-.1.9.1.9.5 0 .1.1.2.2.1.2 0 .3 0 .3.2l.1.2c.2 0 .2-.2.2-.6 0-.3.3-.2.4 0 0 .2.1.3.2.2l.4.1c.1.1.3.1.4 0l.2.2c0 .2.2.2.3.2.2 0 .3 0 .3.2 0 .3 0 .3.3.3.2 0 .3 0 .4.2l.1-.2c.1-.4.3-.6.5-.6l.3.2.1.2c.2 0 .2-.8 0-1-.1-.1-.1-.2.1-.2l.4.2.3.1c.2 0 .3.1.3.2l.2.2s.3 0 .4.2c.2.3.2.3.2 0l.2.2c.3.3.3.3.3 0s-.2-.5-.7-.7c-.5-.2-.8-.4-.8-.7 0-.2-.3-.4-.6-.4-.4-.1-.4-.2-.3-.4h.5l-.2-.4c-.2-.3-.5-.5-.6-.5-.1 0-.2-.2-.2-.5 0-.2-.1-.1-.4.1 0 .2-.3.2-.5.2-.4-.1-.4-.1 0-.4 0 0 .1-.2 0-.2 0 0-.2 0-.2-.2l-.4-.5c-.5-.3-.5-.3-1 .1-.8.6-1 .8-.7 1 .3.3.3.9.1 1-.2.1-.8-.5-.8-.7h-.3c-.2 0-.3 0-.2.2.2.1 0 .9-.1 1l-.4-.2c-.1-.2-.1-.2 0-.1.2 0 .2 0 .2-.3s-.3-.4-.6 0c-.1 0 0 .2 0 .4.5.6.3.6-.4.1s-.8-.5-1 .3c-.1 0-.3 0-.4-.2-.2-.3-.3-.3-.4 0l-.2.6v.4l-.1-.4c0-.3-.3-.4-.5-.5-.3 0-.4 0-.3.5v.6l-.2-.1v-.3l-.4-.3c-.4 0-.5 0-.7.3l-.5.5c-.2.4-.1.6.2.7.2 0 .3.2.3.3h.2v-.7c-.1-.2-.1-.4 0-.4l.1.3c0 .1.1.2.3.1l.2.1c0 .1.1.2.3.2.2 0 .3-.1.3-.3l.2-.4s.1.1 0 .2c0 0 0 .2.2.2l-.2.3c-.4.3-.2.6.3.3.4-.2.4 0 .1.3-.1.2-.1.2 0 .2l.4-.4c0-.2.1-.2.1-.1 0 0 .1.2.3.2.1 0 .3 0 .3.2s.2.3.4.3.3 0 .2.1c-.1.3 0 .2.4-.2zm5.2-1l-.4-.2-.1-.1c0-.2 0-.3-.2-.4-.1-.2 0-.4.1-.4.2 0 .3.2.3.3.1.3.1.3.1 0 0-.1.2-.3.3-.2h.1c-.3.2-.2.4.2.5h.1c-.2 0-.3.2-.4.4 0 .1 0 .2-.1 0zm-6.5-.5c-.3-.4-.3-.9 0-.9.2 0 .2 0 0 .1l-.1.3c0 .2 0 .2.2.2l.2.1c.2.5 0 .6-.3.2zm7-.6c0-.2 0-.3.1-.2.2.1.2.4 0 .4l-.1-.2zm-3.4 0H64.4h-.2zm1.5-.1c0-.1 0-.2.2-.2l.1.2-.1.1-.2-.1zm1-.3h.3l-.1.1h-.2zm1-.7l-.1-.2h.3c.1.1.2.2.1.3l-.3-.1zm-1.6-1.6c-.1-.3 0-.5.2-.2s.2.5 0 .5l-.2-.3zm1.9 4.8l-.4-.3v.3c.5.3.7.3.4 0zm-25.5-.3c.3-.3-.5-.4-1.5-.2a8 8 0 0 1-.7 0c-.3 0-.3.1-.1.3.2.1 2.1 0 2.3-.1zm23.2 0l-.3-.1s-.2 0-.1.1l.2.2c.1 0 .2 0 .2-.2zM43.2 55h-.3c-.3 0-.3.2 0 .2.2 0 .3 0 .3-.2zm20.3 0c0-.1 0-.3-.3-.3H63c0 .4.5.6.6.3zm7.6-.3V54.6zm-5.3 0c-.2-.1-1-.2-1 0l.6.2c.3 0 .5-.1.4-.2zm-23.7-.4h.4l.6-.2c1 0 1.7-.2 2-.4.3-.3.1-.5-.3-.4-1.5.3-4 .6-5.4.6l-2.5.1c0 .4 3.3.5 5.2.3zM72 54l-.3-.3c-.3-.2-.3-.2-.3 0s.2.4.5.4l.1-.1zm-14.8-.3H57l-.1.1c0 .1 0 .2.1.1l.2-.2zm16.5-.5c0-.5-.4-1-1.1-1.3a5 5 0 0 0-1-.4v-.2l-.3-.3-.7-.4-.8-.5-.1-.2c0-.2-.8-.8-1.2-.8-.3 0-.3 0-.2-.2.2 0 .2-.1 0-.2a.3.3 0 0 1-.1-.3c0-.2 0-.2-.2-.2s-.5-.1-.9-.4l-.9-.8c-.2-.1-.3-.3-.3-.5 0 0-.2-.3-.4-.3l-.2-.3-.7-1-1-1c0-.3-.4-.6-.6-.9a3 3 0 0 1-.5-.8c0-.2-.3-.5-.6-.8a5.4 5.4 0 0 1-1-1.5c-.1-.3-.6-.9-1-1-.5-.2-.7.1-.6.8 0 .3.2.6.3.6l.1.2.1.3.5.7.5.7.3.6c0 .4.1.5.3.5.2-.1.3 0 .2.5l.3.3c.2 0 .3.1.3.2-.1.1 0 .2 0 .2.4 0 .6 1.2.3 1.4-.2.1-.3.6-.4 1.4 0 1.4.1 2.2.6 2h.1c-.1.2.7.8 1.2.8.3 0 1.2-.8 1.2-1 0-.2-.2-.4-.4-.6-.5-.4-.5-.4-1-.1-.4.2-.5.2-.8-.1-.3-.4-.4-1.8 0-2.6l.1-.4.1.4c0 .2.3.4.5.5l.2.3a6 6 0 0 0 1.6 1.8l.5.5c.3.4.6.6.7.6.2 0 .3.1.3.3l.3.3c.2 0 .5.2.5.3 0 .1.3.3.5.3s.6.3.7.5l.3.2.3.2c.1.2.4.4.6.4.2 0 .4.1.6.4.1.2.4.4.6.4l.3.1c0 .1.1.2.3.2.1 0 .2 0 .2.2l.4.2.4.1c.2.2.7-.1.7-.3zm-4.1-.1l-.1.2c0 .2 0 .2 0 0 .1 0 .1-.2 0-.2zm.7-.2l-.3-.2s0 .3.2.4c.2.2.3.3.4.2l-.3-.4zm1 .5c0-.3-.4-.4-.5-.2 0 .1 0 .3.3.3l.1-.1zm6.3-.3c1.1-.5 1.3-.8 1.2-1.9 0-.8 0-1 .3-1.3.5-.4.3-.8-.4-.7a245 245 0 0 1-1.4.4c0 .2-.1.2-.4-.7 0-.2.4-1 .6-1l.2.3c0 .4.6.5 1.2.1l1-.3c.2 0 .4-.1.4-.3.2-.3.1-.3-.3-.3-.8 0-1.3-.4-1.3-1.3 0-.6.1-.8.6-1.1.3-.4.5-.4.7-.3.1.1.2.1.2 0s0-.2.2-.2c0 0 0 .2-.2.3-.8.6-1 .9-.9 1.2.2.4.8.7 1.3.6a295.2 295.2 0 0 0 1.8-.2l.6.2c.3 0 .3 0 .3-.3l-.4-.6-.1-.2s0-.2-.3-.5c-.4-.5-.7-1.4-.7-1.8 0-.2 0-.3-.2-.3l-.1-1.8-.2-2.7c-.2-.9-.2-1-.7-1l-1 .2-2.2.3h-1.7l-.7.6c-.4.3-.8.6-1 .6l-.3.4c-.1.3-.3.4-.4.3-.3-.2.2-1.1.7-1.5.4-.2.8-.6.8-.8l-1.2-.4a5 5 0 0 1-1.4-.5c-.2-.3-.3.3-.3 1.1v1.5c-.2.6-.1.8.1 1.4.3.7.4 1.5.2 2.5v1.2c.7 1.6.8 1.9.8 3.1 0 .8-.2 1-1 2-.7.8-.6 1.3.2 1.4.2 0 .4.2.3.3 0 .3.1.4.7.5l.4.1s.1.2.3.2l.4.6c.1.8.4 1 1.5 1 .8 0 1.2-.1 1.8-.4zm0-9.2c0-.5 0-.5-.8-.5h-1.3c-.2-.1-.3 0-.4.3l-.3.3c-.2 0 0-.5.1-.7H74.3c-.2.4-.6 0-.6-.6l-.1-.5c-.3-.3.3-1.8.7-1.8l.2-.1 1-.8 1-.7c.2-.4 2.1-.7 2.1-.3 0 .1 0 .1.1 0l.6.7c.5.8.5 1.6 0 2.7-.2.3-.4.8-.4 1.1 0 .5-.5 1.2-1 1.3-.3 0-.4 0-.3-.4zm-.6-1.2l.3-.1c.3 0 .3-.2.4-1 .1-.6 0-.7-.2-.7H77l-1 .3c-.4.1-.9.3-1 .5l-.5.2.4.4c.3.3.6.4 1.1.5h1zm-.9-2.3l.7-.2.5-.2c.8-.1 1.3-.5 1.2-.9 0-.2-.2-.3-.3-.2 0 0-.3.1-.4 0-.3 0-1 .4-1.8 1-.7.5-1 1-.6.8l.7-.3zM39.6 53.1h1l2.4-.4c.8-.1 1.4-.2 1.5-.1l.3-.1c.1-.1.3-.2.4-.1.2 0 1.3-.4 1.3-.6 0-.2-.1-.2-1.4 0a32.8 32.8 0 0 1-11 .3c0 .1.1.2.3.2.2 0 .5.1.6.3.3.2.9.3 2.1.4l.9.1h1.6zm30.2-.3c0-.2-.3-.4-.4-.3-.1.1 0 .5.2.5l.2-.2zm-.5-.5l-.1-.2c-.1 0-.2.1-.2.3 0 .1 0 .2.2.1l.1-.2zM42 51.7a33.8 33.8 0 0 0 4.6-.8c.5 0 1.3-.7 1.3-1 0-.3-.2-.3-.8 0a5 5 0 0 1-1.1.3l-1 .3c-.8.2-1.5.3-3.2.4l-2.3.2a2 2 0 0 1-1 0l-1.3-.1-1.8-.2-1.6-.1c-.8 0-.8 0-.7.2.1.1.3.2.4 0l.4.2 1.3.3a51.2 51.2 0 0 1 4.8.5h.7l1.3-.2zm19-.8c.5-.6.7-1.3.5-1.7 0-.3 0-.3-.5 0-.5.4-1.3.5-2 .3l-.4-.2v.7c.2 1 .7 1.5 1.5 1.4.5 0 .7-.1 1-.5zm-21.8-.4c.1-.2.2-.1.2 0h.3a7 7 0 0 1 1.6 0 16 16 0 0 0 4.3-.6c.3 0 .7-.2 1-.4.1-.2.3-.3.4-.2l.1-.1c0-.1 0-.1.2 0 .2 0 1-.3 1.3-.7l.2-.5c-.2-.1-.9 0-1 .2l-.3.2-1 .3c-.8.4-1.8.6-4.2 1a33.7 33.7 0 0 1-9-.5c-.3-.3-2.3-.8-2.3-.6 0 .4.4.8.8.8l.4.1.7.2c.4 0 .7 0 .9.2l.9.2a27 27 0 0 0 4.5.3zm27.4-.8l-.1.2V49.7zm5.3-1c.5-.7.6-1.9.2-2.8l-.3-1c0-.2 0-.3-.3-.3-.2 0-.3.1-.3.4 0 .2 0 .4.2.4s0 1.5-.3 2l-.3.3-.5-.4c-.3-.2-.5-.4-.5-.7 0-.2 0-.7-.2-1-.1-.5-.2-.6-.4-.5-.2 0-.2.2-.1 1.2 0 .6.2 1.3.3 1.5l.2.6c0 .2.1.3.3.3l.2.2c0 .3 1 .8 1.2.6l.6-.8zm-11.2 0c.4-.3.8-1.2 1-2.3v-.8l-.4.1c-.6.2-.8.4-.8.9 0 .4-.4 1.4-.6 1.4-.1 0-.3 0-.5-.2s-.3-.4-.2-1.2c0-.8 0-1-.3-1.3-.3-.2-.5-.5-.5-.7l-.1-.4c-.1 0-.2-.2-.1-.3l-.1-.5c-.1-.2-.2-.2-.4.2l-.2.8c0 .7-.3 1-.8.7-.2-.2-.3-.4-.3-1 0-.8-.3-1.2-.7-1-.6.2-.1 2.1.7 3 .5.5.7.6 1.1.5.3 0 .6-.2.7-.3l.4-.2c.1 0 .2.1 0 .5 0 .7 0 1.2.2 1.3l.1.2c0 .3.5.8.8.8.2 0 .3 0 .3.2 0 .1 0 .1.2 0 0-.2.3-.3.5-.5zm-21.8-.1v-5a531.8 531.8 0 0 1-.2-7l-.8.6-.6.5-1 .7a4 4 0 0 1-1 .7l-.8.9c-.5.8-.6 1-.5 1.7 0 .4.1 1 .3 1.3.1.3.3.7.2.8 0 0 0 .1.2 0l.1.2c0 .2 1 1.6 1.4 2l.4.4.3.5c.2.2.5.6.5 1 .2 1.1 1.2 1.6 1.5.7zm-1.4-3.2l-.2-.4a2 2 0 0 0-.2-.7c-.3-.5-.3-.5 0-.7l.2.1c0 .2.2.4.5.7.4.4.5 1.1.1 1.1l-.4-.1zm-1.3-2.1l-.3-.5s0-.2-.2-.2-.2-1.8 0-2.2c.9-1 1.7-1.7 2.2-1.7.4 0 .4 0-.3.6-1 .7-1.3 1.3-1.4 2.1 0 .4 0 .7.2.9.3.3.5.8.4 1-.1.4-.3.4-.6 0zm4.5 5v-.7.2l-.3.4c-.2.1-.3.3-.3.5.2.5.4.4.6-.3zm1-5.6c0-4.4 0-5.3-.2-5.3l-.2.2v7.1c0 3 0 3.7.3 3.4l.1-5.4zM68.4 48l-.2-.2-.1.2.1.1.2-.1zM40.7 46c-.1-.5-.3-.4-.3.2a48.7 48.7 0 0 1 .3.7V46zm27 .8c.5-.4 1-2.3.6-2.3l-.2.2c0 .4-.6 1-1 1-.3 0-.5-.2-.7-.5-.3-.5-.6-.7-.7-.3-.1.2.3 1 .6 1l.3.5c0 .3.2.4.3.3l.3.1c.1.2.2.2.5 0zm-25.2-1.2l-.2-.6c-.2 0-.2.1-.2.4l.1.7c0 .1.1.2.2.1l.1-.6zm-2.5-.2l-.1-.4-.2.4c0 .2 0 .4.2.4l.1-.4zm.8-.2l-.3-.3v.2c0 .3 0 .4.2.4.3 0 .3 0 0-.3zm19.8-.2c.4 0 .8-.7.6-1h-.7c-.5 0-.6 0-.6-.2s-.1-.3-.2-.3V43c0-.6-.2-1.3-.5-1.3l-.4.5v1l.2.8.6.8.7.5.3-.2zm-18-2.7l.2-3.2c0-.8-.1-1.2-.4-.8-.1.3-.2 6.1-.1 6.5.2.6.3-.1.3-2.5zm1 2.2l-.1-2.1c0-.9 0-1-.2-.6-.2.8-.2 3 0 3 .1 0 .2-.1.2-.3zm-3.6-.2a35.2 35.2 0 0 1-.2-4 21 21 0 0 0-.2 4c0 .2.2.4.3.3.1 0 .2-.1.1-.3zm.8-1c-.1-.6-.3 0-.2.6.1.7.1.7.2.2v-.8zm29.7 1c.8-.5 1.2-1.2 1-2.5 0-1 0-1-.3-1-.2 0-.2 0-.2.6.1 1 0 1.4-.5 1.7-.4.3-.4.3-.8 0l-.4-.7-.1-.4c-.1 0-.2-.2-.1-.3l-.1-.5c-.5-.6-1.4-.2-1 .5l.2.8c0 .2.2.6.5.9l.5.6c0 .2.5.5.8.5 0 0 .3 0 .5-.2zm-4.6-.3l.2-.1.7-.6c.4-.6.6-1.5.7-3.4 0-.7-.1-.9-.5-.6-.4.2-.7.8-.7 1.6s-.7 1.7-1.3 1.6c-.5-.2-.7-.5-.7-1.2 0-.8-.2-1-.6-.7-.3.2-.3 1-.1 1.5l.1.5c0 .1.4.5 1 .9 1 .7 1.2.8 1.2.5zm-21.5-1.3c0-.7-.1-1-.2-1-.1.2-.2.8-.1 2 0 .2 0 .3.2.2v-1.2zm.9-1c0-.8 0-1.1-.2-1l-.1 1c-.1 1 .2 1 .3 0zm12.6.2c.8-.6 1-1.2.6-2l-.4-.6-.6.8c-.2.5-.4.8-.6.8-.5 0-.8-.4-.8-1 0-.5-.4-1-.8-1s-.5.4-.4 1c.2 1 .7 1.9 1.2 2.2.8.4 1.1.3 1.8-.2zm-13.5-1.6c0-1-.2-.8-.2.2v.7c.2 0 .2-.5.2-.9zm-3.7.8l-.2-.2c-.1 0-.1 0 0 .2v.1l.2-.1zm2.8-1l-.1-1.1a86 86 0 0 1 0 2.3l.1-1.2zm19.7 0c0-.4 0-.4-.6-.4l-.7.2.3.5c.4.5.4.5.7.2l.3-.6zm7.5-.1c.4-.5.7-1.2.7-2.3 0-.7 0-1-.2-1-.1 0-.2 0-.2-.2s-.4 0-.7.3c-.2.3 0 .8.2.8s0 1-.3 1.3c-.3.5-.8.3-1.2-.6-.3-.7-.4-.8-.8-.8-.3 0-.4.1-.4.6.1 1.7 1.9 3 2.9 1.9zm-30-1.4v-1.2c.2-.5.2-1 .1-1.2 0-.3-.1-.3-.3.3v2c0 1.2 0 1.4.2 1v-.9zm25.2 1l.3-.4.1-.2c.1 0 .6-1 .7-1.9.1-.3 0-.4-.2-.5-.6-.2-.9 0-.8.5 0 .7-.5 1.5-1 1.4l-.2-.2c0-.1-.1-.2-.3-.2 0 0-.2-.1-.3-.4 0-.2-.2-.4-.4-.4-.4 0-.5.8-.1 1.2.2.3.2.4 0 .5l.1.1.6.3c.2.3.4.4 1 .5.1 0 .3 0 .5-.2zm-26 0l-.2-.2-.1.2c0 .1 0 .1.1 0h.2zm-.2-.7v-.4l-.1.4v.4c.2 0 .2-.2.1-.4zM63 39c0-.2 0-.5-.2-.7-.1-.4-.2-.5-.4-.3l-.2.5c0 .7.7 1 .8.5zm-3.4-.8l2-.5s.2 0 .2-.2l2-.8c2.1-.6 2.5-.9 2.5-1.5 0-.5-.3-.7-.8-.7H65c0-.2-.5-.3-1-.5a107.7 107.7 0 0 1-4-1c-2.9-.5-6.2.3-7 1.6-.5.8-.4 2 .2 2.6l.7.4.2.2c0 .1.1.2.3.2h.4c.5.6 3.3.7 4.6.2zM39.8 38v0zM70 36.3c.5-.5.7-.8.7-1.1l-.2-.6s-.1 0 0-.2c0-.3-.5-.8-1.2-1-.5-.2-1.2 0-1.8.4-.3.3-.4.5-.3 1.2 0 1.2 0 1.4.2 1.3.1 0 .3 0 .4.2.1.2.3.3.6.2h.4c0 .4.7.2 1.2-.4zm-1.8-.8c-.2-.4 0-1 .4-1 .3-.2.8 0 .8.4 0 .8-.8 1.2-1.2.6zm-28 .5c0-.4-.5-.5-.6 0 0 .2 0 .3.3.3s.4-.1.4-.3zM28.7 78V78v.2zm0-1.1v-.4.4zm0-4.3V71a74 74 0 0 1 0 1.7zm0-4.5V68v.3zm0-1.4v-.4.4zm0-2.2V64 64.6zm0-1.6c0-.3 0-.3.2 0l-.1.2c-.1 0-.2 0-.2-.2zm0-1.6v-.6V61.4zm0-1.6v-.3.3c0 .2 0 .1 0 0zm0-1.5v-.7.7zm0-2.7v-.5c.2.2.2.7 0 1v-.5zm0-12.8V30.9c.2.1.2.5.2 5.6 0 9.8 0 18-.2 18V42.7z"/></svg>