<svg xmlns="http://www.w3.org/2000/svg" viewBox="0 0 140 190" version="1"><path fill-opacity=".5" d="M21 5h103a16 16 0 0 1 16 16v153a16 16 0 0 1-16 16H21a16 16 0 0 1-16-16V21A16 16 0 0 1 21 5z"/><path fill="#e7e7e7" d="M17 1h103a16 16 0 0 1 16 16v153a16 16 0 0 1-16 16H17a16 16 0 0 1-16-16V17A16 16 0 0 1 17 1z"/><path fill="#c7891f" d="M19 3h103a16 16 0 0 1 16 16v153a16 16 0 0 1-16 16H19a16 16 0 0 1-16-16V19A16 16 0 0 1 19 3z"/><path fill="#fff" d="M18 2h103a16 16 0 0 1 16 16v153a16 16 0 0 1-16 16H18a16 16 0 0 1-16-16V18A16 16 0 0 1 18 2z"/><path d="M10.6 12.3h6.3v11l9.3-11h7.4l-12 14.2 13.2 15.8h-8L17 30.5v11.8h-6.3v-30M129.2 176.7h-6.4v-11l-9.2 11H106l12-14.2-13.2-15.8h8l9.9 11.8v-11.8h6.4v30"/><path d="M21 48.7c-2.6 0-4.8 3.3-4.8 7.3 0 3.4 4.4 9.2 4.2 12-1.4.7-5.7-6.5-8-6.5-2.6 0-4.8 3.3-4.8 7.3S9.8 76 12.4 76c2.3 0 6.3-7.2 8-6.6l-2.9 12.9h7l-3-12.8c1.7-.7 5.8 6.6 8.1 6.6 2.7 0 4.8-3.2 4.8-7.3 0-4-2.1-7.3-4.8-7.3-2.2 0-6.3 7.1-8 6.4 0-2.8 4.3-8.6 4.3-12 0-4-2.2-7.3-4.8-7.3zM118 140c2.6 0 4.8-3.2 4.8-7.3 0-3.4-4.4-9.1-4.2-11.9 1.4-.8 5.7 6.4 8 6.4 2.6 0 4.8-3.2 4.8-7.2s-2.2-7.3-4.8-7.3c-2.3 0-6.3 7.2-8 6.5l2.9-12.8h-7l3 12.8c-1.7.6-5.8-6.7-8.1-6.7-2.7 0-4.8 3.3-4.8 7.3s2.1 7.3 4.8 7.3c2.2 0 6.3-7 8-6.4 0 2.8-4.3 8.6-4.3 12 0 4 2.2 7.3 4.8 7.3z" fill-rule="evenodd"/><path d="M109 159l-5-.1-7-.2a2600.6 2600.6 0 0 0-66 0c-1 0-1.7-.3-1.4-.7 0 0 .2-4.7.2-11.9a3612 3612 0 0 1 .6-54.4 3947.3 3947.3 0 0 1 .9-60.4l6.4-.1a242.3 242.3 0 0 0 7 0H59a1784 1784 0 0 1 51.6 1v7.9a393983.5 393983.5 0 0 0-.6 117v1.8h-.5l-.5.1zm-73-1c1.5 0 1.4 0 4.5-3.3 1.9-2 2.3-2.5 2.8-3.4a58.9 58.9 0 0 1 2.7-4.1 50.4 50.4 0 0 1 2.5-3.9l.4-1 .6-1.1c0-.3.3-.7.5-1 .5-.7.7-1.9.3-1.9-.1 0-.4 0-.5-.2l-1-.4c-.2 0-.4 0-.6-.2a50.3 50.3 0 0 0-3.7-1.6c0-.2-.8-.5-1-.4-.3 0-1.4 1.2-2.6 2.4a513.8 513.8 0 0 1-7.1 7.6 21 21 0 0 1-2 2.2l-1.4 1.5v4a40.4 40.4 0 0 0 .3 4.7h.7l1.1.2H36zm73.1 0l.2-3.3.2-37c.2-26.2.2-28.3-.1-29l-.8-1-.6-.5-1.8-2.2a32.5 32.5 0 0 1-2.7-2.9l-.7-.7a1 1 0 0 0-.6-.5c-.2 0-.3-.2-.3-.2l-.5-.4c-.2-.1-.7-.5-1-1l-1.2-1c-.3 0-.5-.2-.5-.3 0-.1-.2-.4-.5-.6l-.6-.5c0-.2-.1-.3-.3-.4a3 3 0 0 1-.7-.7c-.5-.6-.9-.4-1.2.6l-.4.9-.2.6c0 .4 0 .6-.2.6s-1.3 2-1.3 2.4l-.2.3-.2.5c0 .2 0 .3-.2.3l-.1.3a20.7 20.7 0 0 0-1.7 4.4c-.9 2.4-.9 2.7 0 2.8l3.9.6c.2.2 3.3.7 4.7.8 5.1.2 6.4.3 6.8.7.3.2.3.5.4 1.8 0 1 .1 1.7.2 1.8l.2 1v1a77.4 77.4 0 0 1 .8 8.8 389.9 389.9 0 0 1-.3 25.2c0 .1-2.3.2-6.3.2-7.1 0-6.5-.2-7.1 1.6a99.4 99.4 0 0 1-4 12.4 29.9 29.9 0 0 1-2 4.8c-.6 1.2-.6 1.2-.3 1.5l.5.4.2.1.3.2c.2 0 .4.1.5.3l.6.2c.2 0 .4.1.4.3 0 .1.2.2.3.1 0 0 .2 0 .2.2l1 .7c.8.4 1 .4 3.2.5 2.1 0 2.3 0 2.7.4l.3.6c0 .3-.3 1.1-.6 1.3l-.3.7v.4h2.6c6 .2 9.2 0 9.3-.2zm-55.5-.1h5.3c.4-.1-.2-.5-.7-.5a771 771 0 0 1-6.3-1l-1.6-.3a36 36 0 0 1-7-1.3 6 6 0 0 0-.9-.1c-.6 0-.7 0-2 1.5l-1.4 1.6 4 .1a37 37 0 0 1 4.8.1l5.8-.1zm25.3-.2h.2c.2.2 2 .2 2.4 0 .4-.2.1-.6-.4-.7a1557.7 1557.7 0 0 0-5-.7l-1.3-.3-1-.2-1.2-.3-1.4-.2h-.6l-.8-.3c-1-.3-1-.2-1.3 1.1l-.4 1.1v.4s-.2 0-.3-.2c-.2-.3-.2-.6 0-1.8l.4-1.7a27.3 27.3 0 0 0 1-4.8c.3-2.6.4-3.2.6-3.5l.3-1.8c0-.8.2-1.7.3-2l.2-1.3.5-3.4c.5-3 1.2-8.2 1.2-9.3a2 2 0 0 0-.3-.9c-.2-.2-.4-.6-.4-1 0-.8 0-.9-.6-.8l-1 .2-1.4.2c-.4 0-.6 1-.6 3.3a35 35 0 0 1-.7 8l-.1.9a45.6 45.6 0 0 1-1.3 7.9l-.5 2.4-.4 2.4-.2 1a30 30 0 0 1-1 4.3c-.4 1.2-.4 2-.2 2.1.4.2 15.3 0 15.3 0zm10.8 0l-.7-.3c-.3 0-.7-.2-.7-.3h-.5c-.3 0-.6 0-.7-.2-.2-.2-.9 0-.7.3v.4c0 .3 3 .4 3.3.1zm-2.8-1.3l1 .1c0 .1.2.1.2 0 .1-.2.2-.2.3 0l.8.2c.6.1.7.2 1.6.6.4.3.8.3 1.7.2a29.3 29.3 0 0 1 2-.2c.2-.3-1-.6-2.4-.6l-1.6-.2c-.2-.2-2.2-1-2.7-1-.6 0-1.2-.4-1.2-.7l.7-1c.6-.7.9-1 .6-1l-1 .5c-1 .5-1.6 1-1.8 1.5 0 .4 0 .4-2 0-.6 0-.8 0-.8.2 0 .4.6.6 1.7.7 1.1.1 1.2.2 1.3 2l.4-.5c.2-.7.3-.7 1.2-.8zm-24.3.7l.2-.8c0-.5 0-.5-.4-.5a14 14 0 0 1-2.7-.4c-1-.3-1.9-.4-3.2-.6a36.3 36.3 0 0 1-6-1l-3.8-.6a9.5 9.5 0 0 0-2.8-.5c-.6 0-1.2.4-1.2.8 0 .3.2.4 1.3.6a48.6 48.6 0 0 1 3 .5 47.4 47.4 0 0 1 6.7 1.3 43.1 43.1 0 0 0 5.7 1h.7l.4.1.9.1c.6.2 1 .2 1.2 0zm19-1v-.8c0-.3-.2-.4-.7-.4a1076 1076 0 0 0-11.6-1.7c-.3.1-.2.8 0 1 .3.2 1.6.6 2.6.7l1.4.2 1.6.4a290.7 290.7 0 0 1 6.1 1c.4-.1.6-.2.6-.5zm-18.3-1.4c.2-.3.3-.6.2-.7l.1-.3c.2-.2.2-.6 0-.6s-.4.1-.4.3c-.3.4-.4-.1-.2-.6a53.2 53.2 0 0 0 1-1.9c.3-.4.6-1.8.5-2 0-.2-.4-.4-1-.4a113.3 113.3 0 0 1-11.2-2 79.1 79.1 0 0 1-3.9-.6c-.2 0-1.3.9-1.3 1.2l-.2.4c-.2 0-.4.4-.6.7-.3.7-1.1 2-1.3 2l-.1.3-.3.4c-.5.4-.5.8-.2 1l.3.3h.5a55.9 55.9 0 0 0 6 1l.8.3 2.2.2a35.4 35.4 0 0 1 5 1c1.2 0 3 .4 3.1.5.2.2.7 0 1-.5zm-1.8-2.2c-.1-.3-.1-.3-.3 0-.2.3-.4.3-.4 0l-.3-.3H60c0-.3 1.5-2.6 1.7-2.6a84.6 84.6 0 0 0 .3 2.7c0 .7-.4.9-.6.2zm-3.3-.4c0-.4-.1-.5-.4-.2-.1.2-.2.2-.4 0-.1-.1-.3-.1-.4 0-.4.2 0-.7.5-1.3l.6-.8c.3-.3.6-.6.8-.6.2-.1.2 0 .2.6v.8l-.3.9c-.2.8-.6 1.3-.6.6zm-3.2-.7c.1-.4-.1-.6-.5-.2-.2.2-.2.2-.4 0-.1-.3-.2-.3-.5 0-.6.7-.7.3-.1-.5a14 14 0 0 1 2.3-2.3l-.2 1.7-.5 1.6c-.1 0-.2 0 0-.3zm-4.2-.8c0-.4-.2-.5-.3-.1-.1.2-.8.4-.8.2l.6-.7a221.2 221.2 0 0 0 2.3-2.2v.8l-.2 1c0 .4-.4 1-.7 1-.1 0-.3 0-.4.2-.3.4-.5.3-.5-.2zm-2.5-.3c0-.4 0-.6-.1-.5h-.4c-.1-.2-.3-.1-.4 0-.3.5-.6.5-.6.2a8 8 0 0 1 1.9-2l.1-.2c0-.3.4-.4.6 0l-.1.3-.3.8-.2.8-.3.7c-.2.4-.2.4-.2-.1zm33.1 3c0-.5 0-1-.2-1.2v-.3-.4a185.7 185.7 0 0 1-1.3-3l-.4-1-.7.1c-.4 0-1.4 0-2.4-.3a685.7 685.7 0 0 0-5.4-1c-.5 0-.5 0-.7.7l-.9 4.8c0 .5 0 .7.3.7l.7.2a28.4 28.4 0 0 0 4 .7l1 .2 1.5.2a43.6 43.6 0 0 0 4.2.5c.4 0 .4 0 .3-1zm-2.6-1.5l-.2-.7-.3.6c-.4.7-.7.7-.7 0v-.7l-.4.4-.5.6c-.1.2-.2.3-.3.1l.2-.7 1-1.7c.7-1.2 1-1.3 1-.5l.1.6.2.5.1.4.3.9c.2 1-.1 1.1-.5.2zm-4.4-.9l-.2-.8-.3.7c-.3.8-.7.8-.6 0 .1-.7 0-.8-.5-.2-.8 1-.6.2.2-1.1.6-1.1 1.2-1.7 1.3-1.5l.4 1.8c.3 1.2.3 1.6.2 1.8-.2 0-.3 0-.5-.7zm9.4 1.9c0-.2-.4-.2-.6 0l.3.1c.2 0 .4 0 .3-.1zm.4-1.5l-.4-1a8.4 8.4 0 0 1-.4-1.6 91 91 0 0 1-.7-1.8l-.1.8c.2 3.6.4 4.3.8 4.4.4.1.8-.4.8-.8zm1.6.4c.6-.1.7-.5.5-1.2l-.3-.6c-.1 0-.2 0-.1-.2a46 46 0 0 1-2-10.7 40.5 40.5 0 0 1-.4-3.6c0-.2-.4-4.5-.4-6.2 0-1.4-.2-2-.5-1.7l-3 .7h-3.4c-2.6.1-2.7.1-2.6.4.4 1.5.5 3.9.3 5v2.4l.5 1a18.2 18.2 0 0 0 .6 2c0 .3.8 1.3 1.8 2.6l.5.7.4.7.4.6.1.2a124.5 124.5 0 0 0 2.6 5 29.8 29.8 0 0 0 1 2.5l.2.5.2-.4v-2l-.3-1.7a17 17 0 0 0-1-5.7v-.6c0-.3 0-.4-.2-.4l-.4-.3c0-.2-.3-.3-.6-.3h-.5c-.2-.1-.2-.7 0-.9.4-.3.9-.3 1.2 0 .3.2.3 0 0-.3l-.2-.5v-.2c-.2 0-.2-.1-.1-.2v-.2c-.4 0-.4-.9 0-1.7.3-.9.4-1 .6-.4 0 .3.2.6.4.8.2.3.3.5.3 1.7l.1 1.8.2.1.1-.7c0-.5.4-.9 1-.9s.4.7-.3 1c-.3 0-.3 0-.3 1.9 0 1 .2 1.9.3 2l.5 1.7a49.3 49.3 0 0 0 1.7 5.9c.2.7.2.7 1.1.4zm1.8-2.4v-.8H87c-.8-.2-.8 0-.3 1l.2 1c0 .3 0 .3.3 0s.4-.6.4-1.2zm-22.7-2.6v-.6l-1.9-.2a28.6 28.6 0 0 1-3.3-.6 30 30 0 0 1-6.7-1 34.3 34.3 0 0 1-2.9-.4c-.9 0-1 0-1.2.3-.3.5-.3.8 0 .7h.2c0 .2.2.3.5.4l1.3.3h1c.2-.3.3-.3.5 0 .2.2 1.2.4 2.4.5h.5c0 .1.3.2.7.2l.8.2.4.2a70.5 70.5 0 0 1 6.6 1c.8.1 1-.1 1-1zm23 .8l-.3-.3c-.3 0-.4 0-.3.2v.1c-.2 0-.3-.3-.2-.7.1-1.6.1-1.5-.7-1.6-.6-.1-.7 0-.8.1 0 .4.4 2.2.6 2.4.3.2 1.7 0 1.7-.2zM32 146.3a58.7 58.7 0 0 1 4.8-5 73.8 73.8 0 0 0 4.6-5.2c.9-1 1.1-1.5.7-1.6l-1.4-.7-1.4-.5c-.2 0-.3-.1-.3-.2s0-.2-.1-.1c0 0-.2 0-.3-.2a.7.7 0 0 0-.5-.2l-.4-.1-.2-.2-.7-.3-1-.3-.6-.3-.6-.2-.5-.1c0-.1 0-.2-.3-.2l-.3-.1-.3-.3a1 1 0 0 1-.5-.4c-.4-1-.4-1.2-.4-2a194.8 194.8 0 0 0 .7-16.3 219.1 219.1 0 0 0-.5-21.2c-.3-.3-1.2-.5-1.3-.3l-.1 4.5a1934.5 1934.5 0 0 1-.5 32.3 1242.6 1242.6 0 0 1 0 20.4c0 .4.2.2 1.4-1.2zm56.7.4c0-.1 0-.3.2-.4.3-.4.2-.7-.3-.8-.5-.1-.8.1-.6.6l.2.9c0 .4 0 .4.3.1.2-.1.3-.3.2-.4zm-10-.3l-.1-.5-.4-.3-.1-.1c-.2-.2-.7-.4-1.3-.5a136.1 136.1 0 0 1-6-1c-.2.2-.2 1.3 0 1.5l.6.1c1.2.1 2.2.3 2.8.5l1.3.2 1.4.2c.5.2 1.7 0 1.8-.1zm-13-3.3l.4-3.2.1-1-.8-.3a12.8 12.8 0 0 0-3-.5 1619 1619 0 0 1-5.1-.7l-2.2-.4a16.5 16.5 0 0 1-2.5-.4l-.4.9a22.7 22.7 0 0 1-1.2 2.6l-.7 1.3c-1 1.3-.8 2 .2 1.8.3 0 .9 0 1.2.2l1.7.2a5 5 0 0 1 1.4.2l1 .2c.5 0 .9.1.9.2s1 .3 2.4.4c1.2 0 2.3.3 2.8.4l1 .2h.7l.9.1h.8zm-1.7.2v-.8c0-.5-.3-.4-.6.1-.3.7-.6.7-.6 0 0-.5 0-.6-.2-.5-.4.4-.4-.1 0-.7l.6-1c.2-.5.3-.6.6-.6s.4.2.5.8a154.2 154.2 0 0 0 .2 2.9c-.2.3-.4.2-.5-.2zm-4.5-1.2c0-1 0-1-.3-.7-.2 0-.3.2-.3.3 0 .1 0 .3-.2.4 0 .2-.2.2-.4 0-.3-.2-.4-.2-.6.1-.2.4-.4.4-.4 0l2.2-3.2c.4-.4.5 0 .5 1.8 0 1.4 0 1.9-.3 2-.2.2-.2.1-.2-.7zm2.4.6l.1-.3c.1 0 .2 0 .2.2 0 .1 0 .2-.2.2l-.1-.1zm-7-1.2v-.7c0-.4-.4-.3-.8.3-.6.9-.7.9-.6 0v-.5l-.5.6-.8.6c-.3 0-.2-.3.2-.8a10 10 0 0 0 1.2-1.6l.2-.5c0-.5 1.2-1 1.3-.6.2.2.3 3.1.2 3.4-.1.4-.4.3-.4-.2zm34.5 3c.3-.2.5-.8.2-.8l-.6-.1-2-.2c-1.2 0-1.5 0-1.6.2-.2.2-.1.9 0 1a24.2 24.2 0 0 0 1.5.1c.1.2 2.2 0 2.5-.2zm-12-.3c0-.3-.3-.9-2.7-4.2a7.5 7.5 0 0 1-1.2-2.6 5 5 0 0 1-.3-1.4l-.5-.3c-.6-.1-1 .2-1 1 0 .4 0 1.4-.2 2.3l-.4 2.8-.1 1.3 1.1.4a15 15 0 0 0 4.1.7l.7.1c.1.2.6.2.6 0zm-4.6-2.2v-.3-.4c-.2-.2-.3-.2-.5.2-.5.7-.4 0 .2-1.4l.8-1.4c.3-.1.5 0 .5.5l.2.5.2.5.2.6c.2.3.2 1.2 0 1.2l-.3-.5c-.3-.7-.5-.6-.8 0-.2.7-.3.8-.5.5zm17.2.6c.1-.2.2-.4.1-.5 0 0 0-.3.2-.4.4-.5.7-1.3 1.3-3.2.3-1 .5-1.8.4-2l-3.1-.1a31 31 0 0 1-3.5-.3c-.6-.1-1 0-1 .2a34 34 0 0 0 1 6.6 26.7 26.7 0 0 0 4.6-.3zm-1-1.4c0-.4 0-.4-.4-.1-.4.4-.5.2-.1-.7.3-.8.5-1.3.5-2.2 0-.6.5-.7.6 0l.3 1.7c.3 1.5.3 2-.1 1.6-.2-.2-.3-.2-.4 0-.3.3-.4.2-.4-.3zm-3.3-.3l.3-1.5c.3-1 .5-1.2.7-1.2.2 0 .3.2.3.3l.2.7.2 1.1.1.8H87c-.4 0-.6 0-.6-.2l-.2.1c-.2.4-.5.4-.4 0zm-19.3-3.6c.2-.4.2-.6 0-.7l-1.6-.4a203.3 203.3 0 0 0-8-1.1l-1.3-.3c-2.1-.4-2.1-.4-2.4 0-.3.5-.3 1.1 0 1.1l.9.1 1.2.2.7.1 1 .2 1.3.3h.3c.2-.2.3-.2.4 0l1.7.3a2487.1 2487.1 0 0 1 5.1.7c.5 0 .6 0 .7-.5zm-15-.3a17.1 17.1 0 0 0 1.9-5.2 20.6 20.6 0 0 0 1.1-5 106 106 0 0 0 .9-6.7 42.7 42.7 0 0 0 .6-4.3l.5-5.2.4-6.3v-2.7l-.4.3-.8.4-.7.2c-.3.2-.5 1.5-.7 3.5a91.7 91.7 0 0 1-.4 6 47.8 47.8 0 0 1-.7 6.6 62 62 0 0 1-2.1 10.7l-.4 1.3c0 .5-.3 1.3-.9 3.2-.9 2.6-.9 2.8.2 3.4l1 .4s.3-.2.5-.6zm-3.2-1.2c.1-.2 0-.4-.1-.6-.6-.7-1-1.3-1-1.6l-.2-.4a6 6 0 0 1-1.2-2c0-.3-.2-.4-.3-.4 0 .1 0 0 0 0 0-.2 0-.4-.2-.5-.2-.1-.3-.3-.3-.5l-.4-.5a3 3 0 0 1-.4-.8l-.5-.6c-.3-.2-.3-.2-.2.2.1.6.8 2.1 1 2.3.4.4 1.4 2.2 1.4 2.3l.5.9.7 1 .4.6.3.6c0 .4.3.3.5 0zm-1.4-.2s0-.4-.3-.6l-.4-.7-.1-.2-.4-.6-.6-1-.3-.6c0-.2 0-.3-.2-.3l-.1-.3-.4-.6c-.2-.2-.4-.4-.4-.6 0-.2 0-.2-.2 0-.2.1 0 1.1.2 1.1v.3l.3.5.3.5.4.7.4.5.4.7.4.9c0 .4.8.7 1 .3zm20-.8c.2-1 .5-5.7.4-6.1-.1-.3-.2-.4-.5-.4l-1.1-.1a366 366 0 0 0-9.6-1.4c-.7 0-1 0-1 .6a17.4 17.4 0 0 1-.9 3.7v.6a7 7 0 0 0-.6 2c0 .1.1.2.3.2l.8.1 1 .2.8.1a54.4 54.4 0 0 0 9.6 1.3c.5.2.6 0 .8-.8zm-2.5-1v-.6c.1-.4 0-.4-.3-.4h-.4l.4-.8.6-1.4c.1-.4.6-.9.8-.7.1.2.6 2.7.6 3.3v.6l-.4-.4c-.4-.5-.6-.6-.6-.3s-.5.9-.7.7zm-1-.2l.2-.3.1.2c0 .1-.1.3-.3.3-.1 0-.2 0 0-.2zm-6-.4l-.3-.8c-.2-.6-.2-.6-.4-.5l-.2.4c0 .3-.6.8-.7.6v-2l-.4.6-.4.8c0 .3-.2.5-.4.3 0-.2.5-1.6.8-1.9.2 0 .3-.2.3-.3 0-.2.7-1.3.9-1.4.3-.1.3 0 .4.4l.2 1.2c.4 1.6.5 2.3.4 2.5-.1.1-.2.1-.2 0zm4-.4l-.2-.5c0-.2-.1-.4-.3-.4l-.2.3-.2.5H60v-1l-.4.4c-.4.6-.7.4-.3-.3l.4-1.2.2-.4.3-1.1.3-1c.1 0 .3.6.4 1.3l.5 2c.4 1.1.3 1.6-.1 1.4zm24.2 2.8h.6c0-.1.1-.1.2 0h2.8a11.2 11.2 0 0 0 3.1 0c.2 0 .4-.1.4-.4.2-.6 0-1-.5-1-.3.1-6.5-.1-7.6-.2-.3 0-.4 0-.4.6 0 .5 0 .7.3 1h1.1zm-12.4-1.1l.2-2c.1-2.2-.2-3.1-.6-1.3l-.4 2c-.3 1.4-.2 1.7.6 1.9l.2-.6zm-24.4 0c.2-.3.2-.4-.3-1.2a4 4 0 0 0-.6-.9l-.1-.3-.2-.3c-.2 0-.3-.3-.4-.6 0-.3-.2-.6-.4-.7l-.3-.4c0-.2-.6-1.4-.8-1.5l-1.1-2.2-.4-.4-.3-.4c0-.5-.5-.6-.5-.1l.1.4.1.3c0 .3.3 1 .6 1.2l.3.6.3.4c.2.1.3.3.3.4 0 .3 1.3 2.3 1.5 2.3.2 0 .2 0 .2.3-.1.2 0 .7.5 1.4 1 1.5 1.1 1.8 1 2-.2.3.3.1.5-.3zm-4 .1l-.1-.4-.4-.7c-.1-.3-.3-.4-.6-.4-.4 0-.5 0-.4.3v.7c0 .4.2.5.6.5a98 98 0 0 1 1 0zm-2.3-1.3V126.1l-.6-.1-.8-.4a.8.8 0 0 0-.6-.2l-.3-.2c0-.1-.1-.2-.3-.2h-.3l-2.2-1c-1.2-.3-2.2-.7-2.3-.8-.3-.2-1.3-.6-1.4-.5 0 .1-.2 1.1-.2 2.3l-.1 3c-.2 1.2 0 1.7.5 1.8.2 0 .3.2.3.3l.2.1c.3 0 1 .2 2.1.8l1 .4.4.3.5.2 1 .4.7.3s.3 0 .4.2l.9.5.7.3c0 .1.1.2.2.1l.2-.4zm-1.3-2.5l-.3-1-.3.7c-.4.6-.7.6-.7 0 0-.3 0-.4-.2-.4 0 0-.2.2-.1.3 0 0-.1.2-.3.2-.3 0-.3-.1-.2-.5l.3-.8.5-1.1c.3-.7.4-1 .6-.9.2 0 .3.3.3.5l.4 1.3c.2.4.3.9.2 1l.1.3c.3.1.4.9.2 1.1l-.2.2-.3-1zm-3.3-.9a.3.3 0 0 1-.2-.2c0-.3-.9-.9-1-.6-.2.2-.4.2-.4-.1l.2-.7.4-1c.1-1.4.5-1.8.7-1l.4 1.8c.3 1.3.3 2 0 1.8zm-2.8-1.6c0-.2-.2-.3-.4-.2-.2 0-.3 0-.4-.2l-.2-.4c-.3 0 0-1.8.3-2.3.3-.3.5-.2.6.5a6.7 6.7 0 0 0 .3 1.3l.1.7c.1.6-.1 1-.3.6zm57.8 5.3c.2 0 .2-.4.2-.8 0-.6 0-.7-.3-.7-.2 0-.3.1-.4.3-.1.5-.4.4-.5-.1 0-.2-.1-.4-.3-.4a.2.2 0 0 1-.2-.2c0-.3.6-1.5.9-1.8.2-.2.2-.1.3.2 0 .3.2.5.3.5.2 0 .3.3.3.4 0 .2 0 .5.2.6.1.3.2.3.3 0 .4-.9.7-2.7.6-3l-.1-.4-.1-.2c-.1-.2-.3-.2-.3-.2l-1.6.1-7.3-.2c-1-.2-1 0-1 2.7l.2 2.7c.1.3 1.7.5 5.5.5a25 25 0 0 1 3.3 0zm-2.8-1.5c-.1-.6-.3-.7-.5-.1 0 .4-.5.6-.6.2 0-.2-.1-.2-.2 0 0 .2-.5.3-.5.1l.2-.5.2-.6c0-.4.8-1.8 1-1.8l.4.9.4 1.4c.1.5 0 .9-.2.9l-.2-.5zm-5-.1l.4-1.3c.3-1 .9-2.2.9-1.9 0 .2 0 .3.2.3.1 0 .2 0 .2.2l.4 1.8c.3 1 .3 1.1 0 1.1a.2.2 0 0 1-.2-.2c0-.4-.3-.5-.5-.2-.3.4-.6.4-.6 0 0-.3 0-.3-.3 0-.4.5-.4.5-.4.2zm-41.4.8c0-.1 0-.2-.2-.2l-.1.2.1.1.2-.1zm5.7 0c0-.2 0-.5.2-.8.2-.3.3-.9.4-1.3 0-.6 0-.8-.3-1l-.5-1-.3-.4s-.2 0-.2-.2l-.3-.4-.1-.3-.2-.4s-.2-.1-.2-.4c0-.2-.2-.4-.3-.4l-.1-.3c0-.3-.3-.9-1-1.8l-.7-1c-.1-.4-.3-.6-.4-.5l-.1-.1-.5-.8-.6-1.1c-.1-.6-.6-1-.7-.4v.5c.2.2.2.3.1.3l.2.3.6.9a46.7 46.7 0 0 0 1.2 2c.2.7 1.1 2.2 1.4 2.4l.2.4v.2c.2 0 .4.3.5.7l.4.6.5.8.5 1c.2.1.3 1 .1 1-.2 0-.8-.7-.8-1l-.1-.2-.5-.9-.5-.8-.4-.6-.4-.6v-.2l-.1-.3c-.1 0-.2 0-.2-.2 0 0 0-.3-.2-.4a1 1 0 0 1-.3-.6l-.1-.3-.3-.4-.3-.4-.2-.3-.3-.6-.5-.8c-.3-.8-.5-.7-.5.3 0 .7.1 1 .4 1.4.3.3.4.6.4.7 0 .2.1.3.2.3l.1.1c0 .2 1.1 1.9 1.4 2.2.1 0 .2.2.1.3 0 .1 0 .3.3.4l.4.6c0 .5.8 1.7 1 1.7l.1.2.6 1.1c.5.9.9 1.1.9.7zm52.7-2.3h4.5l.4-.6c.2-.7.2-.7 0-.7-.3 0-.5-.2-.5-.7 0-.2 0-.3-.2-.3h-.2l-.2.3c0 .5-.3.7-.6.2-.3-.3-1-.5-.7-.2 0 .1 0 .3-.2.5-.2.3-.2.3-.2 0s.1-.7.3-1l1-2.4c0-.1 0-.2.2-.3.1 0 .3.2.6.9l.2.5.3.7c.2 1.2.4-.2.4-3.2v-1H96.2l-.2.4-.3 2c-.2 2.5-.3 2.8-.5 3.7-.2 1 0 1.3.4 1.2h.7l1 .1 4.7-.1zm-1.1-1.2l-.1-.6c0-.3-.1-.5-.3-.5l-.2.3c0 .2-.1.4-.3.4-.3.1-.3 0-.2-.4l.2-.9.6-1.4c.1-.6.4-1.2.6-1.4.2-.3.3-.3.4.2l.3 1c0 .4.3 1 .5 1.5.4.8.4 1.2 0 1.2l-.3-.5c-.4-.6-.5-.6-.5-.1 0 .3-.5 1.3-.6 1.3l-.1-.1zm-4.7-.5c0-.2.1-.7.3-1l.3-1c0-.2 0-.4.2-.5l.4-1c.1-.6.3-1 .4-1l.3.8a674 674 0 0 0 .7 3.7c-.2.3-.2.2-.4-.3-.3-.6-.6-.8-.6-.4l-.3.5c-.2.4-.2.4-.3 0-.1-.5-.3-.5-.5 0s-.5.6-.5.2zm-45.8-.2l-.1-.6c-.1-.1-.4-.5-.5-.9l-.5-.7-.4-.7-.7-1-.4-.8s0-.3-.2-.4a.7.7 0 0 1-.2-.5c0-.1-.2-.4-.5-.6-.2-.3-.5-.7-.5-1 0-.2-.3-.6-.5-.8l-.4-.7-.2-.3c-.2 0-.5-.6-.9-1.4 0-.2-.2-.4-.3-.4l-.1-.3c0-.2-.1-.3-.2-.3-.2 0-.3.2-.3.6 0 .5.3 1 1 2l1 2c0 .2.3.5.5.7l.3.6.3.5.7 1.2c.2.4.5.9.7 1l.2.3c0 .1.1.5.4.7l.4.7s0 .3.3.5l.3.5c0 .2.3.6.5.6.1 0 .3-.3.3-.5zm27.5-1.1c1.4-.1 3-.5 3-.6 0-.1.2-.2.4-.1.2 0 .8 0 1.2-.2.8-.2 1-.3 1.2-1 .5-1 .5-1.4 0-1.3-.4 0-2.2.7-2.5.9-1.2.7-6.3 1-7.8.3-.4-.2-1.1-.3-1.1-.2 0 .6.4 1.4.8 1.7.4.4 2.3.7 3.3.6l1.5-.1zm-10.6-.5c0-.4 0-.5-.3-.5l-.5-.1a.9.9 0 0 0-.6-.2 2 2 0 0 1-.4 0l-.8-.1-1-.2-1.3-.1-2.4-.4a39.3 39.3 0 0 0-4.2-.5c-.5 0-.5 0-.5.4 0 .6-.2.5 3 .8.4 0 .9.2 1 .3l.8.1.7.2.7.1 1.4.2a22.9 22.9 0 0 0 3.2.5h.6c.5 0 .6 0 .6-.5zm24.8.2c1 0 1.4-.3.9-.5l-.3-.4c0-.4-.6-.4-4.2-.5-1.8 0-3.4-.1-3.5-.2-.2 0-.3 0-.4.5l-.3.6c-.1.3.5.3 3.1.4a40.7 40.7 0 0 1 3.3.2l1.4-.1zm-41.4-.3c.2-.5.1-1-.2-1.4-.3-.3-.4-.5-.3-.5l-.5-1c-.5-.7-.7-1-.7-1.4l-.2-.3a19.7 19.7 0 0 1-2.5-4A9.6 9.6 0 0 1 45 116l-.2-.4-.3-.6c-.3-.7-.8-.8-.8 0 0 .2 0 .4.2.4v.3l.3.7a1550.6 1550.6 0 0 1 2.7 4.6l.1.2c0 .2.8 1.5 1 1.7.2 0 .2.2.2.3l.1.2c.1 0 .3.3.3.5A8 8 0 0 0 50 126l.4.8c.1.5.3.5.4.1zm44-.4l.2-.7a104.6 104.6 0 0 1 .6-5.7c0-.4 0-.5-.2-.5a93.3 93.3 0 0 0-4 1.2c-1.6.3-1.6.3-.8 1.3l.2.4.3.4.9 1c.6 1 1.5 1.8 1.8 1.9.2 0 .3.2.3.4s0 .3.2.3c0-.1.1 0 .1 0 0 .2.3.3.4 0zm-27.5-1c.2-.3.4-1.8.4-4.5v-2.6l-3.4-.6a16 16 0 0 1-1.5-.2l-1.2-.2c-.5 0-1.1-.2-1.4-.3l-1.8-.3-1.6-.3c-.3 0-.5.6-.6 2.2l-.3 2.4-.3 2c-.1.9-.1.9.3 1l.7.2 2.3.3.8.1a191.1 191.1 0 0 1 5.2.8c1.5.2 2.2.2 2.4 0zm-.8-2.7c-.2-.4-.2-.4-.4 0-.2.2-.2.3-.4 0l-.1-.6c0-.2 0-.4-.2-.4l.1-.8.2-1c0-.5.4-.4.7.1.2.6.6 2.1.6 2.6 0 .4-.2.5-.5.1zm-4.5-.5l-.1-.7-.2.5c-.1.7-.3.7-.5.2l-.2-.4-.4.5-.4.4c-.2-.1.3-1.2.5-1.4l.2-.4.1-.3s.2-.4.2-.9c.2-.9.5-1.4.8-1l.1.6c0 .4 0 .7.3 1.7v1.4c0 .7-.2.6-.4-.2zm-4.3-.4c0-.5-.3-.5-.6-.1-.1.3-.2.3-.2-.1 0-.2.1-.4.3-.5l.2-.3c0-.1 0-.3.2-.4a3 3 0 0 0 .6-1.6c0-.4.5-.6.5-.2l.3 1.7.2.7-.1.6c-.2 0-.3-.2-.3-.3 0-.4-.4 0-.5.5 0 .5-.6.6-.6 0zm33.9 3.1c0-.1-.1-.4-.3-.5l-.2-.3-.5-.7-.6-.8-.2-.3c-.2 0-.3-.2-.3-.5 0-.4-.4-.6-1-.5-.2.1-.4.8 0 1v.4l.4.7c.3.4.4 1.2.2 1.2l-.4-.4-.3-.4-.2.4c-.1.3 0 .5.2.7.2.3.4.4 1.7.3 1.3 0 1.5 0 1.5-.3zm-49.3-.1l.1-4.3.1-4.2c.2-.2-.2-.6-1-.9l-1-.4a55 55 0 0 0-5.6-2c-.9-.4-1-.3-1.2.7v1.2c.2.2.2 2 0 5.2 0 1.2.1 2 .5 2s.4 0 1.1.4a23.1 23.1 0 0 0 3.4 1.3l1.8.7c1.8.7 1.7.7 1.8.3zm-1.6-2.5c.1-.5 0-1-.2-1s-.3 0-.3.2l-.3.5c-.3.3-.3.3-.3-.3s-.2-.8-.4-.5l-.3.2c-.2 0 0-1 .4-1.6l.3-.8.2-.5c.3-.2.6 0 .7.5 0 .2 0 .5.2.8l.3 1a61.5 61.5 0 0 0 0 1.6l-.3-.1zm-5.1-2.5c0-1 0-1.2-.4-.7l-.4.3c-.1-.2.2-.9.6-1.2l.3-.3.4-.7.5-.6v.4l.2 1.1.2 1.6c.1.7 0 .9-.1.9-.2 0-.3-.2-.3-.3 0-.3 0-.4-.3-.4l-.3.4c-.3.7-.5.5-.4-.5zm51.7 4.7v-.7c-.1-.3-.2-.2-.4.1l-.4.2c-.1-.2.1-1 .3-1.2.2-.1.5-1 .5-1.1 0 0-.5 0-1.8.4l-.5.7c-.4.7-.4.8-.1 1.4.2.6.2.6 1 .6h.7c.3.3.6 0 .7-.4zm-35.9-.4c0-.4 0-.6-.3-1-.3-.2-.5-.5-.5-.7 0-.2 0-.3-.2-.4a.4.4 0 0 1-.2-.3c0-.2-.1-.3-.2-.3l-.4-.7c-.1-.4-.3-.6-.4-.6 0 .1-.1 0-.1 0 0-.4-.4-1.2-.6-1.2v-.2l-.6-1-.6-1-.1-.2-.2-.1-.3-.6-.6-1-.5-.6-.2-.2c0-.4-.6-1.6-.8-1.7a.5.5 0 0 1-.3-.4c0-.5-.4-.2-.4.3s.1 1.1.5 1.6a24.3 24.3 0 0 1 1.7 2.7l.1.4a29.3 29.3 0 0 1 3.1 5l.7 1.1.4.7.4.6c0 .2.4.6.5.5l.1-.7zm28.8.5l1.2-.4s.1-.1.2 0h.4c.1-.2.5-.3.8-.4l1-.6c.6-.4.7-.9.3-.7l-1 .2-1.6.3a21.9 21.9 0 0 1-4.5.9l-.7.2c-.5 0-1 .1-1.9.4 0 0-.1.2 0 .2 0 .3 4.7.2 5.8 0zm-9.6-.2l1.4-.2a47 47 0 0 0 8.2-1.6 41 41 0 0 0 7.8-1.9c1.6-.3 1.8-.3 2.8-.7 1.1-.5 2.7-1 3.2-1h.3c0-.2.3-.3.6-.4.6-.1.7-.2.7-.6 0-.3 0-.4-.5-.6-.8-.3-1.7-.2-3.4.4a25.6 25.6 0 0 1-4.3 1l-1.3.5a65.2 65.2 0 0 0-3.7 1l-.9.2-.5.1-1 .3-1 .3a152.8 152.8 0 0 0-8 1.5c-2.8.7-2.7.6-2.6 1.5 0 .7-.2.6 2.2.2zm-1.2-1.8l1-.3a25.8 25.8 0 0 0 5.1-1l.6-.2.6-.3 1.9-.5 2-.4a15 15 0 0 0 1.8-.5l1.7-.4a54.3 54.3 0 0 0 7.6-2.3c1.7-.5 1.9-.6 1.4-1.3l-.5-.6s-.4-.3-.7-.8c-.3-.5-.6-.8-.7-.8l-1.3-1.3-1.3-1.3.2.8a225.6 225.6 0 0 1 2 4s-.2 0-.4-.4l-.4-.6-.3-.4c-.2 0-.3-.3-.3-.4 0-.2-.1-.3-.2-.3l-.1-.2-.5-.7-.5-.8-.4-.6-.4-.6c0-.3-.9-1.4-1-1.2-.2.1.2 1.6.4 1.6a61.5 61.5 0 0 0 2.1 4.5c.2.5.1.9-.2.7l-.5-.8a32.4 32.4 0 0 0-1.4-2.9l-.6-1-.1-.3s0-.3-.3-.6l-.3-.9c0-.2-.4-.3-.5 0-.1.1.3 1.1 1 3l.5 1.2.3.7c.9 1.2 1.2 2 1 2.2-.2.1-.3-.2-.6-.8l-.6-1-.6-1.2-.6-1.2-.3-.6c0-.3-.2-.8-.4-1l-.3-.8c0-.4-.4-.5-.5-.2 0 .3.6 2.3 1.7 4.9.5 1.1 1 2.3 1 2.6 0 .4 0 .5-.2.2l-.5-.8-.5-1.2a3 3 0 0 1-.3-.9c0-.1 0-.3-.2-.3l-.4-.8a41.6 41.6 0 0 0-1.7-3.7c-.3 0-.3.4-.1.8l.5 1.5.5 1.3.2.9c0 .4.1.7.2.7 0 0 .3.4.4 1l.4 1.1v.5c-.1.3-.1.3-.2-.1 0-.3-.2-.5-.4-.5s-.3-.4 0-.5c.2 0 .2-.1 0-.1s-1.3-2.3-1.3-2.8l-.3-1a12 12 0 0 1-.6-1.8c-.3-.6-.4-.7-.8-.7-.5 0-.5.2-.1 1.1a32.6 32.6 0 0 1 1.2 3.7 688 688 0 0 1 .5 2.4c0 .3-.1.3-.2 0 0-.4-.2-1-.8-2.3l-.4-1-.8-2.5-.1-.5c0-.7-.8-1.1-1.2-.6v.7a22.5 22.5 0 0 1 1.3 4.5c.3.5.7 2.2.7 2.6 0 .2 0 .2-.2 0l-.2-.4-.4-1-.4-1.2c0-.2 0-.4-.2-.5l-.1-.4a24.4 24.4 0 0 0-1.3-4c-.2-.6-.6-.3-.6.3s0 1 .6 3a27 27 0 0 1 .6 2.8c.3.2.2.6-.1.6-.2 0-.3-.2-.3-.4a4 4 0 0 0-.3-1.1c-.5-1-.8-2.5-1-3.8 0-.6-.1-1.1-.3-1.2-.5-.5-.6 0-.3 1.7a1044.7 1044.7 0 0 1 1 6.3v-.4l-.2-.6-.6-2.1a14.6 14.6 0 0 0-.7-2.5c0-.1 0-.7-.2-1.3-.1-.8-.2-1-.4-1h-.4c0 .2.1 1.5.8 5 .4 1.8.6 3.2.5 3.3 0 .2-.1.2-.3-.1a18.7 18.7 0 0 1-.7-3.7l-.4-1.4a18 18 0 0 0-.6-2.6c0-.3-.2-.5-.3-.5-.3 0-.3 0 0 2a14144 14144 0 0 0 .7 6.7c0 .2-.1.2-.1 0v-.3l-.3-1-.1-1v-.3c-.2 0-.3-.7-.4-1.4a32 32 0 0 0-.7-4.2s0-.2-.3-.2c-.1 0-.2 0-.2.2l.3 2.6a17.8 17.8 0 0 0 .5 3.3l.2 1.2c0 .3 0 .4-.2.4s-.7-1.6-.6-2.1v-.2c-.2 0-.2-.2-.2-.4a47.2 47.2 0 0 0-.8-5c-.3.1-.3.5-.1 4.3v2c-.3-.3-.6-1.5-.7-3 0-2.4-.2-3.1-.5-3.1-.2 0-.2.2-.1 1.5.2 3.4.2 6.9 0 6.9l-.4-2a48.8 48.8 0 0 0-.6-6c-.2 0-.3.4-.3 1.5a336.5 336.5 0 0 1-.3 4.5 612 612 0 0 1-.4-3.7l-.2 4.6c0 3.8 0 4 .2 4l.7-.2zm-17.5-.9l-.3-.9-.3-.5-.6-1a5 5 0 0 1-.5-1l-.5-.6c-.3-.3-.5-.6-.5-.8l-.1-.2-.4-.6c0-.3-.2-.6-.3-.6l-.1-.2-.2-.3-.7-1.2-.7-1-.5-1.1-.8-1.2a5 5 0 0 1-.5-1c-.4-.8-.5-.8-.7-.4-.3.5.4 2.3 1.1 3.2.4.4.8 1.1 1.3 2.3l.5 1a24.4 24.4 0 0 1 2.4 3.7l1.2 2.1.5.6c.5.6.7.5.7-.3zm50.7.6l4.4-.1c.3-.2.5-.7.3-1h-4.1a4 4 0 0 0-1.3 0h-1.3c-4.2 0-4.4 0-4.3.8 0 .3.2.3.9.4h5.4zm-2.8-1.8l1.3.1h.3c.2-.2.3-.2.3 0h.5a9 9 0 0 1 3.1 0c0 .2.2.2.2 0l.9-.1c.7 0 1.2-.3 1-.6l-.3-.2c-.1 0-.4-.2-.5-.5l-.3-.5-.2.5c0 .6-.6.7-.7.1-.1-.4-.6-.6-.6-.2 0 .3-.3.5-.5.3l.2-.9a8.1 8.1 0 0 0 .6-2l.3-.8.2-.4.4.7.3.8v.2l.5 1c.1.5.3.9.4.9 0 0 .1 0 0 .2a27.3 27.3 0 0 0 .2-5.5c0-.3-.3-.5-.6-.5a75.9 75.9 0 0 0-10.3 0c-.2.4 0 7.2.2 7.4 0 .2.4.2 1 .2l2.1-.2zm.4-1.4c0-.7-.4-.8-.7-.2l-.4.4c-.2-.2-.1-1 .2-1.4l.4-.9c.2-.6.8-1.7 1-1.7.2 0 .3.2 1 1.4 1 2.2 1 2.3.8 2.6-.2.3-.2.3-.4 0l-.3-.6c0-.1 0-.4-.2-.6-.2-.2-.2-.2-.6.6-.4 1-.8 1.1-.8.4zm-48 .4l-.4-.9-1-1.4-.6-1-.3-.3-.6-1.3-.7-1.3c-.1-.4-.6-.3-.5.1 0 .4.3 1.1.5 1.3l1 1.6c0 .1 0 .2.2.3l.2.4c0 .2 0 .4.2.5l.5.7.6 1c.3.3.4.6.4.7 0 .4.4 0 .5-.4zm.2-1.8c0-.2-.1-.4-.3-.5l-.5-1c-.1-.5-.3-.9-.4-.9l-.1-.2c0-.1-.1-.4-.3-.5-.3-.3-.5-.8-.8-1.4 0-.2-.3-.4-.4-.4l-.2-.1c0-.2-.3-1.2-.5-1.2 0 0-.2-.2-.2-.5v-.3c-.1 0-.3-.2-.5-.6l-.8-1.4-.3-.6s0-.2-.3-.4l-.3-.6-.5-1a7 7 0 0 1-.7-1c0-.4-.3-.4-.3 0 0 .3.3 1 .5 1v.3l.5 1 .5 1a29.7 29.7 0 0 0 2.7 4.7l.4.8.6 1.2.6.9c.2.1.3.3.3.5l.2.3c.2 0 .3.2.3.3 0 .2.5 1 .6 1l.2-.4zm15.3-.6v-.6c0-.4-.2-.4-1.4-.6l-2.3-.3-2.4-.3a25 25 0 0 0-4.7-.6c-.2 0-.3.3-.3.6s0 .4.8.5l1.8.3 1.3.3 1 .1a21.8 21.8 0 0 0 5.4.9c.5 0 .8-.1.8-.3zm27.8-1.8l-.1-.5-.7-.4-1-1c-.3-.2-.5-.5-.5-.6v-.1c-.3 0-1.5-1.3-1.4-1.5 0-.1 0-.3-.2-.4-.2-.1-.2-.1.1-.1l.3.1c-.1.1.4.6 1.2 1.3l.8.7c.5.4 1.2.8 1.4.6.2-.2-.8-1.4-1.2-1.4v-.1l-.4-.5-.5-.5c0-.2-.1-.3-.3-.3l-.3-.1c.1 0-.1-.3-.4-.5l-.7-.7-.3-.3c-.1.1-.3 0-.5-.4l-.6-.5-.5-.5c-.3-.5-.8-.7-.8-.2l.4.8.5 1 .3.2s.3 0 .5.2c.2.1.4.2.4 0l.1.4c.2.7.1.8-.5.3l-.6-.3c-.2 0-.1.1 0 .1.2 0 .3.1.2.3A92 92 0 0 1 93 114c2.2 2.5 2.2 2.5 2.3 2.2l.1-.8zm-43 .4c.1-.1.1-.3 0-.4l-.1-.5-.3-.4c-.2 0-.3-.2-.3-.4v-.2c-.2 0-.2-.1-.2-.3 0-.2-.1-.4-.3-.4l-.2-.3-.3-.7-.8-1.4a17 17 0 0 0-1.2-2.2 18.5 18.5 0 0 1-1.8-3.6l-.5-.6c-.2-.4-.5-.7-.6-.7 0 0-.2 0-.2-.2 0-.1-.4-.4-.6-.2 0 0 0 .2.2.3l.3.4c0 .3.6 1.6 1 2.4a28.8 28.8 0 0 1 2.1 3.5l.3.4c0 .3.1.4.2.4l.2.2a35.3 35.3 0 0 0 2.8 4.9c0 .4.2.4.4 0zm15-.5c.2-.2.2-5.8 0-6.9v-.8h-1a49 49 0 0 1-5.3-.4l-1.9-.2c-1 0-1.3 0-1.3-.2-.2-.6 0-.6 1.7-.5a318.3 318.3 0 0 0 5.8.5l2 .1v-.7c0-.7-.1-.8-1-.7l-.4-.1c0-.1-.4-.2-1.1-.1l-1.5-.1-2.7-.2c-2.6-.2-3-.2-3 0a40.5 40.5 0 0 1-.4 4.4c-.5 3.2-.6 4.4-.4 4.4v.1c0 .2.2.3 1 .2.3 0 .5.1.5.2h.2l.5.1 1 .3 1 .2.2-.1c.1-.2.9 0 1.1.2l1.2.1 1.4.2h2.4zm-2.9-2.3l.5-.9.5-1c0-.2.6-1.2.8-1.2l.2.8c0 .4.2.9.3 1 .2.2 0 .8-.2.6l-.4.3c-.2.3-.2.3-.6.1-.4-.1-.5-.1-.7.1-.2.3-.4.4-.4.2zm-4-.6c-.1-.4-.2-.4-.6 0-.2.2-.2.2-.2 0 0-.3.6-1.3.7-1.3l.5-1.2c.4-1.4.6-1.3.8.1 0 .6.3 1.3.5 1.7l.3.8c0 .4-.5.3-.7-.2-.3-.4-.6-.4-.6 0 0 .5-.6.6-.7.1zm-2.3-2.5c0-.4.2-.8.4-.8l.1.6c0 .4 0 .5-.2.5-.1 0-.3-.1-.3-.3zm-15.7 4.6c0-.4-.1-.5-.8-.8-.4-.3-1.2-.6-1.9-.8a8 8 0 0 1-1.5-.6l-.5-.1-.2-.1c0-.1 0-.2-.2-.2s-.4 0-1.4-.5a2 2 0 0 0-.7-.2l-.3-.1-.5-.2c-.4 0-.5-.2-.1-.5.2-.2.3-.2.4 0 0 .2.3.3.7.3.3 0 .5.1.5.2l.3.2a17.2 17.2 0 0 1 3.8 1.2l1.3.4 1 .3c.4.2.5-.3.5-1.8l.1-1.9.2-1.8c0-.9.1-1.6.2-1.6 0-.1-.3-1-.5-1l-.6-.3a4 4 0 0 0-1-.3l-.9-.3a17.7 17.7 0 0 0-2.4-1l-1-.3a2 2 0 0 0-1-.3 1 1 0 0 1-.5-.2c-.5-.2-1.3-.4-1.5-.2l-.1 4.6a79.6 79.6 0 0 1 0 5l.2.4.5.1a9 9 0 0 0 3.3 1.3 45 45 0 0 1 1 .3l1.3.5 1.2.4c.1 0 .3.1.4 0 0 0 .2 0 .3.2l.4.1v-.4zm-.6-4c0-.7-.3-1-.5-.4 0 .4-.4.4-.6 0l-.2-.4-.2.4c0 .2-.2.3-.3.3-.2 0-.1-.5.2-1l.7-1.4c.6-1.2 1-1.2 1 0 0 .4 0 .9.2 1 .2.3 0 2-.1 2-.2 0-.2 0-.2-.5zm-3-1c0-.7-.2-.8-.5-.4l-.3.4-.1-.4c0-.2-.2-.4-.3-.4-.4 0-.3-.5.7-2.6.5-1.1.6-.8 1 3.3.1.6.1.7-.2.7-.3 0-.3-.1-.3-.6zm-2.5-1.1c0-.2-.2-.3-.3-.3-.2 0-.4-.1-.5-.3H35c-.4.3-.5.3-.5 0l.1-.4.4-.6c0-.3.2-.6.3-.6l.2-.6c.2-.9.7-.9.9 0 .2 1.7.2 3.1 0 3.1l-.1-.3zm32.2 5.2l-.1.3c0 .2 0 .2 0 0v-.3zm-16-.3a9 9 0 0 0-1.4-3l-.3-.7-.5-1-.3-.7-.3-.5c-.6-.7-1-1.2-1.5-2.2-.5-1.1-.8-1.5-1.1-1.2-.1.1 0 .7.6 1.7l.6 1.2c.2.6.5 1 .6 1l.1.3c0 .2 0 .4.2.5l.4.6c0 .3.4.8.6 1.1l.4.8.1.2.3.4c0 .4.5 1 1.2 1.8l.4.3-.1-.6zm16.2-.6c0-.2 0-.4-.2-.4v.5c0 .7.2.7.2 0zm30.5-.4a119.6 119.6 0 0 0 7.9-.3c.2-.8 0-1-1.9-1h-2a105.4 105.4 0 0 1-7 .2c-.2 0-.2.2-.2.5.2.5.4 1 .6.7h2.6zm-51.5 0l-.3-.4-.3-.4-.1-.5a40.6 40.6 0 0 1-1-1.9c-.2-.1-.7-1.4-.6-1.6 0 0-.1-.2-.3-.2-.2 0-.4-.3-.4-.6l-.3-.6c-.3 0-.3 1.1 0 1.4v.5l.1.2c.1 0 .4.4.5.8a18.1 18.1 0 0 0 2 3.2c0 .1.1.2.4.2l.3-.1zm47.5-.6c.2-.3.1-.8-.1-.9-.2 0-.6-.5-1-1l-.9-.7-.7-.6-.7-.6c-.2 0-.3-.1-.4-.3 0-.1-.1-.2-.3-.2l-.5-.5c-.2-.3-.5-.5-.6-.5l-.5-.3-.6-.5c-.3 0-.4 0-.3.2l.1.6c0 .2.1.3.3.3l.6.4a34.3 34.3 0 0 0 4.8 4.3c.3.5.6.6.8.3zm-42.4-1c0-.3-.1-.6-.3-.7l-.2-.4c0-.1 0-.3-.2-.4l-.5-.7-1.2-2.1-.7-1.5c0-.3-.2-.5-.4-.6-.5-.1-.7.1-.3.6l.3.5a8 8 0 0 0 1.1 2.3l.7 1.3.5.7v.3l.5.7.4.7c0 .2 0 .2.2 0 .2-.1.2-.4.1-.7zm18.3 0l.5-.2.9-.1c.5 0 .7-.1.9-.4.2-.4.2-.5 0-1-.3-.7-1-3.5-1.1-4.4l-.8-3.3c-.2 0-.3.3 0 1.6a22.8 22.8 0 0 1 .3 2.4c0 .4 0 1.2.2 1.8.3 1.9.3 2.3.2 2.4-.2 0-.4-.3-.5-.8v-.6a62 62 0 0 1-.7-4.2c0-1-.5-2.4-.7-2.4-.2 0-.2.1-.1.5.2 1 .3 1.3.3 2l.1 1.1c.3 1.4.3 4 .2 4l-.3-.8a41 41 0 0 0-1-5.5 52.1 52.1 0 0 1 .6 6.8c-.3.2-.5-.5-.7-2a38.1 38.1 0 0 1-.6-2.9c-.1 0 0 3.9.2 4.6 0 .2 0 .3-.2.3s-.3-.2-.3-.5l-.1-.4c-.2 0-.2 1.5 0 2 .2.2.3.2 1.3.2l1.4-.2zm27.7-.2c1.5-.1 1.8-.3 1.6-1 0-.5 0-.5-.2-.2 0 .2-.2.5-.3.5-.4.2-.1-1.4.3-2.3l.2-.7c0-.2 0-.5.3-.8.2-.4.3-.4.4 0l.5 1.3c.8 1.8 1 2.2 1 2.7s-.2.4 2 .5l2.2-.1c.3-.2.3-.3.3-1.5a21 21 0 0 0-.5-4.2l-4.4-.3a220.7 220.7 0 0 1-5.7-.2c-.3 0-.3 0 0-.3.2-.2.6-.3 3-.3a161 161 0 0 1 6.2.2c.8 0 .9 0 1-.6v-.5h-1.2a118.8 118.8 0 0 0-9.6-.1v2.6l.1 2.6c0 2.9 0 3 1 2.8l1.8-.1zm-2-.6c0-.5 0-.8.2-1h.3c.1.2 0 1-.3 1H97zm7.7-.2c0-.8 0-.9-.5-.4l-.6.4v-.3c.2 0 .3-.1.3-.2l.3-1a204.6 204.6 0 0 0 1-2c0 .3.2.5.3.6l.2.2.5 1.3.5 1.4c-.1.4-.6-.7-.6-1.2 0-.3 0-.3-.3 0-.2.1-.3.3-.3.4v.6c0 .3-.2.4-.4.4s-.4 0-.4-.2zm-6.8-.6l-.2-.4c-.2 0-.1-2.6.1-3 .3-.3.4-.1.8 1.1l.4 1.3c.2.4.2 1.5 0 1.5l-.2-.5c0-.6-.2-.6-.5 0-.1.6-.4.6-.4 0zm4.3 1l-.1-.7c0-.4-.4-.7-.6-.5-.2.3-.3 1-.2 1.3l.5.2c.5 0 .5 0 .4-.4zm-25.4-.3a45.8 45.8 0 0 0 5.3-.8c.2.1 2.4-.2 3.4-.5.9-.2 1-.6.2-1.4l-.4-.8c0-.2-1.3-2-1.5-2.2-.2 0-.2-.1-.2-.2.1-.2-1.2-2.8-1.7-3.4-.6-.7-.7-.2-.3 1.2l.5 1.4.2.5c0 .2.2.8.5 1.3l.4 1.2c0 .5-.4.3-.7-.5a74.2 74.2 0 0 0-1.2-2.7l-.1-.5-.3-.7c-.3-1.2-1.3-2.1-1-1a23.5 23.5 0 0 0 1 3.5l.6 1.4c.4 1.1.4 1.5 0 1.1-.2-.1-.3-.3-.3-.4l-.4-1-.4-1.1c0-.2 0-.3-.2-.3l-.1-.3-.4-1.2-.4-1-.2-.6c-.3-.6-.7-.5-.6 0 0 .4.9 3.5 1.1 4.1l.6 2.4c.1.8-.4.8-.5 0l-.2-.6-.4-1c-.4-1.8-1.5-4.9-1.6-5-.3 0-.2 1.2.2 2.9a48.5 48.5 0 0 1 .8 3.1c.3.8.3 1.2 0 1.2l-.3-.9-.3-.8-.4-1c0-.6-.2-1-.3-1l-.1-.5c0-.6-.5-2.5-.7-2.8H76c-.2 0-.3.2-.1.3v.4l.1.3.3 1 .2 1 .4 1.7.4 1.5v.5c-.2.4-.4.2-.5-.4l-.6-2-.6-2a197.2 197.2 0 0 0-.8-2.4 86 86 0 0 1 1.3 7.5c-.1.2-.3-.2-.6-1.2a27.7 27.7 0 0 0-1-3c0-.9-.5-2.8-.7-2.8-.2 0 .1 2.6.5 4.4a66 66 0 0 1 .3 2c-.2 0-.3-.3-.3-.4a15.9 15.9 0 0 1-.9-3.5l-.2-1.1-.2-1c0-.4 0-.5-.2-.5s-.2.1-.2.5a48.3 48.3 0 0 0 1.4 7.8c0 .5.2.6 1.2.5l1.5-.2zm18.6-.3c0-.4-.4-1-.7-1.2-.8-.5-1.2-.9-1.2-1 0-.1-.2-.3-.4-.3l-.7-.6-.7-.6c-.2 0-.3-.2-.2-.3 0 0 0-.2-.2-.3-.1 0-.2 0-.2.2l-.6-.6-.8-.7c-.2 0-.7-.4-.5-.4 0 0 .2 0 .2-.2H89c-.3.2-.3.3-.3.6.1.5.6 1.1.8 1.1l.4.3c0 .2.3.4.4.4 0 0 .4.2.6.5l.7.5c.1 0 .2 0 .1.2 0 .2.2.4.6.6L94 109c1 .9 1.4 1 1.4.6zm-42.5-2.1l-.2-.4-.2-.5c-.3-.2-.6-.7-.7-1l-.5-.8a.4.4 0 0 1-.2-.3c0-.2-.4-.3-.6 0l.1.3 1 1.8 1 2.2.5.7v-.9c0-.6 0-.9-.2-1.1zm36.6 1.7h-.1l-.2.1c0 .1 0 .2.2.1l.1-.2zm-1.5-3.6v-2l-2.6-.4c-.5 0-1 .1-1 .3l.5.6.4.6.5.8c.3.3.6.6.6.8l.1.2.4.4c.3.7.8 1.1 1 .9l.1-2.2zm7.3 1.8c0-.3-.1-.6-.4-.7l-.6-.6-.4-.5c-.2 0-1.3-1-2.4-2-.4-.5-1-1-1.2-1l-.8-.7c-.4-.4-.6-.4-.7 0-.2.6.4 1.3 2.1 2.5.3.1.4.3.4.6l.2.1.2.3c0 .2.1.2.3.2 0 0 .3 0 .5.2.1.2.3.3.4.3l.4.3c.1.3 1.7 1.6 2 1.6v-.6zm-42-1.5a2 2 0 0 0-.6-.9 2 2 0 0 1-.4-.8c0-.2-.2-.4-.3-.3-.2.1 0 .8.4 1.1.2.2.3.4.2.5-.1.2.4 1 .6 1v-.6zm41.8-.6c-.1-.3-.5-.8-.8-1a31.6 31.6 0 0 1-1.4-1.4l-1.3-1.3a6.3 6.3 0 0 0-1.6-1.3l-.6-.1c-.3-.1-.3 0-.3.1 0 .4.7 1.3.8 1.2h.1c0 .2 0 .3.2.3l.6.4c.2.3.5.5.6.5 0 0 .3 0 .4.3.2.2.4.5.6.5.1 0 .3.2.3.4 0 .1.1.2.3.2.1 0 .6.3 1 .8 1 1 1.5 1.2 1.1.4zm-50-.5c0-.1 0-.2-.2-.2l-.3.2.2.2.2-.2zm22.3 0a34 34 0 0 0-.8-9.4c-.2-.2-1.2.2-1.4.5 0 .1-.3.3-.5.3l-1.5 1a18.5 18.5 0 0 1-3 2.2c-.5.3-1 .7-1.3.7-.8.3-1 .7-1.1 2.4-.1 1.8-.2 1.7 1.3 1.9a79.5 79.5 0 0 0 8.3.4zm-3.3-2l.2-.5c.2-.2.7-1.4.7-2 .1-.7.4-1.2.6-1.2l.1.2.3.7.2.8c0 .2 0 .3.2.3l.1.3c0 .1.1.5.3.7.2.5.2.6 0 .7-.3.2-.5.1-.7-.3l-.1-.4-.3.4c-.3.3-.4.3-.5 0-.2-.3-.6-.2-.6.1 0 .2-.4.7-.5.7v-.5zm-1.7-.2v-.6c.1-.3-.2-.3-.4 0-.1.2-.4.4-.7.4h-.6c0-.3 1-2.3 1.2-2.5.2-.3.2-.3.3 0l.2.6.3 1 .1 1c.2.4-.2.5-.4.1zm-9 1.4c0-.4 0-.6-.3-.5-.1.1 0 .8.2.8.1 0 .2-.1.2-.3zm41.8-.1a5 5 0 0 0-1.7-1.8l-.4-.3c-.2-.3-.2-.3-.2 0s.3.5.5.5c.2.1.4.2.4.4A6 6 0 0 0 95 104v-.2zm-51.6-.2c.1-.2-.3-.8-.6-.8-.1 0-.5 0-.8-.2l-1.7-.7-1.9-.6-.6-.1-.4-.2s-.3-.2-.7-.2a3 3 0 0 1-1-.4c-.4-.3-1.4-.5-1.7-.3-.4 0 0 .7.4.7l.3.2 1 .4c.5 0 1 .2 1 .3l.3.1.4.2c0 .1 0 .2.2.1h.3c0 .2.3.2.5.2l.5.2.7.3 1 .3 1 .3c.4 0 .8.2.8.3.2.2.8.1 1 0zm6.9-.3l-1.4-.6c-.5-.2-.6-.3-.6-.5 0-.1.2-.2.5-.1l1.5.4c.3.2 2.7.2 2.6 0h-.2l-1.5-.8-1.3-.7h.7c.4 0 .9.2 1.1.3.9.4 1.8.5 2.7.4l1-.1c.3-.2 0-.4-.3-.4a2 2 0 0 1-.9-.4 2 2 0 0 0-.8-.3.9.9 0 0 1-.5-.3.8.8 0 0 0-.5-.2l-.9-.4c-.7-.5-.7-.4-.4-.6h.3l1 .3.8.4.6.2c.3 0 .6.2.7.4.3.2 2.4.4 2.6.1.2-.2-.4-.7-1-.8l-1.3-.6c-.2-.3-1.2-.9-1.4-.9-.1 0-.4-.1-.6-.4l-.6-.4-.7-.3c-.6-.3-1.6-.5-1.8-.2-.1.2-1.2.2-1.2 0l.3-.3c.3-.2.2-.2-.2-.4-.9-.3-.9-.9 0-.7.6 0 .8 0 1.2-.3.3-.3 1-.6 1.4-.7l.9-.5c0-.2.3-.2 1-.2.6 0 1 0 1.4-.3l.5-.4h-1c-.9.1-1.5-.1-1.3-.5.1-.3.7-.3.7 0 0 .1.9 0 1.3-.2.7-.4-1.6-.6-3-.2l-1.5.4-1.9.8c-.6.4-1.4.7-2 .9-.8.2-.8.2-1 1l-.8 6c0 1.1.2 1.7.7 1.5.2 0 .2 0 .1.1v.2c.2 0 .3 0 .3-.2h.4c.5.4 4.3.8 4.3.5zm-4.5-2l.4-.4c.2-.2.3-.2.3 0 0 .3-.1.4-.3.5-.3.2-.5.1-.4-.1zm1.8-2.4c-.2-.3 0-.4.5-.4.3 0 .4 0 .3.3 0 .4-.5.5-.8.1zm40 3.3c.3-.7.2-.8-4.2-1.3-.4 0-.4.3.1 1 .4.4.6.5 1 .4h.5l1 .1.9.1c.2.3.7 0 .8-.3zm-44.1-.2a19.4 19.4 0 0 1 .4-3.4c0-1.2.4-3.5.5-4 .4-.8.2-1.1-.4-1.3-.3 0-.5-.1-.5-.2l-.4-.2-.4-.1s-.2-.2-.4-.1c-.6 0-1.3-.2-1.5-.4-.1-.1-.3-.1-.4 0-.1 0-.3 0-.4-.2l-1-.3-1.1-.2-1.3-.3a3 3 0 0 1-.9-.2c-.3-.2-1.6-.3-1.9-.2a78.7 78.7 0 0 1 0 5.2c0 .7.3.5.7-.6.4-1.1 1-2 1.1-1.8l.4 2 .2.6c0 .3 0 .5-.2.8-.2.3-.2.3-.3 0-.2-1-1.8-.5-1.8.4v1c-.1.5.3 1 .8 1 .3 0 .5 0 .5.2l.4.1 1.8.7h.4c.1-.2.2-.2.2 0l1.2.4 1.4.4.7.3 1 .3c.4.2 1.2.3 1.2.1zm-1.2-3c0-.5-.1-.5-.5-.5l-.6-.1c0-.2-.1-.3-.3 0-.4.3-.6-.1-.3-.5l.4-.5.2-.7.3-1c0-.3.2-.6.3-.8.3-.2.3-.2.6 1.8 0 .7.3 1.5.4 2 .2.5.2.7 0 .8-.3.2-.4.2-.5-.4zm-3.6-.4l-.2-.9v-.6l-.4.3c-.3.5-.5.5-.7 0 0-.3 0-.3-.4.2l-.4.5c-.2 0 .1-1.2.5-1.8l.5-1 .3-.8c.2-.5.3-.6.5-.4.3.4.9 4.7.5 4.7 0 0-.2 0-.2-.2zm63.3 3.1l.7.1c.2.1.3.2.4.1.1-.1 2.6-.2 2.6 0s.4.1.7-.2c.2-.3.3-.6.2-1.6l-.3-2.5a83 83 0 0 1-.5-4c-.1-1-.3-1.3-.9-1.3a22.7 22.7 0 0 1-4.2-.5 35 35 0 0 1-5-.5H95v1.6l.3 2.8a45.5 45.5 0 0 1 .4 5.5l.1.6h3.5c.3.2 1.7.1 2.7 0zm2.9-1.6l-.1-.7c0-.6-.5-.5-.8.2-.2.6-.5.6-.5 0 0-.8-.2-1-.4-.4l-.5.5c-.3 0-.3-.3 0-1 .2-.2.4-1 .7-1.8.4-1.4.6-1.7.8-1.2l.2.6.1.6.4 1c.5 1 .7 2.4.4 2.4-.1 0-.3 0-.3-.2zm-6-.6l-.1-.8c0-.5 0-.7-.3-.7s-.3-.3.1-2 .7-1.8 1-.4c0 .5.4 1.5.7 2l.5 1.5c0 .6-.4.4-.6-.2-.2-.7-.5-.6-.7.1-.2.5-.4.8-.6.5zm-1.4-.3c0-.1 0-.2.2-.3l.1.2-.1.2-.2-.1zm-28.3 1.6h1.1l1.2-.2a40.5 40.5 0 0 0 5-.7l2.7-.3c1 0 2-.3 2-.6l-.3-.4c-.2-.3-.3-.3-2-.1a157.3 157.3 0 0 1-6.6 1l-1.8.2-1.3.2a4 4 0 0 0-1.2.3c-.2 0-.2.7-.1 1 0 0 1.2-.2 1.3-.4zm25.3-.1c.2-.2.2-.2-.1-.5-.4-.4-.4-.4-.1-.6.3-.2.2-.2-.1-.7-.4-.5-.6-.5-.6-.2l.1.3c.2 0 .2.2 0 .5-.1.2-.1.2-.3 0-.1-.2-.2-.2-.3 0-.2.2-.2.2 0 .3l.6.5c.4.6.5.6.8.4zm-8.5-.3l.3.1c.4.2 1.4 0 1.4-.3 0-.2-.2-.3-.4-.4-.6-.1-1.3-1-1.4-1.7l-.7-2-.2-1.5c0-.7-.2-1.4-.3-1.6-.1-.2-.3-.7-.3-1.1 0-.6 0-.8-.2-1l-.4-.5c-.4-.8-1-1-2.2-1l-1.4.1a12.6 12.6 0 0 0 .5 5.2l.6 2.1c.4 1.5 1 2.9 1.3 3.2.2.1.8.3 1.3.3.6 0 1.1.1 1.1.2h1zm-3-3.7c0-.6 0-.7-.2-.7-.1 0-.3 0-.3.2-.1.1-.2.3-.4.3s0-.5.8-2l.4-.9c.2-.6.7-.7.7 0l.3 1.6c.4 1.5.5 2 .3 2.1-.2.1-.3 0-.4-.4-.2-.7-.4-.8-.6 0-.1.2-.3.5-.5.5-.2.1-.3 0-.2-.7zM59.4 99l1-.8.6-.3c.4-.2 2-1.3 2.2-1.7l.3-.2a6 6 0 0 0 1.1-.7l2-1.5.2-.3.3-.1.7-.4.7-.5.6-.4.6-.4.9-.6.8-.6 1.7-1.3c.4-.4 1.4-1 1.6-1l.1-.2.3-.3a19.7 19.7 0 0 0 3.1-2.2c.4 0 1-1 1.2-1.7 0-.7 0-.8-.3-.5-.5.5-1.4 1.2-1.6 1.2l-.3.3-.5.4a46.4 46.4 0 0 0-4.7 3.6l-.7.4-.2.1-.3.3a2 2 0 0 0-.6.4 19.7 19.7 0 0 1-3.2 2.4c0 .2-.2.3-.3.3-.1 0-.2 0-.2.2l-.2.1c-.2 0-.3.1-.3.2 0 0 0 .2-.2.2s-1.6 1-1.6 1.2l-.3.1-2.3 1.7a30 30 0 0 0-4 3c-.2.4.8.2 1.8-.4zm10.6.3l1.7-.3a25.5 25.5 0 0 0 4.5-.7l1.6-.2 1.4-.3a3 3 0 0 0 1-.2c.3-.2.4-.7.2-1l-.4-1c-.2-.7-.2-.8-.7-.8-1 0-2 .2-2 .3l-.9.1a55.9 55.9 0 0 0-8.9 1.7l.3 2.5c0 .2.8.1 2.2-.1zM68.5 98c-.1-.3.3-.6.5-.4.2.2 0 .5-.2.5l-.3-.1zm1.9-.2c-.2-.1 0-.7.2-.7.3 0 .3.3.1.7h-.3zm2-.4c-.4-.3-.4-.3 0-.5.3-.4.6-.3.6.2s-.3.6-.7.3zm2-.5c0-.4.1-.4.5-.4s.5.4 0 .6c-.4.3-.4.3-.4-.2zm2.4-.2c-.2-.3 0-.7.3-.7.2 0 .3.2.3.4 0 .3-.5.5-.6.3zm2.2-.2c-.2-.2-.1-.7 0-.8.2-.1.7.2.7.4s-.6.5-.7.4zm10 2.6v-.4h-2c0 .2.2.3.7.4l.6.1c.2.2.6.1.7-.1zm-32-.5l1-.6.5-.4.2-.1s.2-.3.5-.4l2.5-1.6 1.2-.9.6-.4c0-.2.2-.3.3-.3.1 0 .3 0 .4-.2.1-.2.5-.4.8-.5l.5-.5.2-.1.7-.5.7-.5.6-.4c.2-.3.4-.4.5-.4l.8-.6 1-.8.8-.6.5-.4 1.5-1c.7-.7 1.4-1.2 1.5-1.2l.2-.1.5-.5 2-1.6c.1-.2.7-.6 1.1-.7l.3-.3s.2-.3.5-.4c.4-.3.7-.9.9-1.5l.3-1.6c.2-1.6.3-2.2 0-2.2-.5 0-6 4.3-7.7 5.9-.4.4-1.7 1.3-1.9 1.3l-.3.3-1 1a30.1 30.1 0 0 0-3.3 2.3l-1.4 1.1-1 .7-.7.5-.6.5c-.4.2-.6.5-.6.5l-.5.3c-.2 0-.7.4-1.1.7l-.9.7-1.2.8c-.2.3-1.7 1.4-2 1.5-.2 0-.3.1-.3.2l-.6.5c-.3.1-.5.3-.5.4l-.4.3c-.5.2-.6.7-.1.8.2 0 .3.1.3.2l.2.2c.1 0 .3 0 .4.2l.9.4.7.2.6-.2zM56 97c-.1-.2 0-.3.2-.5.3-.1.5 0 .5.3s-.5.4-.7.2zm2-1c-.2-.1 0-.6.2-.7.3-.2.6 0 .5.5 0 .3-.5.5-.7.3zm1.7-1.2c-.2-.2-.2-.3 0-.5.4-.5.9-.2.7.4-.1.4-.5.4-.7 0zm1.5-1.2c-.1-.4 0-.8.3-.8s.4.5.2.8c-.2.3-.4.3-.5 0zm1.8-1.5c-.2-.3 0-.8.4-.8.3 0 .5.4.4.8-.1.3-.5.3-.8 0zm1.7-1.4c0-.3.1-.4.3-.4.2 0 .3.1.3.4 0 .2 0 .3-.3.3-.2 0-.3-.1-.3-.3zm1.8-1.4l.2-.2c.2 0 .3 0 .3.2 0 .3 0 .3-.3.3-.2 0-.3 0-.2-.3zm1.7-1c-.2-.4-.1-.7.3-.7.3 0 .5.4.2.7-.2.4-.3.4-.5 0zm2.1-1.9c0-.3.2-.6.5-.4.3.2.2.4-.1.6-.2.1-.3.1-.4-.2zm1.7-1l-.4-.2.4-.4c.3-.4.4-.4.8-.2.2.2.2.3-.1.6-.3.3-.4.3-.7.1zm1.9-2c0-.2.1-.4.3-.4.3 0 .2.7-.1.7-.2 0-.3 0-.2-.3zm1.7-1c-.3-.5 0-.8.4-.6.4.1.5.5 0 .8-.2.1-.3 0-.4-.2zm1.6-1.7c0-.1.1-.2.3-.2 0 0 .2 0 .2.2 0 .1 0 .2-.2.2s-.4 0-.3-.2zm1.5-1.3c0-.2 0-.3.3-.2.3 0 .3.5 0 .5-.2 0-.3-.1-.3-.3zM91 98.4l-.1-.3-.3.3c0 .1 0 .2.2.2.1 0 .2 0 .2-.2zm2.7-.1s-.1-.2-.3-.2c-.2 0-.4 0-.5-.2-.1-.1-.2-.1-.2 0 0 .2.2.4.4.5.4.2.6.2.6-.1zm-4.4-.2l.2-.1c.3 0 .3-.2.1-.5-.1-.2-1-.4-1.7-.4-.3 0-.6 0-.6-.2h-.7c-.2-.2-.3-.2-.4 0-.1.3.2.7.6.7l.3.2.7.2c1.1 0 1.3 0 1.2.2l.1.1c.1 0 .2 0 .2-.2zm5.4 0c-.2-.6-.8-1.1-1-1.1a.3.3 0 0 1-.3-.3l-.2-.2c-.1 0-.4-.1-.6-.4-.2-.3-.5-.5-.6-.5-.3 0-.5.5-.2.7l1.4 1.3.5.2c.2 0 .3.1.4.3l.4.2c.2 0 .2 0 .2-.3zm-2.3-.7c0-.3 0-.3-.1-.1l-.1.4c.1.2.2.1.2-.3zm-1.8-.4l-.2-.2v.2l.1.1c.1 0 .2 0 .1-.1zm4-2c-.1-.5-.2-.6-.7-.7-1-.3-2.4-.3-2.4 0 0 .2.6 1 .8 1l.6.4.5.4.7.6.4.5.1-.8V95zm-41.1 1.4a14.7 14.7 0 0 0 2.7-2c.2 0 2-1.2 2.3-1.5a5 5 0 0 1 1-.7c.4-.2.9-.5 1-.7.6-.6 1.2-1 1.4-1h.1l.8-.7c.4-.3 1-.7 1.2-1l.9-.6.4-.4c0-.1.2-.3.5-.3l1-.7 1-.8a12.5 12.5 0 0 0 3-2.2l1.3-1.2c1-1 1.2-1.2 1.7-1.5.6-.3.8-.4 2-1.5l1.1-.9 2-1.6c.1-.2.4-.4.6-.4.3-.1.5-.3.5-.4 0 0 0-.2.2-.2.3 0 .6-.6.6-1s-.6-.4-.9 0l-.4.2-.6.4c-.7.7-.9.8-2 1.6l-1.4 1c-.4.5-.9.9-1 .9l-1 .8c-.5.5-1 .8-1.2.8l-.2.2-.5.5-1.5 1.2a16.7 16.7 0 0 1-1.9 1.4l-1 .9-1.2 1a5 5 0 0 0-.8.5l-1 .7-1.3 1-.5.4-.4.3-.9.6-.7.5c0 .2-.2.2-.3.2l-.7.5-.6.4-.5.4-.8.5c-.3 0-.7.4-1 .7-.7.8-1.4 1.3-2.3 1.6-.6.1-2.4 1.5-2.5 1.8 0 .1 0 .2.2.2l.3.2c.1.4.5.3 1.3 0zm35.9-.1l.3-.7-2.3-.7a3 3 0 0 1-.9-.3l-.5-.2c-.8 0-.2 1.3.7 1.5.3 0 .5.2.6.3 0 .2.2.2.6.2l.8.1c.2.4.3.4.7-.2zm-21-.8c.2-.3.2-.3.2 0s0 .3 2.7-.3l1.8-.3.8-.1 1-.2c.6 0 1-.2 1.1-.2l1.3-.2c2-.1 2.4-.3 2.2-1 0-.4 0-.4-.8-.3l-1.8.3-2.8.4a37.4 37.4 0 0 0-6.2.9l-.4.1c-.2.3 0 1 .2 1 0-.1.1 0 .1 0 0 .3.5.2.7-.1zm22.5-.6l.1-.4h-1.4c0 .1.8.6 1 .6l.3-.2zm-1.9-.7c.6-.4.7-.6.3-.6l-.2-.1-.6-.3c-.7-.1-2.3-.9-2.5-1.1-.1-.2-.6-.2-.7 0-.1.5.1 1 .5 1.1.2 0 .4.2.5.4 0 .2.4.4.8.4l.7.3s.1.1.2 0l.2.1c.2.3.2.3.8-.2zm-41.4-1.4a10 10 0 0 1 2-.8c.4 0 1-.3 1.5-.5.8-.4 1.6-.5 3.6-.6.2 0 .2 0 .1-.5l-.2-.6-.1-.4-.3-.7-.2-.7-.2-.5L53 86c0-.3-.4-1-.6-1.1l-.2-.5-.3-.4c-.2-.1-.3-.3-.3-.4 0-.3-.5-1.2-.6-1.2L51 82l-.1-.3-.5-.7c-.6-1.2-1.3-2.3-1.7-2.8a4 4 0 0 1-.5-.7l-.5-.9-.7-.8c-.3-.5-.9-.6-2-.2a7 7 0 0 1-1.3.2l-.6.2-1 .3-1.1.2c-.2.2-2.1.7-2.8.8-.3 0-.5.2-.6.3l-.3.1c-.4 0-1.3.3-1.8.5a4 4 0 0 1-.8.3l-.6.2-.4.2-.3.1c0 .2-1.6.9-1.9.9-.3 0-.4.5-.4 4.6 0 4.5 0 4.5 1.2 4.5l.6.1c0 .2 1.7.7 3.8 1 2.1.4 2.8.6 2.8.7l.5.2.8.1c.4.2 2.2.7 3 .8.2 0 .4.2.4.3l.6.2c.7.2 1 .4 1 .8s.2.4 1.8-.5zm22.4.6A10.2 10.2 0 0 0 72 93a76.3 76.3 0 0 0 6.8-1c.5 0 1-.4.7-.9v-3c0-2-.1-2.5-.3-2.5a21.5 21.5 0 0 0-2.8 2.1l-.5.4-.8.6-.9.7c-.2.3-.5.5-.6.5l-.5.4a33 33 0 0 1-3.5 2.5c-1.2.9-1.2 1 .5.6zm24.2-.1v-.8l-.1-1c-.1-.6-.2-.7-.5-.7l-1-.2-2-.4c-.7 0-1.5-.3-1.7-.4l-1.2-.3c-.5 0-.6 0-.6.2 0 .7 0 .9-.4.9-.2 0-.5-.1-.7-.3l-.6-.2-.2-.2s-.1-.2-.3-.2l-.2-.1c0-.2.2-.2.4-.1.8.2 1.3.2 1.4 0 .2-.2-.2-.6-.6-.6-.1 0-.3 0-.4-.2l-.4-.3-.7-.1c-.5-.1-.7.1-.5.6.2.3.2.3.3.2.1-.2.3-.2.4-.1.3 0 .3.1 0 .3 0 .2-.3.3-.4.3-.2 0-.2 0 0 0l.2.4c0 .3 1 1.3 1.3 1.3h.3c.2.5 2.6 1.3 4.8 1.7a532.5 532.5 0 0 0 3.2.6s.2-.1.2-.3zm-36.6-2.1l.5-.4s.3-.4.7-.6c.9-.6 1-.7 1-1.2 0-.3 0-.3-.3.1s-.4.4-.6.3h-.3c0 .2-.2.4-.4.5l-.4.2.2-.7.5-.9.3-.7c0-.4.2-.8.3-1 .3-.4.3-.4.5-.1l.4 1c.3 1 .5 1.2 1.3.7l1.3-1 .7-.5.1-.2c0-.1-1.6-.5-3-.6a62.5 62.5 0 0 1-6-.8s-.2 0-.3.2c-.3.2-.3.3-.2.6a50.5 50.5 0 0 1 1.7 4c0 .5.2.8.6 1 .5.4.8.4 1.4 0zm31.4-3c0-.2-.2-.3-1.3-.4h-2.2a8 8 0 0 0 2.2.8c.2 0 .3 0 .2.1-.1.3.6.3.9 0l.2-.4zm-6 .2V88c.2-.5 0-.6-1.4-.7-1 0-1.3 0-1.4.2-.2.5 0 .9.3 1h2.4zm6.5-2a137.9 137.9 0 0 0 1.7-4.7c-.1.1-.2 0-.3-.1 0-.2-.1-.2-.3-.1l-.2.1-2-.2a77.9 77.9 0 0 1-7.5-.6c-.2 0-.3.4-.6 2.3a10 10 0 0 0 .1 3.3c.2.2 1.7.4 2 .2h.5c.2 0 .2-.3.1-.8v-.9l-.7.5-.5.5v-.4l.1-.5c.2 0 .3 0 .3-.3l.8-1.3.4-.6c.2-.6.5-.4.8.5l.3 1.3c.2.6.3 1.3 0 1.3l-.1-.3c0-.4-.3-.4-.6 0-.8 1-.4 1.3 1.5 1.3.8 0 1.5.1 1.5.2h2.4l.3-.7zm-1-.2a1 1 0 0 1-.2-.6l-.1-.7c-.1-.2-.2-.2-.3.1l-.2.4c-.1 0-.2 0-.2.2 0 .4-.3.3-.4 0-.1-.5-.4-.5-.8 0-.3.5-.3.5-.3.2 0-.2.2-.9.6-1.4l.6-1.3c0-.3.6-1 .9-1 .1 0 .2.2.2.5l.4 1.9c.3 1.5.2 2.1-.2 1.7zm21.2-5a2263 2263 0 0 0 0-25.6l-.4-.2-.5-.1c-.2-.2-1.5 0-2.1.3-.8.4-1.8 1.4-1.7 1.6v1.1c.1 1-.3 2.3-.8 2.7-.4.3-.3.9.3 1.1.7.3 1 1.2 1.3 3 0 .7-.4 2.3-.7 2.4l-.2.3c0 .4-2.2 2.2-3.7 3-1.3.6-1.9 1-2 1.3l-.3.1-.7.5-1 .7-.5.5a161.2 161.2 0 0 1 5.1 5.4l.2.2c0 .2.3.5.6.8l.8.7.5.3.2.3c0 .1 0 .2.2.2l.2.2.5.4c.3.2.5.5.5.6 0 .1 0 .2.2.2l.7.5.8.9.7.7c.6.7 1.4 1.4 1.6 1.4.1 0 .2-2 .2-5.5zm-45.3 4c0-.8-.2-.9-1-1h-.7-.8l-2-.3-1.8-.2c-.3 0-1.1 0-1.7-.2l-1.7-.2-.5-.1-.6-.1c-.7 0-1-.1-.6-.4a39.2 39.2 0 0 0 3.6.2 39 39 0 0 1 6 .6h1.2c.4-.1.4-.2.3-1a39 39 0 0 0-1.2-5.3c-.2-1-1-1.4-4.1-1.5-1.8 0-3.5-.2-5.1-.5a34.8 34.8 0 0 0-4.8-.3H48c-.2.2.3 1.2.5 1.2 0 0 .1.1 0 .2l.4.6c.5.5 1.5 2 1.5 2.3l.1.1c.1 0 .2.1.2.3l.2.4c.2.2.3.2.5 0l.2-.6c0-.6.9-2.4 1.1-2.4.2 0 .4.5.5.8l.5 1.1c.5 1.3.7 1.9.4 2-.2.2-.4 0-.5-.7-.1-.7-.2-.8-.3-.5-.3 1-.4 1.2-.6 1.1l-.3-.5c0-.6-.2-.7-.5-.2-.4.5-.3 1.3.2 2.1l.5 1c0 .3.2.5.3.5l.3.5c.2.4.2.5 1 .5a21.9 21.9 0 0 1 3.1.3 74.4 74.4 0 0 1 6.6.6c.5 0 .6 0 .5-.5zm-2-3.8a4 4 0 0 1-.5-.9c-.3-.5-.5-.7-.6-.3-.2.7-.2.8-.5.7l-.2-.3-.2-.4c-.4-.3 0-2.3.5-2.9.1-.2.2-.1.4.4a37 37 0 0 0 .9 2.3c.2.1.6 1.4.5 1.6 0 0-.3 0-.4-.2zm-2.9 0l.2-.9c.2-.6.2-.7.3-.4.1.5-.1 1.4-.4 1.4v-.1zm-4.2-.3c0-.4 0-.8.2-1l.4-1.1c.2-1 .5-1.9.8-1.9.1 0 1 1.8 1 2.2 0 .1 0 .2.2.3l.2.4.1.7c.2.2.1.3 0 .4-.3 0-.9-.9-.9-1.3s-.3.1-.4.7c0 .7-.3.8-.5.3-.3-.4-.5-.4-.7.1-.1.5-.3.6-.4.2zm11 3.6l1-.8.8-.7.3-.2c.1 0 .3 0 .3-.2s.2-.3.3-.3l.6-.4.6-.4.3-.2c0-.1.4-.5.8-.7.4-.3 1-.7 1.2-1l.6-.5c.1 0 .5-.2.8-.6l1.4-1.1c.2-.2.4-.4.3-.5l.3-.1c.3 0 .5-.3.3-.4 0 0-.8-.2-1.7-.2a37.6 37.6 0 0 0-5-.4c-4.6-.1-5.4-.2-5.5-.3-.1 0-.3 0-.4.2-.2.2-.2.4 0 1.4 0 .7.2 1.3.3 1.5l.6 2.3a58.4 58.4 0 0 0 .7 3.5c0 .8.4.8 1.1.1zm25.1-4h.3l.4-.2c.2-.2.3-.5.2-.5l-.8-.1-1-.2H89l-1.7-.2h-2.8C81 79 81 79 81 79.7c0 .3 0 .4.2.3h.9c.4.2 1.6.3 2.8.3 1.9 0 3.9.2 4 .3h2.6zm1.7-2.1a38 38 0 0 1 1.7-3.8v-1.1c0-.2-.5-.8-1.2-1.6-.2-.3-.6-.5-.8-.5h-.7a124.4 124.4 0 0 0-6-.6 50.3 50.3 0 0 1-3.6-.3c-.2.2-.6 2.2-.6 3l-.3 1.3a9.7 9.7 0 0 0-.4 3c.1.4.3.5 2.5.6l2 .1 1.6.1a64.8 64.8 0 0 1 5 .4c0 .2.8-.3.8-.6zm-2.3-.7l-.1-.5c0-.4 0-.4-.4-.3-.3.2-.4.2-.4-.1l.4-.9.4-.8.1-.4.2-.4c0-.5.3-.7.6-.7.2 0 .8 2 .8 2.9v.7l-.2-.6c-.3-.7-.5-.6-.8.2-.2.8-.4 1-.6.9zm-4-.6c0-.2-.1-.3-.2-.3v-.5l-.1-.8c-.2-.2-.2-.3-.2 0 0 .2-.7 1-.9 1-.2 0 0-.8.3-1.2l.4-.6c-.2-.1 1-1.9 1.3-1.9.2 0 .4.7.5 1.5l.1.7.5 2c0 .4-.4 0-.6-.6l-.4-.6-.2.8c0 .6-.2.8-.3.8-.1 0-.2-.1-.2-.3zm-4-.3c.1 0 0-.4 0-.8v-.6l-.4.4-.4.4v-.5l.1-.4.5-.5.1-.5.2-.4.5-.7c.3-.7.5-.5.8 1 .5 2.2.6 2.3.3 2.6-.2.2-.3.1-.3-.3 0-.6-.3-1.3-.3-.9 0 .2 0 .3-.2.4-.1 0-.3.3-.3.5s-.2.4-.3.4h-.2zm-50.1 1.5a5 5 0 0 0 1-.4l.3-.1.9-.3 1-.5a21 21 0 0 1 3-1 24 24 0 0 0 4-1h.3l.5-.2c.6 0 1.9-.4 2-.6.2-.3.1-.4-.1-.4s-.3-.2-.3-.4 0-.3-.2-.3c-.1 0-.2 0-.2-.2l-1.4-1.8c-.3-.3-.6-.8-.6-1l-.3-.2c-.2 0-.9-.9-.9-1.1l-.6-.7c-.4-.2-.6-.5-.6-.6 0 0 0-.2-.3-.3l-.6-.6a63.5 63.5 0 0 0-3.3-3 121.5 121.5 0 0 0-2.2-2.4c0-.3.4-.6.6-.4l1.4.3a389.3 389.3 0 0 1 14.5 2.3c1.3.1 1.4 0 1.6-1 0-.6.9-1.7 1.5-1.9l.8-.1.4-.1s.1-.2.3-.2c.1 0 .2.1.2.3 0 0 0 .2.2.2l.3-.6c0-1 0-1-.7-.8-.5.4-1.4.3-1.8-.1-.1-.2-.3-.3-.4-.3l-.5-.7c-.4-.6-.4-.7-.3-1.8 0-1 .2-1.1.6-1.6.4-.3.6-.4 1.1-.4l.8.1c.2.4.6.2.6-.3 0-.4 0-.4-.9-.4-1 0-1.4-.4-1.6-1.5-.4-1.5 0-2 1.5-2.3.7 0 1-.4 1-1.4 0-.5-.1-.6-.6-.9-.4-.1-.7-.4-.8-.6-.1-.2-.3-.3-.5-.3 0 0-.2 0-.2-.2l-.4-.6c-.4-.4-.4-.5-.3-1.8a109 109 0 0 0 .3-3c.2-.4 0-1-.5-2a9.6 9.6 0 0 0-1-1.8 6 6 0 0 0-.6-1 21.5 21.5 0 0 1-2.3-2.9l-.2-1V32h-4.9c-.3.2-.4.2-.4 0s-.2-.2-.3-.2c-.1.1-2.4.2-5.2.2-4.5 0-5 0-5.2.3-.3.2-.3.6-.4 2.3v2l-.3 13-.2 28.8c0 .6.2.7 1.4.2zm44.2-3l.2.1c.2.3.6.1 1.3-.5l.5-.4-.7-.2a23.9 23.9 0 0 0-4.4-.2 56.8 56.8 0 0 0-5.2-.3 204.6 204.6 0 0 0-5.5-.2c-.3.3-.3.4-.1.8.2.4.3.4 1 .5.5 0 .9.1.9.2h1c.1-.2.2-.1.2 0 0 .2 0 .2.3 0 .1-.1.3-.2.3 0h2.9l3.2.3a84.9 84.9 0 0 1 4 0zm-14.8-1V74c0-.1-.1-.1-.2 0l-.3-.1-1.6-.3-1.6-.1a42.7 42.7 0 0 0-5-.5l-1.5-.2a50.6 50.6 0 0 1-4.2-.3c-2.1-.1-2.2-.1-1.4.8l.5.7 2.3.3a204.4 204.4 0 0 1 12.6.9c.4 0 .5 0 .4-.5zm15.2-1.4l.1-1.7c0-1.6 0-1.6-.3-1.6s-.4 0-.4.7v1.7l.1 1.2c.2.2.3.2.3 0s.1-.3.2-.3zm2.4.2l.1-1.3c0-.6 0-1.2.2-1.5.1-.3 0-.4-.1-.5-.4-.2-.5.1-.7 1.5v1.7c.2.5.4.5.5.1zm-7.6 0a85.8 85.8 0 0 1 .2-3.8c-.1-.4-.5-.3-.6 0v3.7c.1.3.4.3.4 0zm1.3-1.7c.2-1.8.1-2.2-.2-2-.2 0-.3.5-.4 1.8 0 1.8 0 2.1.3 2l.3-1.8zm1.1 1.6a10.1 10.1 0 0 0 .3-3c0-.6-.3-.8-.6-.4-.1.2-.3 3-.2 3.4.2.3.4.3.5 0zm4.1-1.3l.2-1.7c0-.4 0-.4-.2-.4-.3 0-.3 0-.4.8-.3 2.7-.3 3 .1 2.6.2 0 .3-.7.3-1.3zm-8.8 1.3c0-.2.2-3 .1-3.6 0-1-.6 1.4-.6 2.7 0 .8.3 1.3.5.9zm1.2-.8c.1-1.2 0-3-.2-3-.2.1-.4 2.8-.3 3.5.1.6.4.3.5-.5zm5 .7v-3.4c-.4-.2-.6.4-.6 1.9-.1 1.4 0 1.6.4 1.7l.1-.2zm4.9-1.4c.1-1.2.1-1.6-.1-1.6s-.3 1.4-.3 2.5c0 1 .2.5.4-1zm-17.3-1V69l-.2.1-.1 2.3-.2 1.2v.4c.4.4.5 0 .5-2.1zm3 2.3l.2-2c0-1.5 0-1.8-.2-1.8s-.2.3-.3 2c0 1.7.1 2.2.4 1.8zm2.1-.2a66.5 66.5 0 0 0 .2-3.4l-.3.9-.2 1.5-.1 1c0 .4.4.3.4 0zm-7.5-.2c.3-.3.4-.3.2-.4a.4.4 0 0 1-.3-.4c0-.4-.6-2.6-.9-2.9l-.5-1c-.1-.5-.3-.8-.4-.8l-.2-.7c-.1-.7-.5-1-1-.6-.2.2-1 .4-2 .5a2 2 0 0 0-.5.2h-.3c0-.2-.4-.3-.8-.4-.3 0-.7-.2-.8-.3-.2-.3-1.3-1-1.6-1l-.4-.2c0-.1-.4-.2-1.6-.3a21 21 0 0 1-2.9-.5l-1-.1a18.6 18.6 0 0 0-2.5-.5 61.9 61.9 0 0 0-4.6-.8l-2.2-.3-1.1-.1.3.4 1 1.1c.1 0 .4.2.6.5l2.1 1.9.2.2c0 .2 0 .3.2.3l.7.6c.3.5 1 1 1.3 1l.5-1c.4-1.4.6-1.6 1-1l.5 1c0 .3.2.8.4 1.1.3.6.4 1.6.1 1.4 0 0-.2-.3-.2-.7-.1-.6-.6-.9-.9-.5-.1.3-.2.3-.3-.1-.2-.5-.4-.5-.7.2-.1.4.1.7 1.8 2.5l.7.7 2.1.1 3.8.3a57.5 57.5 0 0 0 7 .5l1.6.1c.4 0 .7 0 .8.2 0 .2.4.1.8-.2zm-1.9-1.3c0-.2 0-.4-.2-.5l-.3-.4c-.2-.3-.2-.3-.3.2-.1.6-.4.8-.6.4l-.3-.1-.1-.1c0-.2-.2 0-.3.1-.4.6-.6.4-.4-.4l.4-1.8c0-.6.3-1 .6-.9l.7.9.7 1c.2.1.3.3.3.4l.3.7c.4.5.4.8 0 .8-.3 0-.5 0-.5-.3zm-5.2-1c-.4-.8-.6-1-.8-.2-.2.6-.6.7-.6.2 0-.5-.3-.7-.5-.4 0 .2-.1.2-.2 0-.1-.1-.1-.3 0-.4l.5-2.4c0-.6.7-.7.7-.1 0 .3.6 1.6.9 1.9l.2.4.2.4c.3.2.3 1.3 0 1.3 0 0-.3-.2-.4-.7zm-5.3-.7c-.2-.2-.3-.5-.3-.7 0-.4-.4 0-.5.4l-.1.4c-.2 0-.5-.2-.6-.5-.1-.4-.3-.4-.5.2l-.3.5c-.1 0 0-1.7.2-2l.2-.6c0-1 .5-1.5.8-.7.3.6.6 1 .7.9v.2l.2.4c.1 0 .3.4.4.9l.2.4c.2.6 0 .7-.4.2zm17 1.3c0-1.1 0-1.8-.2-1.8l-.1.2-.1.6c-.2 1.5 0 3.3.2 3l.1-2zm-1.1 0l-.1-2c-.2 0-.4 1.3-.5 2.8 0 1 0 1 .3 1s.3 0 .3-1.9zm3.1 1.2c.2-.8.3-2.8.2-3-.3-.2-.6.5-.6 1.1-.1 2 0 2.6.1 2.6s.3-.3.3-.7zm28.9.5c.2-.2.2-.3 0-.8l-.2-.9-.1-.3c-.1 0-.1-.2 0-.4 0-.2 0-.3-.2-.2v2.6c0 .2.1.2.5 0zm-34-2.2c0-1-.1-1.6-.2-1.5-.4.3-.5 3-.1 3.2 0 0 .2.1.2 0v-1.7zm32.4.3l-.1-1.5-.3-1c0-.7-.3-1.4-.8-2.5-.5-1.2-.2-4.5.4-4.5.1 0 .2-.1.2-.3 0-.1 0-.2.2-.2l.5-.4c.3-.4.6-.5 1.5-.6h1.5c.3 0 .3-.1.4-.4v-.6c-.1-.3.3-1.6.6-2 .2 0 .3-.2.3-.3 0-.4 1.1-1 2.2-1.2 1.2-.2 1.3-.5 1.4-2.2 0-1 0-1.8-.2-2.3-.2-.6-.2-1 0-1.2 0-.5.1-.5 1.3-.4l1.1.1.1-.6c.1-.6 1-1.7 1.3-1.7l.5-.3.4-.4c.2 0 .3-.1 1-1.6a5 5 0 0 0 .4-1.4c0-.7.4-.6.6.2.3 1.2.4 0 .4-5.2 0-4.6 0-5.3-.3-5.5-.2-.3-.9-.3-4.8-.3a44 44 0 0 0-5.1 0l-7.8-.2a870.3 870.3 0 0 1-23.3-.5c-1 0-.8.6.7 2l1 1.1.3.5V36.2c.2.3.3.5.8.5.7.2 1.2.6 1.2 1 0 .1.2.1.4 0 .9-.2 1.7-.2 2 0 .2.2.2.1.6-.3l.3-.7c-.1-.2.8-1 2-1.8l.7-.6.4-.2.4-.1.6-.3c.5 0 .6 0 1.6 1.2 1.6 2 2 2.5 2 2.9-.2 1.4-.2 1.8 0 1.8 1 0 2 1.3 1.8 2.3 0 .5-.5 1.5-.5 1.2l-.2.2-.9.4c-.5 0-.7 0-.8-.3-.2-.2-.3-.2-.5 0-.2.1-.2.3 0 .5 0 .2.1.3.2.3.3 0 1 .2 1 .4s.2.3.3.3l.7.2c.2.2.5.3.5.2l1.8.9c2 1 2.2 1 2.3-.1 0-.5 0-.6-.5-.5-1.2 0-1.5 0-2-.6s-.6-1.2-.4-2.4c0-.7.2-1 .5-1.3l.6-.5c.1-.2.3-.3.5-.3.1 0 .2 0 .2-.2l1-.1 1 .1.5.3.8.4.4.4.2-.9c.4-1.4 1-2 2.2-2h2.1l1 .2c1.6.3 2.2.5 2.1.9 0 .2-.7 1.4-.9 1.4l-.4.7-.5.7c-.1 0-.2.1-.2.3l-.7 1-.8 1-.5 1c-.2 0-.4.5-.6.8l-.4.6-.3.3c0 .3-.3.7-.5 1-.5.7-.5 1.2-.2 1.3.7.3 1 1.1.5 1.3-.2 0-.2.2-.2.2 0 .1 0 .4-.3.6l-.4.6-.4.6c-1.3 1.5-1.5 1.7-1.5 2l-.3.1-.3-.1-.2-.2c-.2 0-.3-.1-.4-.3-.2-.3-.2-.3-.3 0-.3.3-.2.7 0 1.9.3 1.2.6 1.7.7 1.4.2-.3 1.2 0 1.6.3l.5.4c.3 0 .4.5.5 1.5 0 .5-.2.8-.5 1.2l-.5.6c-.2.1-.2.5.1.7.5.4.9 1.6.9 2.4l-.2.8-.4.7c-.1.4-.4.8-.6 1-.2 0-.4.3-.4.5s.6 1 1.6 2.2l.4.6c0 .2 1.3 1.6 1.5 1.5.1 0 .2-.6.1-1.5zm2.6 1s0-.8-.3-1.7l-.5-2.3c0-.5-.2-1.3-.4-1.9l-.3-1.4a3 3 0 0 0-.2-1l-.5-1.3-.2-.8v.9c.1 1.4.3 2.4.4 2.6l.2.6c0 .5.4 2.8.6 3.3l.8 3.2.4-.1zm.6-2a110.3 110.3 0 0 0-1.5-7.4c-.5-2.2-.4-2-.6-1.8a110 110 0 0 1 1.1 6.6l.7 2.8c.5 2.2.7 2 .3-.3zm-6.7 1c.2-.2.2-.3 0-.6 0-.2-.2-.3-.2-.3l-1-.1-5-.4c-2.4-.2-2.6-.1-2.6.3 0 .2 0 .3.2.2l.2.1 1.7.3a197.1 197.1 0 0 1 6.7.4zm7.9-1c0-.3 0-.6-.2-.7l-.2-.8a30.9 30.9 0 0 0-.6-3.4l-.2-.4-.2-1.4-.2-.8c-.2-1.3-.4-2-.6-2-.2 0-.2.5.2 2.3a44.1 44.1 0 0 1 .8 3.9l.8 3.9c.2.3.4 0 .4-.5zm.7-1.5l-.2-1.8-.4-1.7a37.8 37.8 0 0 1-1-3.9c-.3 0-.3.4-.1.9l.2 1v1.1c0 .1 0 .3.2.5l.2.9a28.6 28.6 0 0 0 1.2 4.6c.2-.2.1-.5 0-1.6zm-4 1.3c0-.2 0-.2-.2-.2v.3c.1.2.2.2.2-.1zM61.7 69c0-.3 0-.5-.2-.5s-.3.4-.2.7c.2.5.4.3.4-.2zm20.3-.6c0-.7-.3-1-1.2-.8h-.7l-1-.2c-.4 0-.8-.2-.8-.4l-.5-.3c-.3 0-.6-.2-.6-.3-.1-.4-.6-.5-1.6-.5a216 216 0 0 1-15.3-1.3c-.4-.3 0-.6.6-.6a106.5 106.5 0 0 0 4.3.5l1.4.1v-.5c0-.5-.2-.8-.4-.5l-1.1.1-1.2.2-.3-.1-1.1-.6a4 4 0 0 1-1.2-.8c-.4-.5-.8-.3-.8.3l-.3.6-.2.5-.2.5c-.2.2-.2.3 0 .8.6 2 1 2.6 1.7 2.7a466.8 466.8 0 0 0 7.1.6 175.8 175.8 0 0 1 8 .4h1.5l1 .2 1.2.1c1 0 1.3 0 1.4.2 0 .4.3-.3.3-1zm19.5 0l-.2-1.3-.1-.7c0-1-.6-2.5-.8-2.5-.2 0-.3.2-.3.3 0 .7 0 1.5.3 2.2l.1.7.1.3.2.5c0 .6.3 1.4.5 1.4.1 0 .2-.4.2-1zm-11.1.3c0-.6-.5-.7-4-.8-3.1-.1-3.7 0-3 .3.1.2.3.2 2.3.3l1 .1a45.5 45.5 0 0 0 3.3.3c.2.2.4 0 .4-.2zm12.3-.5l-.2-1-.2-1.2a9 9 0 0 0-.3-1.1c-.1-.6-.4-2-.3-2.2l-.3-.1c-.4 0-.4.4-.1 1.4l.2 1v.5l.4 1.4c.2 1.4.4 2 .6 1.8l.2-.5zm1.2-.6c.2-.2.2-.8 0-.8s-.6-1.3-.8-2.5c-.2-1.7-.3-2-.5-2s-.2 1.2 0 2.4l.5 2.3c0 .7.4 1 .8.6zm-20.3-1.4c.3-.5.3-.6.1-1.3-.3-1.3-.4-1.3-1 .7l-.2 1.2c0 .3 0 .3.4.1.2 0 .5-.4.7-.7zm1.2.6c.6.1 1.2-.6 1.2-1.5 0-.6-.3-1.5-.3-1.1 0 0-.2 0-.3-.2-.1-.2-.4-.4-.6-.4-.4 0-.7.3-.4.4.2.2.3 1.2.1 2-.2 1-.2 1.4 0 1l.3-.2zm3.9-.4c.4-.7.3-2-.1-2.6-.8-1.2-1.3-1.1-.7 0 .4.7.4.8.2 1.7 0 .5-.2 1-.3 1.1-.3.7.5.5.9-.2zm2.6.4s.2 0 .2-.2c0-.1 0-.1 0 0 .2 0 .8-1.5.8-2L92 64l-.2-.4c0-.4-1.4-1.6-1.5-1.3-.1.1 0 .4.2.7l.6 1.3c.1.8 0 1.8-.2 1.8l-.1.6v.3l.4-.2zm4.3 0l-.1-.3v.6c.1 0 .2-.1.1-.3zm-15 0s.1-.1.2 0c.2 0 .5 0 .8-.2.4-.2.5-.4.6-.7l.1-.8c.2-.4 0-1.6-.4-2-.4-.3-.9-.4-1.4-.2-.6.3-.6.7 0 1.3.6.6.6.6.4 1-.2.3-.4.6-.6.6-.8.3-1.3.3-1.4.2l-.3-.2a5 5 0 0 1-1.4-1.9c0-.2-.2-.3-.3-.3-.3 0-.3.8 0 1.2.8.9 1.4 1.5 1.6 1.5l.4.2c.3.4 1.5.6 1.6.3zm6.6-.5c.1-.3.3-1 .2-1.3 0-.7-.4-1.6-.7-1.5-.2 0-.2.2 0 1.3 0 .4 0 .9-.2 1.3 0 .4-.2.7-.1.8.2.2.5 0 .8-.6zm2.9.1c.5-.7.5-2.4 0-3.1-.7-.9-1.4-.7-.8.2.4.6.5 1.6.2 2.8-.1.8 0 .9.6.1zm14.5-.1v-.9l-.3-1.6c0-1-.2-1.4-.5-1.4-.2 0-.2.2-.1.7l.2 1.6c0 1.3.4 2 .7 1.6zm-9.1-.2a3 3 0 0 1-.3-1 7.2 7.2 0 0 0-.6-2.3l.2 2.5c.2.8.2 1 .5 1 .2 0 .3 0 .2-.2zm-39.1-1c.2-.2.4-.3.5-.2.1.1.9-.5.9-.7 0-.1 0-.3.2-.3.3-.1 0-.3-.4-.2l-.3.3c0 .6-1.8.9-2.3.3-.2-.3-.2-.3.2-.8.6-.6.4-1-.5-1-.6 0-.7 0-.8.4-.2.7-.2.8 0 1v.3c-.1.2.6.8 1 1 .8.3 1 .3 1.5 0zm2.6-.9l.7-1.2c.2-.3.3-2 .1-2-.2 0-.3.3-.3 1 0 .5-.8 2-1.4 2.6-.6.6-.6.8-.1.7.2 0 .6-.4 1-1zm17 .8l-.1-.3c-.2-.2-.3-.3-.6 0-.5.2-.3.6.3.5l.4-.2zm3-.3c-.2 0-.5-.3-.6-.6l-.3-.7a3 3 0 0 1-.2-.5c0-.2-.2-.3-.2-.3-.2.2.4 2 .7 2.2.2.2.5.2.7.2.3-.1.3-.1 0-.3zm-11.4-.7c.1-.7 0-.8-.3-.7-.2.1-.3 1-.1 1.2.2.2.3 0 .4-.5zm1.7.1c0-.4 0-.4-.2 0s-.2.5 0 .5c.1 0 .2-.2.2-.5zm6-.2l.6-.3.1-.2.5-.7a10.8 10.8 0 0 0 2-4.2l.3-3-.1-.8c-.2 0-.6.9-.7 1.4-.2 1.2-.5 2.2-1.2 3.5-.7 1.5-1.8 3-2 3-.2 0-.4.1-.5.3-.3.2-.4.2-1.1 0-.6-.1-.9-.3-.9-.5l.4-.2c.7.1 1-.5.6-1l-.3-.4c0-.3-1-.4-1.5 0-.6.2-.6.2-.6 1.2 0 .6.1 1 .2 1l.2.4c0 .2.3.5.7.7.6.3.8.3 1.8.2.7 0 1.2-.2 1.5-.4zm30 .1c0-.2 0-.4-.2-.4s-.3.5-.1.7c.2.3.3.1.3-.3zm-36.8-.6c0-.2 0-.3-.2-.2l-.1.6c0 .5 0 .5.1.2l.2-.6zm1.7-.5c0-1-.2-.8-.3.3v.7c.2 0 .3-.5.3-1zm-13 .4c.2-.3.5-.8.5-1.2l.1-.6-.2.5a4 4 0 0 1-.5.7 1 1 0 0 0-.3.5c0 .1 0 .2-.2.2l-.3.2c-.3.4.5.1 1-.3zm22 .2c0-.3-.6-1.8-.8-1.9-.2 0-.2.9.1 1.5.2.4.7.7.7.4zm-20.7-.7v-.4c-.2 0-.3.2-.3.5 0 .5.2.4.3-.1zm7.4.1c1.2-.2 1.6-.4 1.6-.5l.7-.4c.6-.3 1-.6.6-.6-.2 0 0-.5.5-1.1.3-.3.4-.7.4-.7-.2-.3-.4-.2-.6.2-.1.4-.6.6-.6.4 0-.2.4-.9.7-1.2.3-.4.3-.5 0-1l.1-.5c.3-.2.4-.1.4.2 0 .5.4.4.5-.1l.4-.6s.2 0 .3-.2c.2-.2.3-.3.3-.1 0 .3.2.2.4-.2.3-.4.4-1.2.6-3.3 0-.9.2-1 .4-1.2.2-.1.6-.5.8-1 .3-.6.3-.7.1-1.8-.3-2-.5-2.3-1.6-2.5l-1.2-.3-.8-.2h-.2c0-.2-.3-.2-.6-.2l-1.5-.3c-2.8-.6-9-.8-9.2-.4-.1.2-.2 1.3 0 1.3l.7-.2a4 4 0 0 1 2.8 0c1.3.6 1.4.8 1.4 3.4 0 1.4-.1 2.7-.3 3.4-.3 1.3-.4 3-.2 3 .4 0 .7.2 1 .4.1.2.1.3-.1.4-.2.2-.4.2-1-.2-.8-.4-1-.9-.8-1.6a9 9 0 0 0 .5-3.2c-.1-.2-.3-.2-.4 0l-.9.3c-.7.2-.9 0-.4-.4.3-.2.3-.2 0-.2l-.6-.1c-.7-.3-.8-.2-1 .2 0 .5-.2.5-.5 0l-.4-.3a9 9 0 0 0 0 3.1l.2 1c0 .8 1.2 4 1.6 4.3l.1.3c0 .1.1.2.3.2.1 0 .2 0 .2.2l.6.8.7.9.2.1.5.3.3.2 1 .1c.5.1 1 .2 1.1.1l.9-.2zm-2.1-.5c0-.2.3-.3.4-.1l-.2.1h-.2zm1-1c-.2-.2-.7-.3-1-.3h-.6l-.3.1c-.1.2-.2.2-.2.1l.3-.5c.3-.3.3-.3 0-1-.3-.6-.4-.7-.6-.6-.6.2-.8.1-.8-.4 0-.7.3-1 .8-.6.2.2.3.2.5 0s.5-.2 2.2.1l1.3.1c.5 0 .6.1.6.6v.8c-.3.3-.7.2-.6-.2l-.1-.2c-.1 0-.2.1-.2.3l-.7.7c-.6.4-.7.5-.5.5l.6.3c.2.5 0 .5-.7.1zm.7-1.7c.5-.3.2-.3-1.2-.4l-1.3.1c0 .1 0 .1.1 0 .1 0 .2 0 .2.2l.3.1.4.2c0 .2 1.1 0 1.5-.2zm2.4-.4v-.2c.2 0 .4-.2.7-.5.6-.5.7-.2 0 .5-.6.5-.7.6-.7.2zM65 56.7a2 2 0 0 1-.6-.4c0-.1-.1-.2-.3-.2 0 0-.2 0-.2-.2 0-.5 1.2-.2 1.5.3.2.4.6.3.8 0 .1-.2.2-.6.1-.9 0-.4-.1-.5-.4-.5-.4 0-.7-.4-.5-.6 0-.1.2 0 .2 0 0 .2.2.3.4.3.6 0 1 .4 1 1.2 0 .4-.2.7-.4.7l-.4.4c-.3.2-.5.2-1.2-.1zm6.3-.9l.1-.3v.6c-.1 0-.2-.1-.1-.3zm-2.8-2.6l.1-.2.2.1c0 .1 0 .2-.2.2h-.1zm.6-.2l.2-.3c.1 0 .1 0 0-.2l-.5.1c0 .1-.5.2-1.1.2-1.3 0-2.3-.4-2.8-1.2-.4-.5-.4-.6-.2-1.3.3-1.2.7-1.5 2-1.7l1 .1c0 .2 0 .2.3 0 .2 0 .5 0 1 .3.8.5.6.7-.4.3-1.1-.4-3.3-.2-3.3.3 0 .2.3.3 1.5.4.7 0 1 0 .9-.1a8.5 8.5 0 0 1 3 1c0-.1.1 0 .2 0 .2.2.2.4.2.5l.1.2c.8 0-.5 1.1-1.8 1.6-.2 0-.3 0-.3-.2zm-1.7-1.3l-.1-.6c-.2-.2-.2-.2-.2 0l-.1.6c-.1.5.3.5.4 0zm1.9 0l.7-.3c.2 0 .2 0 0-.2a.5.5 0 0 0-.4-.2h-.4c-.1-.3-.8-.3-1 0 0 .2.3 1.1.5 1.1l.6-.3zm1-3.6c0-.2-.3-.3-.3-.2h-1c-.6-.3-1.2-.3-2.4-.3l-2 .2c-.7.2-.4-.2.4-.5.5-.3 1.1-.4 2-.4 1.2 0 3.2.5 3.3.8l.3.2c.1 0 .2.1.2.3 0 .3 0 .3-.4-.1zM54 62h.3c0-.2 0-.2.2-.2.4 0 .5-.2.4-.4 0-.3-.5-.3-1-.1-.5.2-1 1.2-.8 1.6 0 .2.1.2.3-.3.2-.3.4-.5.6-.5zm32.8.6c.2 0 .4-1.4.3-2 0-.4-.2-.6-.7-.8-.7-.3-1.3-.1-1.3.5 0 .3.1.4.2.4.2 0 .6.5.6.7 0 .3-.7.4-1.2.2l-.6-.3c-.2 0-1.3-1.2-1.6-1.7a42.6 42.6 0 0 1-1.6-4v-.4c-.2 0-.3-.3-.3-.5 0-1.3-.6-4.8-.7-4.5-.3 1.6-.3 5.1 0 5.8l.3.8.3.7.3.8.2.8a12 12 0 0 0 2.2 2.7c.7.8 2.2 1.4 3 1l.6-.2zM56.9 62c.1-.2.3-.6.3-1 .2-.5.2-3 0-3-.2-.3-.5.3-.5.9 0 .6-.1 1.5-.4 1.8v1.4c0 .4.3.4.6 0zm25.4.3l-.5-.8c-.6-.5-.6-.6-.7-.2 0 .4.2.8.7 1 .4.2.5.2.5 0zm6.7-.1c.5-.7.6-.8.6-1.5 0-.6-.1-.9-.5-1.3l-.5-.5c-.1.1 0 .3 0 .4.3.3.3 2 0 2.7-.1.5 0 .6.4.2zm12-.1l.8-.3.2-.2c0-.1 0-.2.2-.2.7.2 1.5-.5 2-1.6.3-.8.2-3-.1-2.7h-.5c-.2-.2-.3-.2-.4 0-.2.5-.7.2-1-.5l-.6-.6c-.3-.1-.3-.1.3 1 .5 1 .5 1.3 0 1-.4-.3-.4-.3-.3.2 0 .6 0 .7-.4.3-.2-.2-.3-.3-.4-.2 0 0 0 .3.3.5.4.3.4.4.2.6-.2.2-.3.2-.6-.1-.3-.3-.3-.3-.2.2 0 .4 0 .4-.3.4-.4-.1-.5.1-.2.5.2.2.2.2 0 .3l-.2.3c0 .4.4 1.4.5 1.4l.7-.3zm-42-.3l-.1-.9-.2.3v.6.3s.2-.1.2-.3zm20.7 0l-.2-.9c-.2-.7-.2-1.4 0-2.1 0-.4-.2-.7-.4-.5l-.2 1.2c0 .8 0 1.4.2 1.8.2.5.6.9.6.5zm.8-.3l-.2-2.7-.2-.2c-.3.1-.2 2.3.1 2.9.4.5.5.5.3 0zm-5-.9v-.1c.2 0 .2 0 .2-.2l.4-.7.5-1.1c0-.4.2-.8.3-.9v-.4s-.2.1-.3.5c-.8 1.5-1 1.8-1.7 2.6s-.9 1.1-.6 1.3c.1.2 1.1-.7 1.1-1zm12.7.2c0-.8 0-1-.4-1.3-.8-.8-1.2-.7-.7.1l.5 1c.2 1 .3 1.2.4 1.2l.2-1zm-9.5.6s0-.2-.2-.3c-.2-.2-.2-.2-.2 0s0 .3.2.3h.2zm13.7-1.6c0-.6-.6-1.4-1-1.4-.3 0-.3 0-.3.3s.2.6.3.7c.2.2.2.5.1 1.2v.9l.4-.7c.3-.3.5-.8.5-1zM90.8 61c.1-.5 0-1-.2-1.7-.3-.7-.6-.8-.5 0l.2 1.2c.1.8.3 1 .5.5zM70 60.8c.4-.3.5-.6.3-.6l-.9.9c0 .2.3 0 .6-.3zm-11.9-.7c-.1-.1-.2 0-.2.3 0 .5 0 .5.2.2v-.5zm1 0v-.4c-.2 0-.2.2-.2.5v.5l.2-.5zm16-1c.5-.8.7-1.6.5-1.6-.2 0-.8.7-.8.9l-.4.7-.3.6-.1.2c-.1.1-.1.3 0 .4 0 .3.7-.4 1.2-1.2zm9.1 1.1A14 14 0 0 0 83 58l-.1-.2v-.3c-.2 0-.2-.4-.2-.7l-.2-.6c-.2 0-.5-1.4-.7-2.6l-.2-1-.1-.9v-1c-.1-.3-.8-.8-1-.6a45.8 45.8 0 0 0 1.5 7.7l.4.7c.4.8 1.3 2 1.6 2l.2-.2zM74.1 59l.4-.9c0-.3-.3-.2-.5.2 0 .3-.2.5-.3.5-.2 0-.8 1-.7 1.2.1.2.6-.3 1-1zm-2.4.6c.3.1 1.3-.7 1.6-1.2.3-.6.3-.6 0-.9-.2-.2-.3-.2-.5 0-.1.1-.2.4-.1.6v.3h-.4c-.2.2-.4.4-.6.4-.4.2-.6-.3-.3-.7.2-.4 0-.6-.4-.4-.5.1-.7.9-.4 1.5.3.5.7.8.9.5 0 0 .1-.1.2 0zm13-.5c.1-.3-.1-1-.3-1.2l-.4-1a18 18 0 0 1-1-3.8c-.2-2-.4-2.3-.7-2.3-.4 0-.4.9.2 3.8.4 1.7 1.7 4.8 2 4.8.1 0 .2-.1.2-.3zm15.5-.2c-.2-.2-.2-.2-.1 0 0 .2.1.3.2.3l-.1-.3zm-42-.5v0zm-2.7.2c.4-.2.8-.6 1-1 .4-.5.4-1 .1-.5a3 3 0 0 1-1.7 1h-.6l-.3-.6c-.4-.6-.3-.8.3-.8.5 0 .7-.3.6-.8-.1-.8-1-1-1.7-.4-.3.3-.4.5-.4 1.2 0 1.2.3 1.6 1 2 .8.3 1 .3 1.7-.1zm30.2 0c0-.2 0-.9-.3-1.6l-.5-2-.2-1.1-.2-1c-.1-1-.2-1.3-.6-1.4-.4-.1-.5 0-.5.6 0 .4 1.1 4.6 1.5 5.7.3 1 .7 1.2.8.7zm1.3-.3l-.4-1.8a191.9 191.9 0 0 0-.9-4c0-.3-.2-.5-.4-.5-.3 0-.3.2 0 1.7a164 164 0 0 1 1 3.9l.1.6.4.2c.1 0 .3 0 .2-.1zm1.3-.3c0 .2.2.2.5.1.7 0 1-.3.8-.6-.2-.3-.5-1.5-.6-2.5 0-1-.3-1.5-.6-1-.1.3 0 1.9.3 2.7.3.7.3 1 0 1-.2 0-.5-.5-.5-1l-.3-1.4a25 25 0 0 1-.3-1.6c0-.8-.7-1.2-1-.6l-.1.4.2.8c.1 1.2.5 2.7.9 3.4.3.7.3.7.5.4.1-.1.2-.2.2 0zm-8.6-.6l-.2-.2-.2.3c0 .2.1.2.2.2l.2-.3zM58 57c0-.2-.2-.3-.2-.1v.2l.1.2.1-.3zm14.4-.2c0-.3-.2-.4-.4-.2 0 .2 0 .5.3.5l.1-.3zm-16.4 0v-.2c0-.2.1-.3.2-.3.2-.1.4-3 .2-3-.3 0-.5.5-.6 1.6l-.2 1.6c-.2.4-.1.5 0 .4h.4zm19.4-.5l.5-.7.7-1.2c.3-.8.3-1 .3-3.4 0-1.8-.1-2.5-.3-2.6-.5-.4-.5-.2-.5 2.6 0 2.9 0 3.4-.6 4.2-.3.4-.5.5-1 .5-.3 0-.7-.2-.8-.3-.2-.2-.2-.3.3-.5.4-.1.5-.3.5-.6 0-.4-.1-.6-.6-.8-.5-.3-.6-.3-.9 0-.5.6-.6 1.3-.2 2.1l.4.7.4.3c.4.3 1.4.2 1.8-.3zm-18-.7c.2-1.2.2-1.4 0-1.6-.2-.4-.2-.2-.3 1 0 1.2.1 1.6.3.6zm47.8.3c0-.2.2-.3.4-.3l.2-.1.4-.3c.4-.2 1.2-.8 1.2-1 0-.2-1-1-1.2-1l-.3.1c0 .2-.1.2-.4 0-.4-.2-.8-.3-.8 0 0 0 .1.2.3.2.3 0 .5.8.2.8-.1 0-.2 0-.2-.2l-.2-.1.1.4c.4.5.3.6-.1.5-.3 0-.4 0-.4.2s0 .4.2.5c.1.2.1.2-.1.2l-.2.1c.1.3.9.2 1 0zM77.8 55l.2-.6.1-.3c.7-.5 1.3-3.8 1-4.6-.4-.6-.5-.2-.6 1.3a8.5 8.5 0 0 1-1.4 4.3c-.2.2 0 1 .2.7l.5-.8zm31.5-1.2a6.5 6.5 0 0 0-1.4-1.8l-.7-.5-.8-.5-.7-.5c-.2-.3-.5-.5-.6-.5l-.7-.3c-.3-.1-.5-.2-.6-.1-.3.1-.2.7 0 .7.1 0 .3.1.3.3l.3.2c.2 0 .4.1.5.3l.4.2c.2 0 .5.3.8.5.3.3.7.6.9.6l.4.3c0 .2 1 1.3 1.5 1.6.4.2.6 0 .4-.5zm-33.7-.3c.3-.7 0-5-.4-5.7-.3-.3-.4.1-.2.9.1 1 .2 2.6 0 3.6-.1 1.3.2 2 .6 1.2zm16-.3c.2-.4.6-1 .9-1.2.6-.7.8-1.2.6-1.2-.1 0-.2 0-.2-.2s-.5-.6-1.7-1.2l-.7-.4c-.1-.2-.8-.5-1-.5l-1.2-.8c-.5-.4-1.4-.8-2-1-.9-.2-2-.7-2-1H84l-1.7-.8-.8-.3c-.4 0-.9-.3-1.1-.4a18 18 0 0 0-2.1-.7l-1.8-.6-1-.2a55.2 55.2 0 0 1-6.3-1l-1-.1-2.6-.3a21.3 21.3 0 0 1-1.7 0h-8.6c-1.9 0-1.9 0-2 1.5-.1 1.5 0 1.6 1.3 1.5a46.5 46.5 0 0 1 6.8.1A42 42 0 0 1 75.1 47a10.1 10.1 0 0 0 2.3.7c.3 0 1 .4 2 1a13.4 13.4 0 0 0 1.8.7l1.2.5a42.5 42.5 0 0 1 5.3 2.4c.4 0 1.3.6 1.3.7l.4.3.5.2c.1.2.7.5 1 .5.1 0 .4-.2.7-.6zm-36-.6c.5-.4.6-.7.2-.5l-.7.1c-.4 0-.4 0-.4-.8 0-.7-.1-.8-.6-.7-.4 0-.5.2-.7.6-.2.7.1 1.5.6 1.5l.4.2c.1.2.7 0 1.2-.4zm19-1.6c0-1.6-.1-2.1-.5-3.4-.2-.5-.4-.2-.3.3.3.7.4 1.7.4 3l.2 1.4-.1.3c-.1 0-.1 0 0 0 .3 0 .4 0 .3-1.6zm3.3.2c.2-1.1.1-2.5-.1-2.8-.3-.2-.3.1-.3 2.1 0 2.3 0 2.3.1 2 .1 0 .3-.6.3-1.3zm-21-.1c.5-.8.6-1.2.6-1.9 0-.5-.1-.9-.2-.9s-.2.3-.4 1.6l-.2.8c-.2.3-.5 1.3-.4 1.3l.7-1zm-1.2-.1c0-.2.1-.3.2-.3.2 0 .5-.6.5-1.4v-4c-.2-.3-.4.6-.5 2.6 0 1.2-.2 2.4-.3 2.5-.2.5-.2 1 0 1l.1-.4zm54-.7c.2-.4.3-.6 0-.6-.2 0-1 1-1 1.3 0 .2.3-.1 1-.7zm-47.3.2c.1-.1.2-.3.1-.5 0-.3-.2-.3-.6-.3-.6 0-.6 0-.7.5-.2.7 0 .8.6.6l.6-.3zm-1.8-.4c0-.2 0-.4-.2-.5-.2 0-.3 0-.3.5 0 .7.4.7.5 0zm48.2-.4l1-1.2s.1-.2 0-.2c-.3-.2-.7 0-1 .7l-.5.7-.4.9c0 .3.4 0 1-.9zm-2.4-.4c0-.3 0-.3-.1-.2-.1.1-.2.3-.1.4.2.3.2.2.2-.2zm1.8-.5c0-.1-.1-.1-.2 0l-.1.3c0 .3 0 .3.1 0l.2-.3zm-46.1 0c-.1-.3-1.5-.8-2-.8s-1.7.5-1.7.7c0 .2.7.2 1.9.2s1.8 0 1.8-.2zm31.1-.8a330.9 330.9 0 0 1 2.1-3.2l.3-.5c.3-.3.4-.7.4-.8l.2-.2c.1 0 .8-1 1-1.5l.3-.5c.4-.5.3-.6-.4-.4l-1.4.2-1 .1c-.2.1-.3.9-.4 2-.2 2-.5 3.2-.8 3V46l.1-1c.2-2.4.3-3.4.5-3.9s.3-.5.8-.6l1.4-.1c.4-.1.8-.2.9-.1l.1-.1c0-.1 0-.2.2-.1s1 0 1-.3c0-.1-1-.4-1.5-.3-.2 0-.3 0-.3-.2s-3-.3-3.4 0c-.3.3-.4 1.3-.5 3.5 0 1.9 0 2.1-.4 2.5 0 .1-.1.3 0 .4l-.4 1.1c-.6 1-.6 1.5-.3 1.9.3.2 1 .4 1 .1l.5-.7zm13.7.4V48v-.3c-.2.1-.3.3-.3.5 0 .1 0 .3-.2.3l-.1.2h.3l.3-.3zm-49.4-2.9c-.1-.4-.4 0-.3.4l.1 1.2c0 .7 0 .7.1-.3v-1.3zm1.3 2.1l.5-.1h.6c.1-.2.7 0 1.3 0 .6.2 1 .3 1.1.2 0 0 0-.2-.3-.4-.2-.3-.5-.4-1.4-.4-1.1 0-2.2.3-2.2.7 0 .3.3.3.4 0zm32.3-.6c.5-1 .6-2 .5-3-.1-1.2-.5-2.3-.8-2.2l-.1-.2c0-.2-.1-.4-.3-.4-.2 0-.3-.2-.3-.3 0-.1-.9 0-1.7.2-1 .2-1.4.9-1.3 1.8.1 1 .6 1.6 1.2 1.6.5 0 .6 0 .8-.4.6-1.3 1-.8 1 1l-.1 1.7.1.7c.4.4.6.3 1-.5zm18.5.2c.2-.2.2-.4.1-.4-.2 0-.7.5-.5.5.1 0 0 0 0 .2-.2 0-.2.1-.1.1l.5-.4zM55.3 47c0-1.5 0-1.7-.3-1.8-.6 0-1.2.2-1.2.5s1 1.5 1.3 1.5c0 0 .2 0 .2-.2zm54.4-1.2l-.2-.1h-.2c0 .1 0 .2.2.2h.2zm.2-.4c0-.1 0-.2-.2-.2v.2l.1.2.1-.2zm-28.2-2l.4-.8c.3-.6.8-1.2 1-1.2 0 0 .2.2.2.5.3 1 .8 1.3 1.2.4.3-.8.3-1-.2-1.5-.2-.4-.5-.5-1-.5-.9 0-1.1.2-1.7 1.4-.5.9-.6 1.4-.4 2 0 0 .3 0 .5-.3zm-1-1.5c.2-.6.5-1 .6-1l.1-.3.3-.5.3-.5c0-.1.2-.3.4-.3.3-.1.3-.2.2-1.1 0-1-.1-1.1-.5-1.5a2 2 0 0 1-.5-.6l-.4-.5-.6-.8c-.4-.7-.5-.6-.8 2.9-.1 1.6-.4 3.2-.7 4.7 0 .3 0 .4.3.6.5.2.7 0 1.2-1zm.2-2.9v-1.8l-.2-.6.4.3.3.6.1.2s.3 0 .4.2c.3.3.3.3-.4 1.1-.3.4-.8.5-.6 0zm-2.3 2.8c.2-.9.3-1.3.4-3.4l.4-2.4c.2-.5-.2-1-.6-.8a35.6 35.6 0 0 1-2.1 1.4c-.3.3-.3 2.2 0 3.2L77 41c0 .2.1.7.3 1 .2.4.4.5.7.5.4 0 .5-.2.6-.7zm-1.4-3.3c-.2-.6.1-1.3.7-1.4.2 0 .3-.2.3-.4 0-.3.3-.3.4 0 0 .1 0 .3-.2.5l-.5 1c0 .6-.4.8-.7.3zm-.9 2.8c0-.4-.2-1-.4-1.5l-.3-1-.2-.1c-.2 0-.3-.1-.4-.3-.2-.2-1.1-.2-1.4 0-.4.2-.4 1-.1 1.3.3.4.5.4 1 0l.3-.4.3.4c.3.2.6 1.6.6 2.3h.4c.3 0 .3 0 .2-.7zm-2 .2c.4.2.7 0 .5-.3-.1-.2-.3-.3-.5-.2-.7.1-1.5-.3-1.6-.7-.1-.4-.2-.4-1.2-.4l-1.1.1c-.2 1 0 1.2 1.4 1.2.2 0 .3 0 .3.2h.5l.8.1h.9zm-4.7-1.4c.2-.7.8-1.4 1.1-1.4.2 0 .4.1.5.3l.5.3V39c0-.2.2-.3.3-.3.1 0 .1 0 0-.2-.2 0-.2-.2-.2-.3.1 0 0-.3-.2-.5-.6-.6-2.5.2-2.5 1.2l-.1.4c-.2 0-.3.9-.1 1.3.2.5.6.2.7-.5zm-1.8.3l.2-.4.2-.6.3-.8.1-.3s.4-.3.6-.7c.4-.6.5-1 .5-1.5 0-.6-.4-1.6-.6-1.6-.2 0-1.2-1.1-1.3-1.4 0-.2-.2-.4-.4-.4-.3-.2-.5.3-.3.5v.6c0 .2.2.4.8 1 .7.5.8.6.8 1 0 .7-.3 1.2-.7 1.2-.3 0-.4-.1-.1-.8.1-.5-.1-1-.5-1-.2 0-.3.2-.4 1.3a4484.6 4484.6 0 0 1 0 4c.2.2.5.3.8 0zm-12.3 0c0-.2.2-.2.3 0v-.7l-.2-2.1c0-1.5-.4-2.8-.8-3.1l-.6-.5c-.2-.2-1.3-.4-2.2-.4-.3 0-1 0-1.4-.2-.5-.2-.8-.2-1 0l.1.2.2.3c0 .3.4 1 .8 1.4l.3.4 1.6 2.5.3.6.1.2.5.7.7.7h1.3zm-1.2-3.1a1 1 0 0 1-.1-.6c0-.8-.3-1.2-1.2-1.5l-1-.2c-.2 0-1-.4-1-.7-.3-.5.1-.6.7-.2.4.3 1 .4 1.4.4 1.3 0 2 .8 1.7 2l-.2.8c0 .2-.1.2-.3 0zm3.2 2.5c-.1-.8 0-2.4.1-2.5.4-.2.5-.2.7.5.2.4.3.5.5.5l.3-.1c.2 0 0-1.4-.1-1.5-.4-.3-1-.4-1.6-.2-.7.2-1 .9-.8 2.2V40c0 .2.2.3.4.4.5 0 .6 0 .5-.6zm1.6.5l.7.1h.2c0-.2 0-.2.1-.1.3.1 1.6.2 1.6 0l-.3-.1c-.2 0-.3 0-.2-.1.1 0 .1-.2-.1-.4-.5-.4-.6-1.6-.3-2.2.3-.6.7-.9 1.5-1.1.7-.2.7-.2 1-1 0-.5.4-1 .8-1.4a43.4 43.4 0 0 0 1.6-1.4l.4-.2h.4s.1 0 0-.2c0-.3-.2-.3-4.4-.4a103.6 103.6 0 0 0-12.4.3c.2 0 .4 0 .4.2a228.1 228.1 0 0 1 4 .9c.7 0 2 1 2 1.7l.1.5c.1 0 .1.2 0 .4 0 .1.1.2.6 0 .3 0 .6 0 .7-.2.3-.2 1.2 0 1.8.4 1.3 1 .8 3.2-.8 3.2-.5 0-.5.1-.5.7s0 .6.2.5c.2-.1.6-.2 1-.1zm7-.4l.2-1.7v-3.3l-.4.4c-.4.5-.4.6-.3 1 .3.5 0 .8-.4.5-.5-.2-.4-1 0-1.7.3-.3.5-.5.7-.5l.4-.2v-.6c.2-.5 0-.4-1.1.3-1.5 1-1.6 1.7-.6 4l.6 1.7c0 .5.1.7.6.7l.3-.6zm-3.2.3c0-.2-.4-.4-.6-.3l-.1.3c0 .2.6.2.7 0zm1.4-.5c-.4-1.6-1-2.4-2-2.4l-.7.2c-.3.3-.3 1.1 0 1.2.5.2.7.1.7-.1s.2-.2.5-.2c.4 0 .6.3 1 1.3 0 .3.2.4.4.4.1 0 .2-.3.1-.4zm47.2 119c-.3-.6-.3-4.6-.1-23l.1-18.2a232 232 0 0 1 0-9.3A6850.7 6850.7 0 0 1 112 47a9248.5 9248.5 0 0 1-.4 111.8zm.3-112.2zm0-10.7c0-.4 0-.6.1-.4v.4z"/></svg>